<?xml version="1.0" encoding="UTF-8" standalone="no"?>
<svg
   width="108"
   height="108"
   viewBox="0 0 28.575 28.575"
   version="1.1"
   id="svg8"
   inkscape:version="1.1.2 (1:1.1+202202050950+0a00cf5339)"
   sodipodi:docname="___kde_connect.svg"
   inkscape:export-filename="/home/reese/Pictures/icons/png/kde_connect.png"
   inkscape:export-xdpi="28.659931"
   inkscape:export-ydpi="28.659931"
   xmlns:inkscape="http://www.inkscape.org/namespaces/inkscape"
   xmlns:sodipodi="http://sodipodi.sourceforge.net/DTD/sodipodi-0.dtd"
   xmlns="http://www.w3.org/2000/svg"
   xmlns:svg="http://www.w3.org/2000/svg"
   xmlns:rdf="http://www.w3.org/1999/02/22-rdf-syntax-ns#"
   xmlns:cc="http://creativecommons.org/ns#"
   xmlns:dc="http://purl.org/dc/elements/1.1/">
  <defs
     id="defs2" />
  <sodipodi:namedview
     id="base"
     pagecolor="#ffffff"
     bordercolor="#666666"
     borderopacity="1.0"
     inkscape:pageopacity="0.0"
     inkscape:pageshadow="2"
     inkscape:zoom="2.022015"
     inkscape:cx="144.4104"
     inkscape:cy="241.34341"
     inkscape:document-units="mm"
     inkscape:current-layer="foreground"
     showgrid="false"
     fit-margin-top="0"
     fit-margin-left="0"
     fit-margin-right="0"
     fit-margin-bottom="0"
     inkscape:window-width="1892"
     inkscape:window-height="1000"
     inkscape:window-x="14"
     inkscape:window-y="66"
     inkscape:window-maximized="1"
     inkscape:snap-global="true"
     inkscape:snap-bbox="false"
     inkscape:bbox-paths="false"
     inkscape:bbox-nodes="true"
     inkscape:snap-bbox-edge-midpoints="true"
     inkscape:snap-bbox-midpoints="true"
     inkscape:snap-nodes="true"
     inkscape:snap-text-baseline="true"
     inkscape:snap-page="true"
     inkscape:snap-to-guides="true"
     inkscape:document-rotation="0"
     units="px"
     inkscape:pagecheckerboard="1" />
  <metadata
     id="metadata5">
    <rdf:RDF>
      <cc:Work
         rdf:about="">
        <dc:format>image/svg+xml</dc:format>
        <dc:type
           rdf:resource="http://purl.org/dc/dcmitype/StillImage" />
        <dc:title />
      </cc:Work>
    </rdf:RDF>
  </metadata>
  <g
     inkscape:groupmode="layer"
     id="background"
     inkscape:label="Background">
    <rect
       style="fill:#2d2d2d;fill-opacity:1;stroke-width:0.343061;stroke-linecap:round;stroke-linejoin:round"
       id="rect14685"
       width="28.575001"
       height="28.575001"
       x="0"
       y="-3.469447e-18" />
  </g>
  <g
     inkscape:label="Foreground"
     inkscape:groupmode="layer"
     id="foreground"
     transform="translate(449.41339,493.41072)">
    <path
       d="m -434.78416,-484.07482 -1.77916,0.17032 v 7.32606 l 1.76035,-0.26503 v -3.1235 l 2.36624,3.46437 1.85505,-0.58696 -2.42298,-3.33171 2.44195,-3.14243 -1.89283,-0.43519 -2.3474,3.1423 z m -4.03293,1.78524 c -0.0201,0.003 -0.0394,0.012 -0.0546,0.0261 l -0.69829,0.69816 c -0.0294,0.0294 -0.0348,0.0752 -0.0135,0.11085 l 0.81754,1.34649 c -0.14505,0.24378 -0.26122,0.50662 -0.34429,0.78388 l -1.50089,0.3122 c -0.0417,0.009 -0.0718,0.0456 -0.0718,0.0885 v 0.98737 c 0,0.0417 0.0285,0.078 0.0688,0.0876 l 1.45677,0.35609 c 0.0777,0.32112 0.19806,0.62553 0.35717,0.90532 l -0.84321,1.28583 c -0.0236,0.0359 -0.0186,0.0833 0.012,0.11355 l 0.69804,0.69816 c 0.0294,0.0292 0.0752,0.035 0.111,0.0135 l 1.32133,-0.8025 c 0.25955,0.1497 0.53945,0.26765 0.83528,0.34758 l 0.30829,1.48227 c 0.009,0.042 0.0457,0.0718 0.0883,0.0718 h 0.98751 c 0.0415,0 0.0777,-0.0283 0.0876,-0.069 l 0.36312,-1.48536 c 0.30497,-0.0823 0.59339,-0.20496 0.85928,-0.36154 l 1.30212,0.85377 c 0.0357,0.0236 0.0831,0.0189 0.11355,-0.012 l 0.69828,-0.69815 c 0.0296,-0.0295 0.0349,-0.0752 0.0135,-0.11085 l -0.47535,-0.78339 -0.15378,0.0486 c -0.0223,0.008 -0.0469,-10e-4 -0.0601,-0.0208 0,0 -0.3032,-0.44383 -0.69476,-1.01695 -0.46812,0.91612 -1.42047,1.54369 -2.52024,1.54369 -1.56252,0 -2.82928,-1.26679 -2.82928,-2.82939 0,-1.14948 0.68563,-2.13807 1.66987,-2.5809 v -0.72993 c -0.17914,0.0627 -0.35232,0.1383 -0.51679,0.22782 -1.2e-4,-1e-4 -2e-4,-4.2e-4 -6.3e-4,-8.4e-4 l -1.33275,-0.87412 c -0.018,-0.012 -0.0387,-0.0164 -0.0588,-0.015 z"
       id="path4337"
       style="fill:#f3f3f3;fill-opacity:1;stroke-width:0.297645"
       inkscape:label="kde logo"
       inkscape:connector-curvature="0" />
  </g>
</svg>
