<?xml version="1.0" encoding="UTF-8"?>
<svg version="1.1" viewBox="0 0 108 108" xmlns="http://www.w3.org/2000/svg">
	<g id="background">
		<rect width="108" height="108" style="fill:#dcaf74"/>
	</g>
	<g id="foreground">
		<path d="m54.006 62.789a8.7887 8.7887 0 0 1-8.7887-8.7887 8.7887 8.7887 0 0 1 8.7887-8.7887 8.7887 8.7887 0 0 1 8.7887 8.7887 8.7887 8.7887 0 0 1-8.7887 8.7887m18.657-6.353c0.10044-0.80354 0.17577-1.6071 0.17577-2.4357s-0.07533-1.6573-0.17577-2.5111l5.2983-4.093c0.4771-0.37666 0.60265-1.0546 0.30133-1.6071l-5.0221-8.6883c-0.30133-0.55243-0.97931-0.77843-1.5317-0.55243l-6.2525 2.5111c-1.3058-0.97931-2.6617-1.8331-4.2437-2.4608l-0.92909-6.6543c-0.10044-0.60265-0.62776-1.0546-1.2555-1.0546h-10.044c-0.62776 0-1.1551 0.45199-1.2555 1.0546l-0.92909 6.6543c-1.582 0.62776-2.9379 1.4815-4.2437 2.4608l-6.2525-2.5111c-0.55243-0.226-1.2304 0-1.5317 0.55243l-5.0221 8.6883c-0.32644 0.55243-0.17577 1.2304 0.30133 1.6071l5.2983 4.093c-0.10044 0.85376-0.17577 1.6824-0.17577 2.5111s0.07533 1.6322 0.17577 2.4357l-5.2983 4.1684c-0.4771 0.37666-0.62776 1.0546-0.30133 1.6071l5.0221 8.6883c0.30133 0.55243 0.97931 0.75332 1.5317 0.55243l6.2525-2.5362c1.3058 1.0044 2.6617 1.8582 4.2437 2.4859l0.92909 6.6543c0.10044 0.60265 0.62776 1.0546 1.2555 1.0546h10.044c0.62776 0 1.1551-0.45199 1.2555-1.0546l0.92909-6.6543c1.582-0.65288 2.9379-1.4815 4.2437-2.4859l6.2525 2.5362c0.55243 0.20088 1.2304 0 1.5317-0.55243l5.0221-8.6883c0.30133-0.55243 0.17577-1.2304-0.30133-1.6071z" style="fill:#212021;stroke-width:2.5111"/>
	</g>
</svg>
