<?xml version="1.0" encoding="UTF-8" standalone="no"?>
<svg
   xmlns:dc="http://purl.org/dc/elements/1.1/"
   xmlns:cc="http://creativecommons.org/ns#"
   xmlns:rdf="http://www.w3.org/1999/02/22-rdf-syntax-ns#"
   xmlns:svg="http://www.w3.org/2000/svg"
   xmlns="http://www.w3.org/2000/svg"
   xmlns:sodipodi="http://sodipodi.sourceforge.net/DTD/sodipodi-0.dtd"
   xmlns:inkscape="http://www.inkscape.org/namespaces/inkscape"
   version="1.1"
   width="108"
   height="108"
   viewBox="0 0 108 108"
   id="svg4"
   sodipodi:docname="io.github.muntashirakon.AppManager.svg"
   inkscape:version="0.92.5 (2060ec1f9f, 2020-04-08)">
  <metadata
     id="metadata10">
    <rdf:RDF>
      <cc:Work
         rdf:about="">
        <dc:format>image/svg+xml</dc:format>
        <dc:type
           rdf:resource="http://purl.org/dc/dcmitype/StillImage" />
        <dc:title />
      </cc:Work>
    </rdf:RDF>
  </metadata>
  <defs
     id="defs8" />
  <sodipodi:namedview
     pagecolor="#ffffff"
     bordercolor="#666666"
     borderopacity="1"
     objecttolerance="10"
     gridtolerance="10"
     guidetolerance="10"
     inkscape:pageopacity="0"
     inkscape:pageshadow="2"
     inkscape:window-width="640"
     inkscape:window-height="480"
     id="namedview6"
     showgrid="false"
     inkscape:zoom="8.6694238"
     inkscape:cx="24.232795"
     inkscape:cy="56.020865"
     inkscape:current-layer="layer2" />
  <g
     inkscape:groupmode="layer"
     id="background"
     inkscape:label="Background">
    <rect
       style="opacity:1;fill:#212021;fill-opacity:1;fill-rule:nonzero;stroke:none;stroke-width:1.16755748;stroke-linecap:round;stroke-linejoin:round;stroke-miterlimit:4;stroke-dasharray:none;stroke-opacity:1"
       id="rect834"
       width="108"
       height="108"
       x="0"
       y="0" />
  </g>
  <g
     inkscape:groupmode="layer"
     id="foreground"
     inkscape:label="Foreground">
    <path
       inkscape:connector-curvature="0"
       d="M 54.005545,62.788702 A 8.7887021,8.7887021 0 0 1 45.216843,54 8.7887021,8.7887021 0 0 1 54.005545,45.211298 8.7887021,8.7887021 0 0 1 62.794249,54 8.7887021,8.7887021 0 0 1 54.005545,62.788702 M 72.662706,56.435726 C 72.763149,55.632188 72.83848,54.828649 72.83848,54 c 0,-0.828649 -0.07533,-1.657298 -0.175774,-2.511058 l 5.298332,-4.093024 c 0.477101,-0.376659 0.602654,-1.054644 0.301327,-1.607077 l -5.022115,-8.68826 c -0.301327,-0.552432 -0.979313,-0.778428 -1.531746,-0.552432 l -6.252533,2.511057 C 64.150221,38.079894 62.794249,37.226134 61.212283,36.59837 L 60.283192,29.944067 C 60.182749,29.341413 59.655427,28.889423 59.027663,28.889423 H 48.983429 c -0.627764,0 -1.155086,0.45199 -1.255529,1.054644 l -0.929091,6.654303 c -1.581966,0.627764 -2.937938,1.481524 -4.243688,2.460836 l -6.252533,-2.511057 c -0.552433,-0.225996 -1.230419,0 -1.531746,0.552432 l -5.022115,8.68826 c -0.326438,0.552433 -0.175774,1.230418 0.301327,1.607077 l 5.298332,4.093024 C 35.247943,52.342702 35.172612,53.171351 35.172612,54 c 0,0.828649 0.07533,1.632188 0.175774,2.435726 l -5.298332,4.168356 c -0.477101,0.376659 -0.627765,1.054644 -0.301327,1.607077 l 5.022115,8.68826 c 0.301327,0.552432 0.979313,0.753317 1.531746,0.552432 l 6.252533,-2.536168 c 1.30575,1.004423 2.661722,1.858183 4.243688,2.485947 l 0.929091,6.654303 c 0.100443,0.602654 0.627765,1.054644 1.255529,1.054644 h 10.044234 c 0.627764,0 1.155086,-0.45199 1.255529,-1.054644 l 0.929091,-6.654303 c 1.581966,-0.652875 2.937938,-1.481524 4.243688,-2.485947 l 6.252533,2.536168 c 0.552433,0.200885 1.230419,0 1.531746,-0.552432 l 5.022115,-8.68826 c 0.301327,-0.552433 0.175774,-1.230418 -0.301327,-1.607077 z"
       id="path2-6"
       style="fill:#dcaf74;fill-opacity:1;stroke-width:2.51105785" />
  </g>
</svg>
