<?xml version="1.0" encoding="UTF-8"?>
<svg fill="none" version="1.1" viewBox="0 0 108 108" xmlns="http://www.w3.org/2000/svg">
	<defs>
		<linearGradient id="linearGradient3189" x1="26.02" x2="83.264" y1="24.954" y2="82.199" gradientUnits="userSpaceOnUse">
			<stop stop-color="#f8f8f8" offset="0"/>
			<stop stop-color="#cfcfd1" offset="1"/>
		</linearGradient>
	</defs>
	<g display="none">
		<g display="inline" fill="none" stroke="#000" stroke-width="1.5">
			<path d="m53.938 69.637-13.488-7.7874v-15.575l13.488-7.7874 13.488 7.7874v15.575z" stroke-linecap="round"/>
			<g>
				<circle cx="53.938" cy="32.31" r="3.6563" stroke-linecap="round"/>
				<path d="m53.938 38.487v-2.4586"/>
				<circle cx="72.776" cy="43.186" r="3.6563" stroke-linecap="round"/>
				<path d="m67.426 46.274 2.1292-1.2293"/>
				<circle cx="35.101" cy="43.186" r="3.6563" stroke-linecap="round"/>
				<path d="m40.45 46.274-2.1292-1.2293"/>
				<circle cx="53.938" cy="75.814" r="3.6563" stroke-linecap="round"/>
				<path d="m53.938 69.637v2.4587"/>
				<circle cx="72.776" cy="64.938" r="3.6563" stroke-linecap="round"/>
				<path d="m67.427 61.849 2.1292 1.2294"/>
				<circle cx="35.101" cy="64.937" r="3.6563" stroke-linecap="round"/>
				<path d="m40.45 61.849-2.1292 1.2294"/>
			</g>
			<path d="m53.938 47.192v13.739" stroke-linecap="round"/>
		</g>
	</g>
	<g id="background">
		<rect width="108" height="108" fill="url(#linearGradient3189)"/>
	</g>
	<g id="foreground">
		<path d="m54 27.842c-2.4247 0-4.4062 1.9816-4.4062 4.4062 0 2.1692 1.5859 3.9835 3.6562 4.3418v1.4023l-12.738 7.3535-1.2148-0.70117c0.72428-1.9719-0.05337-4.2515-1.9316-5.3359-2.0998-1.2123-4.8052-0.48654-6.0176 1.6133-1.2123 2.0998-0.4885 4.8052 1.6113 6.0176 1.8785 1.0845 4.2424 0.61754 5.5879-0.99609l1.2148 0.70117v14.711l-1.2148 0.70117c-1.3455-1.6136-3.7094-2.0806-5.5879-0.99609-2.0998 1.2123-2.8237 3.9178-1.6113 6.0176 1.2123 2.0998 3.9178 2.8256 6.0176 1.6133 1.8783-1.0844 2.6559-3.364 1.9316-5.3359l1.2148-0.70117 12.738 7.3516v1.4043c-2.0703 0.35833-3.6562 2.1726-3.6562 4.3418 0 2.4247 1.9816 4.4062 4.4062 4.4062s4.4062-1.9816 4.4062-4.4062c0-2.1692-1.5859-3.9835-3.6562-4.3418v-1.4023l12.738-7.3535 1.2148 0.70117c-0.72428 1.9719 0.05337 4.2515 1.9316 5.3359 2.0998 1.2123 4.8052 0.48654 6.0176-1.6133 1.2123-2.0998 0.4885-4.8052-1.6113-6.0176-1.8785-1.0845-4.2424-0.61754-5.5879 0.99609l-1.2148-0.70117v-14.711l1.2148-0.70117c1.3455 1.6136 3.7094 2.0806 5.5879 0.99609 2.0998-1.2123 2.8237-3.9178 1.6113-6.0176-1.2123-2.0998-3.9178-2.8256-6.0176-1.6133-1.8783 1.0844-2.6559 3.364-1.9316 5.3359l-1.2148 0.70117-12.738-7.3535v-1.4023c2.0703-0.35833 3.6562-2.1726 3.6562-4.3418 0-2.4247-1.9816-4.4062-4.4062-4.4062zm0 1.5c1.614 0 2.9062 1.2922 2.9062 2.9062s-1.2922 2.9062-2.9062 2.9062-2.9062-1.2922-2.9062-2.9062 1.2922-2.9062 2.9062-2.9062zm0 9.9492 12.738 7.3535v14.709l-12.738 7.3535-12.738-7.3535v-14.709zm-18.762 0.92383c0.46812 0.01303 0.94015 0.14039 1.377 0.39258 1.3978 0.807 1.8715 2.5729 1.0645 3.9707-0.807 1.3978-2.5729 1.8695-3.9707 1.0625-1.3978-0.807-1.8695-2.571-1.0625-3.9688 0.55482-0.96097 1.5619-1.4857 2.5918-1.457zm37.523 0c1.0299-0.02866 2.037 0.49606 2.5918 1.457 0.807 1.3978 0.33527 3.1617-1.0625 3.9688-1.3978 0.807-3.1637 0.33527-3.9707-1.0625s-0.33332-3.1637 1.0645-3.9707c0.4368-0.25219 0.90884-0.37955 1.377-0.39258zm-18.762 6.166a0.75 0.75 0 0 0-0.75 0.75v13.738a0.75 0.75 0 0 0 0.75 0.75 0.75 0.75 0 0 0 0.75-0.75v-13.738a0.75 0.75 0 0 0-0.75-0.75zm-18.912 15.586c1.0299-0.02866 2.037 0.49411 2.5918 1.4551 0.807 1.3978 0.33332 3.1637-1.0645 3.9707-1.3978 0.807-3.1617 0.33332-3.9688-1.0645-0.807-1.3978-0.33527-3.1617 1.0625-3.9688 0.4368-0.25219 0.91079-0.37955 1.3789-0.39258zm37.824 0c0.46812 0.01303 0.9421 0.14039 1.3789 0.39258 1.3978 0.807 1.8695 2.571 1.0625 3.9688-0.807 1.3978-2.571 1.8715-3.9688 1.0645-1.3978-0.807-1.8715-2.5729-1.0645-3.9707 0.55482-0.96097 1.5619-1.4837 2.5918-1.4551zm-18.912 10.879c1.614 0 2.9062 1.2922 2.9062 2.9062s-1.2922 2.9062-2.9062 2.9062-2.9062-1.2922-2.9062-2.9062 1.2922-2.9062 2.9062-2.9062z" color="#000000" fill="#000" stroke-linecap="round" style="-inkscape-stroke:none"/>
	</g>
</svg>
