<?xml version="1.0" encoding="UTF-8"?>
<svg style="fill:none" version="1.1" viewBox="0 0 108 108" xmlns="http://www.w3.org/2000/svg">
	<g id="background">
		<rect transform="scale(-1,1)" x="-108" width="108" height="108" style="fill:#44affc;stroke-linecap:round;stroke-width:51.934"/>
		<g>
			<path d="m39.394 55.231c-1.6096 0-2.905 1.2964-2.905 2.9059v4.3918c0.1209 9.5938 7.8817 17.281 17.505 17.281 9.6994 0 17.509-7.8084 17.509-17.508v-4.2774c-0.0586-1.5571-1.3304-2.7934-2.9023-2.7934z" style="fill:#ffffff;stroke-linecap:round;stroke-width:10.426"/>
			<g>
				<path d="m47.444 69.748c-0.5457 0-1.0692 0.2167-1.4551 0.6024-0.3861 0.3859-0.603 0.9093-0.6031 1.4552-1e-4 0.546 0.2169 1.0697 0.6031 1.4558 0.3859 0.3858 0.9094 0.6024 1.4551 0.6024h13.112c1.1365-3e-4 2.0577-0.9217 2.0576-2.0582 0-0.2158-0.0338-0.4302-0.1004-0.6355-0.2036-0.6267-0.695-1.1181-1.3217-1.3217-0.2053-0.0665-0.4197-0.1004-0.6355-0.1004z" style="-inkscape-stroke:none;color:#000000;fill:#44affc;stroke-linecap:round;stroke-linejoin:round"/>
				<path d="m54.532 58.463c-0.5272-0.1411-1.0889-0.067-1.5615 0.2061-0.9844 0.5681-1.3218 1.8267-0.7536 2.8112l6.5558 11.354c0.5682 0.9844 1.8268 1.3218 2.8112 0.7536 0.4729-0.2728 0.818-0.7224 0.9594-1.2498 0.1413-0.5273 0.0673-1.0893-0.2057-1.5621l-6.5559-11.354c-0.2729-0.4727-0.7224-0.8177-1.2497-0.959z" style="-inkscape-stroke:none;color:#000000;fill:#ffb900;stroke-linecap:round;stroke-linejoin:round"/>
				<path d="m53.999 58.393c-0.1799 0-0.3591 0.0236-0.5328 0.0701-0.5273 0.1413-0.9769 0.4863-1.2498 0.9591l-6.5539 11.352c0.0897-0.155 0.1993-0.2976 0.3259-0.4242 0.386-0.3858 0.9094-0.6024 1.4551-0.6024h3.5643l4.7735-8.2676c0.5683-0.9842 0.2313-2.2428-0.7529-2.8112-0.3129-0.1809-0.6679-0.2761-1.0294-0.2762zm-6.8242 15.453c0.09 0.0118 0.1806 0.0176 0.2713 0.0175h-0.0027c-0.0898 0-0.1795-0.0058-0.2686-0.0175z" style="-inkscape-stroke:none;color:#000000;fill:#ff4ca5;stroke-linecap:round;stroke-linejoin:round;stroke-width:.33818"/>
			</g>
		</g>
	</g>
	<g id="foreground">
		<g>
			<path d="m39.367 29.654c-0.4287 0-0.8398 0.1705-1.1426 0.4739-0.6292 0.6304-0.6292 1.6512 0 2.2815l4.4972 4.4972c-3.7359 3.1402-6.1345 7.8153-6.2328 13.076 0.0291 1.5839 1.3129 2.851 2.9041 2.851h29.207c1.5519 0 2.8114-1.2049 2.8997-2.7339-0.0645-5.3064-2.4691-10.027-6.231-13.191l4.4991-4.499c0.6292-0.6304 0.6292-1.6512 0-2.2815-0.3024-0.303-0.7128-0.4735-1.1408-0.474-0.4293-4e-4 -0.8411 0.1701-1.1444 0.474l-4.9152 4.9124c-2.5317-1.4192-5.4536-2.231-8.5737-2.231-3.1187 0-6.039 0.8113-8.57 2.2292l-4.9133-4.9111c-0.3029-0.3033-0.7139-0.4738-1.1426-0.4739z" style="fill:#ffffff;stroke-linecap:round;stroke-width:3.7365"/>
			<circle cx="46.448" cy="45.223" r="2.7714" style="fill:#ff4ca5;stroke-linecap:round;stroke-width:1.9178"/>
			<circle cx="61.549" cy="45.223" r="2.7714" style="fill:#ffb900;stroke-linecap:round;stroke-width:1.9178"/>
		</g>
	</g>
</svg>
