<?xml version="1.0" encoding="UTF-8"?>
<svg style="fill:none" version="1.1" viewBox="0 0 108 108" xmlns="http://www.w3.org/2000/svg">
	<g id="background">
		<rect transform="scale(-1 1)" x="-108" width="108" height="108" style="fill:#695bff;stroke-linecap:round;stroke-width:51.934"/>
	</g>
	<g id="foreground">
		<g>
			<path d="m55.949 44.409h12.382c2.1867 0 3.9471 1.7604 3.9471 3.9471v12.186c0 2.1867-1.7604 3.9471-3.9471 3.9471h-12.382c-2.1867 0-3.9471-1.7604-3.9471-3.9471v-12.186c0-2.1867 1.7604-3.9471 3.9471-3.9471z" style="fill:#f16767;stroke-linecap:round;stroke-linejoin:round;stroke-width:5.3064"/>
			<circle cx="44.803" cy="52.58" r="11.709" style="fill:#44c68c"/>
			<path d="m54.34 32.118c-6.4338 0-11.694 5.2639-11.694 11.698v7.952c0 6.0604 4.668 11.08 10.587 11.642-0.7583-0.7184-1.2308-1.7354-1.2308-2.8672v-2.7831c-2.4094-0.9156-4.0774-3.2212-4.0774-5.9915v-7.952c0-3.5996 2.8156-6.4161 6.4152-6.4161 3.5997 0 6.4161 2.8165 6.4161 6.4161v0.593h5.279v-0.593c0-6.4338-5.2613-11.698-11.695-11.698z" style="-inkscape-stroke:none;color:#000000;fill:#ffffff;stroke-linecap:round;stroke-linejoin:round;stroke-width:1.6632"/>
			<path x="89.285316" y="144.8486" width="31.019602" height="16.340517" d="m31.724 48.703h44.552c0.8365 0 1.6249 0.3909 2.1313 1.0567 0.5065 0.6657 0.6727 1.5299 0.4495 2.3361l-5.6479 20.392c-0.5553 2.0048-2.3799 3.3928-4.4602 3.3928h-29.497c-2.0803 0-3.9049-1.388-4.4602-3.3928l-5.6479-20.392c-0.2233-0.8062-0.057-1.6704 0.4494-2.3361 0.5065-0.6658 1.2949-1.0567 2.1314-1.0567z" style="fill:#fefefe"/>
			<g>
				<path d="m47.426 66.124c-0.5756 0-1.1276 0.2285-1.5347 0.6354-0.4072 0.407-0.636 0.9591-0.6361 1.5347-1e-4 0.576 0.2287 1.1283 0.6361 1.5355 0.4071 0.4069 0.9591 0.6354 1.5347 0.6354h13.829c1.1987-3e-4 2.1702-0.9722 2.1701-2.1709 1e-4 -0.2275-0.0357-0.4537-0.1059-0.6701-0.2147-0.6611-0.7329-1.1794-1.394-1.3941-0.2165-0.0702-0.4426-0.1059-0.6702-0.1059z" style="-inkscape-stroke:none;color:#000000;fill:#44affc;stroke-linecap:round;stroke-linejoin:round"/>
				<path d="m54.902 54.222c-0.5561-0.1488-1.1485-0.0706-1.6469 0.2174-1.0382 0.5992-1.3941 1.9267-0.7949 2.965l6.9144 11.976c0.5993 1.0382 1.9267 1.3941 2.965 0.7948 0.4988-0.2877 0.8628-0.7619 1.0119-1.3181 0.149-0.5562 0.071-1.1489-0.217-1.6476l-6.9144-11.976c-0.2878-0.4987-0.762-0.8626-1.3181-1.0116z" style="-inkscape-stroke:none;color:#000000;fill:#ffb900;stroke-linecap:round;stroke-linejoin:round"/>
				<path d="m54.34 54.148c-0.1898 0-0.3788 0.0248-0.5621 0.0739-0.5561 0.1491-1.0302 0.513-1.3181 1.0116l-6.9125 11.974c0.0946-0.1634 0.2102-0.3138 0.3437-0.4473 0.4071-0.4069 0.9591-0.6354 1.5347-0.6354h3.7593l5.0347-8.7201c0.5994-1.038 0.2439-2.3655-0.7941-2.965-0.33-0.1908-0.7045-0.2912-1.0856-0.2913zm-7.1976 16.299c0.0949 0.0124 0.1904 0.0185 0.2861 0.0184h-0.0028c-0.0947 0-0.1894-0.0061-0.2833-0.0184z" style="-inkscape-stroke:none;color:#000000;fill:#ff4ca5;stroke-linecap:round;stroke-linejoin:round;stroke-width:.35669"/>
			</g>
		</g>
	</g>
</svg>
