<?xml version="1.0" encoding="UTF-8"?>
<svg style="fill:none" version="1.1" viewBox="0 0 108 108" xmlns="http://www.w3.org/2000/svg">
	<g id="background">
		<rect transform="scale(-1,1)" x="-108" width="108" height="108" style="fill:#ffffff;stroke-linecap:round;stroke-width:51.934"/>
	</g>
	<g id="foreground">
		<g>
			<path d="m36.882 61.328c-1.425-2e-4 -2.7917 0.5656-3.7996 1.5729-1.008 1.0076-1.5745 2.3744-1.5747 3.7996-2e-4 1.4259 0.5662 2.7934 1.5747 3.8014 1.0079 1.0074 2.3746 1.5732 3.7996 1.573h34.236c2.9675-8e-4 5.3728-2.4068 5.3726-5.3744 1e-4 -0.5633-0.0884-1.1233-0.2622-1.6592-0.5315-1.6366-1.8146-2.9197-3.4512-3.4512-0.5359-0.1738-1.0958-0.2623-1.6592-0.2621z" style="-inkscape-stroke:none;color:#000000;fill:#44affc;stroke-linecap:round;stroke-linejoin:round"/>
			<path d="m55.39 31.861c-1.3767-0.3684-2.8433-0.1748-4.0773 0.5381-2.5705 1.4837-3.4515 4.7701-1.968 7.3406l17.118 29.648c1.4836 2.5704 4.77 3.4515 7.3405 1.9679 1.2348-0.7124 2.136-1.8864 2.505-3.2634 0.3691-1.377 0.1759-2.8443-0.5371-4.0788l-17.118-29.648c-0.7126-1.2345-1.8864-2.1353-3.2632-2.5043z" style="-inkscape-stroke:none;color:#000000;fill:#ffb900;stroke-linecap:round;stroke-linejoin:round"/>
			<path d="m54 31.678c-0.4698-1e-4 -0.9376 0.0614-1.3914 0.183-1.3768 0.3689-2.5507 1.2698-3.2632 2.5044l-17.114 29.643c0.2343-0.4046 0.5204-0.7769 0.8511-1.1075 1.0078-1.0073 2.3745-1.5731 3.7995-1.573h9.307l12.464-21.588c1.4839-2.57 0.6038-5.8564-1.9659-7.3407-0.8171-0.4722-1.7442-0.7209-2.6879-0.721zm-17.819 40.351c0.2348 0.0308 0.4714 0.046 0.7082 0.0456h-0.0068c-0.2346 1e-4 -0.4689-0.0151-0.7014-0.0456z" style="-inkscape-stroke:none;color:#000000;fill:#ff4ca5;stroke-linecap:round;stroke-linejoin:round;stroke-width:.88307"/>
		</g>
	</g>
</svg>
