<?xml version="1.0" encoding="UTF-8"?>
<svg style="fill:none" version="1.1" viewBox="0 0 108 108" xmlns="http://www.w3.org/2000/svg">
	<g id="background">
		<rect width="108" height="108" style="fill:#0e476c"/>
		<path d="m70.187 43.515h9.1296c0.37615 0 0.67898 0.30276 0.67898 0.67884v19.613c0 0.37608-0.30282 0.67884-0.67898 0.67884h-9.1296c-0.37615 0-0.67898-0.30276-0.67898-0.67884v-19.613c0-0.37608 0.30282-0.67884 0.67898-0.67884z" style="fill:#ffc12c;stroke-linecap:round;stroke-width:4.8918"/>
		<path d="m28.684 43.515h9.1296c0.37615 0 0.67898 0.30276 0.67898 0.67884v19.613c0 0.37608-0.30282 0.67884-0.67898 0.67884h-9.1296c-0.37615 0-0.67898-0.30276-0.67898-0.67884v-19.613c0-0.37608 0.30282-0.67884 0.67898-0.67884z" style="fill:#ffc12c;stroke-linecap:round;stroke-width:4.8918"/>
		<path d="m60.944 39.569h12.565c0.51771 0 0.9345 0.4167 0.9345 0.93431v26.994c0 0.51761-0.41679 0.93431-0.9345 0.93431h-12.565c-0.51771 0-0.9345-0.4167-0.9345-0.93431v-26.994c0-0.51761 0.41679-0.93431 0.9345-0.93431z" style="fill:#17b8cc;stroke-linecap:round;stroke-width:6.7327"/>
		<path d="m34.491 39.569h12.565c0.51771 0 0.9345 0.4167 0.9345 0.93431v26.994c0 0.51761-0.41679 0.93431-0.9345 0.93431h-12.565c-0.51771 0-0.9345-0.4167-0.9345-0.93431v-26.994c0-0.51761 0.41679-0.93431 0.9345-0.93431z" style="fill:#17b8cc;stroke-linecap:round;stroke-width:6.7327"/>
	</g>
	<g id="foreground">
		<path d="m44.445 32.052h19.11c0.78738 0 1.4213 0.63375 1.4213 1.421v41.055c0 0.78722-0.63388 1.421-1.4213 1.421h-19.11c-0.78738 0-1.4213-0.63375-1.4213-1.421v-41.055c0-0.78722 0.63388-1.421 1.4213-1.421z" style="fill:#ffffff;stroke-linecap:round;stroke-width:10.24"/>
	</g>
</svg>
