<?xml version="1.0" encoding="UTF-8"?>
<svg fill="none" version="1.1" viewBox="0 0 108 108" xmlns="http://www.w3.org/2000/svg">
	<defs>
		<linearGradient id="linearGradient9282" x1="-115.42" x2="-106.57" y1="129.36" y2="136.24" gradientTransform="matrix(1.2577 0 0 1.2577 182.96 -127.61)" gradientUnits="userSpaceOnUse">
			<stop stop-color="#4ce58d" offset="0"/>
			<stop stop-color="#28c2ad" offset="1"/>
		</linearGradient>
	</defs>
	<g id="background">
		<path d="m0 0h108v108h-108z" fill="#fff" stroke-linecap="round" stroke-width="59.723"/>
		<path d="m67.814 34.547c-0.32178 0.05961-0.63607 0.21891-0.88697 0.46927l-14.841 14.81-4.1651-4.22s-3.4719-3.3718-8.5177-2.2323c-1.1644 0.26312-2.412 0.76611-3.7208 1.6065-2.1155 1.3584-3.3352 3.405-3.8251 5.7909l-5.2756 2.2632a1.4541 1.4541 0 0 0-0.01849 2.6644l5.756 2.5626c1.2942 4.6188 4.2465 9.255 8.0571 12.199 9.411 7.2704 18.385 6.8769 18.385 6.8769l17.243 0.01937a1.3592 1.3592 0 0 0 0.96888-2.3136l-12.182-12.344c4.0166-4.9833 6.1685-9.663 6.4911-17.909 0.20109-5.1399-1.0694-8.1389-2.0552-9.6689-0.31874-0.49469-0.8761-0.6728-1.4124-0.57354zm-27.583 13.253a3.9629 3.9629 0 0 1 4.7442 2.9843 3.9629 3.9629 0 0 1-2.9844 4.7436 3.9629 3.9629 0 0 1-4.7435-2.9838 3.9629 3.9629 0 0 1 2.9836-4.7441z" fill="#7d7d7d"/>
	</g>
	<g id="foreground">
		<path d="m35.282 45.253c4.0941-0.86625 8.1512-0.91997 12.165-0.03572a1.2321 1.2321 0 0 0 1.4165-1.7033l-6.4251-13.39a1.2673 1.2673 0 0 0-2.2884 0.0076l-6.3123 13.366a1.2689 1.2689 0 0 0 1.4438 1.7561z" fill="url(#linearGradient9282)"/>
	</g>
</svg>
