<?xml version="1.0" encoding="UTF-8"?>
<svg version="1.1" viewBox="0 0 108 108" xmlns="http://www.w3.org/2000/svg" xmlns:xlink="http://www.w3.org/1999/xlink">
	<defs>
		<linearGradient id="linearGradient13910" x1="18.545" x2="89.455" y1="54" y2="54" gradientTransform="matrix(.92313 0 0 1.0833 .382 0)" gradientUnits="userSpaceOnUse">
			<stop stop-color="#F50" offset="0"/>
			<stop stop-color="#F50" offset=".4099"/>
			<stop stop-color="#FF2000" offset=".582"/>
			<stop stop-color="#FF2000" offset="1"/>
		</linearGradient>
	</defs>
	<g id="background">
		<path d="m0 0h108v108h-108z" fill="url(#linearGradient13910)" stroke-linecap="round" stroke-width="15.858"/>
	</g>
	<g id="foreground" stroke-width=".41197">
		<path d="m61.168 64.804c0.37077 0.24718 0.16479 0.70035-0.20598 0.90633-0.32957 0.24718-4.9848 3.8313-5.3968 4.2433-0.45316 0.41197-1.1123 1.0299-1.5655 1.0299s-1.1123-0.65915-1.5655-1.0299c-0.45316-0.41197-5.0672-3.9961-5.3968-4.2433-0.32957-0.24718-0.57676-0.70035-0.20598-0.90633 0.37077-0.24718 1.5655-0.82394 3.1722-1.6891 1.6479-0.86513 3.6665-1.5655 3.9961-1.5655 0.32958 0 2.3482 0.70035 3.9961 1.5655 1.6067 0.86513 2.7602 1.4831 3.1722 1.6891zm4.5728-28.22s6.0971 7.3742 6.0971 8.9809-0.78274 1.9774-1.5655 2.8014c-0.78274 0.82394-4.1609 4.4081-4.5728 4.8612-0.45316 0.45316-1.3183 1.1535-0.82394 2.4306 0.53556 1.2359 1.3183 2.8426 0.45316 4.4905-0.86513 1.6067-2.3482 2.719-3.2957 2.513-0.94753-0.16479-3.2134-1.3595-4.0373-1.8951-0.82394-0.53556-3.4193-2.6778-3.4193-3.5017 0-0.82394 2.719-2.307 3.2134-2.6366 0.49436-0.32958 2.7602-1.6479 2.8014-2.1422 0.0412-0.49436 0.0412-0.65915-0.65915-1.9363-0.65915-1.2771-1.8951-2.9662-1.6891-4.0785 0.20598-1.1123 2.1422-1.6891 3.5429-2.2246s4.0785-1.5243 4.4081-1.6891c0.32958-0.16479 0.24718-0.28838-0.78274-0.41197-1.0299-0.08239-3.8725-0.49436-5.1908-0.12359s-3.5017 0.90633-3.7077 1.1947c-0.16479 0.28838-0.32958 0.28838-0.16479 1.3183 0.16479 0.98872 1.1535 5.85 1.2359 6.7151 0.08239 0.86513 0.28838 1.4419-0.65915 1.6479-0.90633 0.20598-2.4718 0.57676-3.0074 0.57676-0.53556 0-2.101-0.37077-3.0074-0.57676s-0.74154-0.78274-0.65915-1.6479c0.08239-0.86513 1.0299-5.6852 1.2359-6.7151 0.16479-0.98872 0.0412-1.0299-0.16479-1.3183-0.16479-0.28838-2.3894-0.82394-3.7077-1.1947-1.3183-0.37077-4.1609 0-5.1908 0.12359-1.0299 0.08239-1.1123 0.24718-0.78274 0.41197 0.32958 0.16479 3.0074 1.1535 4.4081 1.6891 1.4007 0.53556 3.3369 1.1123 3.5429 2.2246s-0.98872 2.8014-1.6891 4.0785c-0.65915 1.2771-0.70035 1.4007-0.65915 1.9363 0.0412 0.49436 2.307 1.8127 2.8014 2.1422 0.49436 0.32957 3.2134 1.8127 3.2134 2.6366 0 0.82394-2.5954 2.9662-3.4193 3.5017-0.82394 0.53556-3.0486 1.6891-4.0373 1.8951-0.94753 0.16479-2.4306-0.90633-3.2957-2.513-0.86513-1.6067-0.08239-3.2134 0.45316-4.4905 0.53556-1.2359-0.37077-1.9363-0.82394-2.4306-0.32958-0.49436-3.6665-4.0785-4.4493-4.8612-0.78274-0.82394-1.5243-1.2359-1.5243-2.8014s6.0971-8.9809 6.0971-8.9809 5.1496 0.98872 5.85 0.98872 2.1834-0.57676 3.5841-1.0299 2.307-0.45316 2.307-0.45316 0.90633 0 2.307 0.45316 2.8838 1.0299 3.5841 1.0299 5.8499-0.98872 5.8499-0.98872zm-65.741-36.584v108h108v-108zm45.637 27.768h16.686l4.7363 5.3555s4.1612-1.1532 6.1387 0.82422 3.584 3.707 3.584 3.707l-1.2773 3.1328 1.6484 4.6543s-4.7377 18.045-5.3145 20.27c-1.1123 4.3669-1.8534 6.0548-4.9844 8.2383s-8.8163 6.015-9.7227 6.5918c-0.94753 0.57676-2.1009 1.5664-3.1309 1.5664-1.0299 0-2.2245-0.98965-3.1309-1.5664-0.94753-0.57676-6.5917-4.3672-9.7227-6.5918s-3.8721-3.9126-4.9844-8.2383c-0.53556-2.2246-5.3145-20.27-5.3145-20.27l1.6055-4.6133-1.2754-3.1309s1.6065-1.7315 3.584-3.709c1.9774-1.9774 6.1367-0.82422 6.1367-0.82422z" fill="#fff"/>
		<path d="m67.059 33.165-4.7376-5.3968h-16.685l-4.7376 5.3968s-4.1609-1.1535-6.1383 0.82394c0 0 5.5616-0.49436 7.4566 2.5954 0 0 5.1496 0.98872 5.8499 0.98872s2.1834-0.57676 3.5841-1.0299 2.307-0.45316 2.307-0.45316 0.90633 0 2.307 0.45316 2.8838 1.0299 3.5841 1.0299 5.8499-0.98872 5.8499-0.98872c1.8951-3.0898 7.4566-2.5954 7.4566-2.5954-1.9363-1.9774-6.0971-0.82394-6.0971-0.82394" fill="#ff2000"/>
	</g>
</svg>
