<?xml version="1.0" encoding="UTF-8" standalone="no"?>
<svg
   xmlns:dc="http://purl.org/dc/elements/1.1/"
   xmlns:cc="http://creativecommons.org/ns#"
   xmlns:rdf="http://www.w3.org/1999/02/22-rdf-syntax-ns#"
   xmlns:svg="http://www.w3.org/2000/svg"
   xmlns="http://www.w3.org/2000/svg"
   xmlns:sodipodi="http://sodipodi.sourceforge.net/DTD/sodipodi-0.dtd"
   xmlns:inkscape="http://www.inkscape.org/namespaces/inkscape"
   style="fill:none"
   id="svg6107"
   version="1.1"
   viewBox="0 0 108 108"
   height="108"
   width="108"
   sodipodi:docname="com.topjohnwu.magisk.svg"
   inkscape:version="0.92.5 (2060ec1f9f, 2020-04-08)">
  <sodipodi:namedview
     pagecolor="#ffffff"
     bordercolor="#666666"
     borderopacity="1"
     objecttolerance="10"
     gridtolerance="10"
     guidetolerance="10"
     inkscape:pageopacity="0"
     inkscape:pageshadow="2"
     inkscape:window-width="640"
     inkscape:window-height="480"
     id="namedview24"
     showgrid="false"
     inkscape:zoom="10.898148"
     inkscape:cx="36.107052"
     inkscape:cy="54"
     inkscape:current-layer="svg6107" />
  <metadata
     id="metadata6113">
    <rdf:RDF>
      <cc:Work
         rdf:about="">
        <dc:format>image/svg+xml</dc:format>
        <dc:type
           rdf:resource="http://purl.org/dc/dcmitype/StillImage" />
        <dc:title />
      </cc:Work>
    </rdf:RDF>
  </metadata>
  <defs
     id="defs6111" />
  <g
     transform="translate(0,-972)"
     id="background"
     inkscape:label="Background">
    <rect
       y="972"
       x="0"
       height="108"
       width="108"
       id="rect6658"
       style="opacity:1;fill:#00af9c;fill-opacity:1;fill-rule:nonzero;stroke:none;stroke-width:0.02408122;stroke-linecap:round;stroke-linejoin:round;stroke-miterlimit:4;stroke-dasharray:none;stroke-opacity:0.50196078" />
  </g>
  <g
     transform="translate(0,-972)"
     id="foreground"
     inkscape:label="Foreground">
    <path
       inkscape:connector-curvature="0"
       id="path6077"
       d="m 51.324203,1035.6566 c 0,0 0.362217,2.157 -0.07878,6.9129 -0.553414,5.9626 2.271302,15.4341 2.271302,15.4341 0,0 3.85276,-9.4907 3.180208,-15.6215 -0.552453,-5.0393 0.249805,-6.8014 0.07879,-6.5651 -2.960188,4.0901 -5.452471,-0.1604 -5.452471,-0.1604 z"
       style="fill:#303030;stroke-width:0.09607879" />
    <path
       inkscape:connector-curvature="0"
       id="path6079"
       d="m 58.541642,1040.7747 c 0.481355,3.725 -0.05477,5.7657 -0.750375,9.753 -0.351649,2.0167 7.184772,-6.0626 10.074822,-10.879 0.482315,-0.8033 -2.764187,3.1321 -5.97514,0.3218 -2.227107,-1.9485 -2.6095,-2.5403 -4.34084,-4.2332 -0.584159,-0.5707 0.647571,2.3751 0.991533,5.0374 z"
       style="fill:#ffffff;stroke-width:0.09607879" />
    <path
       inkscape:connector-curvature="0"
       id="path6081"
       d="m 50.316337,1036.0323 c -1.73134,1.6929 -2.113734,2.2847 -4.34084,4.2332 -3.210953,2.8103 -6.457455,-1.1251 -5.97514,-0.3219 2.89005,4.8165 10.42647,12.8957 10.074822,10.879 -0.69561,-3.9872 -1.23173,-6.028 -0.750375,-9.7529 0.343962,-2.6624 1.575692,-5.6082 0.991533,-5.0374 z"
       style="fill:#ffffff;stroke-width:0.09607879" />
    <path
       inkscape:connector-curvature="0"
       id="path6083"
       d="m 57.729776,1029.3817 c 3.523209,1.0155 4.88945,5.9088 8.446287,6.5141 0.735002,0.1249 1.563202,0.3459 2.527833,0.2998 1.803399,-0.087 4.084309,-1.1059 7.130967,-5.4285 0.901219,-1.2778 -2.235753,8.2301 -10.100763,8.3454 -5.760884,0.085 -6.434396,-5.6398 -10.273705,-5.8137 -1.386417,-0.062 -1.473848,-2.7065 -1.473848,-2.7065 0,0 1.654476,-1.8121 3.743229,-1.2106 z"
       style="fill:#303030;stroke-width:0.09607879" />
    <path
       inkscape:connector-curvature="0"
       id="path6085"
       d="m 50.270219,1029.3548 c -3.523209,1.0155 -4.88945,5.9088 -8.446286,6.5141 -0.735003,0.1249 -1.563202,0.3459 -2.527833,0.2998 -1.803399,-0.086 -4.08431,-1.1059 -7.130968,-5.4285 -0.901219,-1.2778 2.235753,8.2301 10.100763,8.3454 5.760884,0.085 6.434397,-5.6398 10.273705,-5.8137 1.386417,-0.062 1.473849,-2.7065 1.473849,-2.7065 0,0 -1.654477,-1.8121 -3.74323,-1.2106 z"
       style="fill:#303030;stroke-width:0.09607879" />
    <path
       inkscape:connector-curvature="0"
       id="path6087"
       d="m 63.445503,1029.3067 c 3.542425,2.6845 2.48652,5.6399 4.47439,4.7963 6.696691,-2.8391 5.525491,-17.4104 4.983607,-15.6484 -3.052424,9.9355 -9.702997,10.4918 -16.103766,5.9214 -1.249986,-0.8926 4.648291,3.4175 6.644809,4.9298 z"
       style="fill:#fbbcc9;stroke-width:0.09607879" />
    <path
       inkscape:connector-curvature="0"
       id="path6089"
       d="m 51.17336,1024.376 c -6.400769,4.5695 -13.051343,4.0141 -16.103766,-5.9214 -0.540924,-1.762 -1.712124,12.8083 4.983606,15.6484 1.988831,0.8436 0.931965,-2.1118 4.47439,-4.7963 1.996517,-1.5132 7.894794,-5.8223 6.644809,-4.9298 z"
       style="fill:#fbbcc9;stroke-width:0.09607879" />
    <path
       inkscape:connector-curvature="0"
       id="path6091"
       d="m 64.115173,1025.7432 c 7.727617,-0.319 9.155348,-12.987 8.547169,-11.4411 -2.727677,6.9388 -13.053265,4.3284 -14.039994,8.7086 -0.194079,0.8589 1.748634,2.8881 5.492825,2.7334 z"
       style="fill:#3747a9;stroke-width:0.09607879" />
    <path
       inkscape:connector-curvature="0"
       id="path6093"
       d="m 49.351706,1023.0097 c -0.986729,-4.3802 -11.313278,-1.7688 -14.039994,-8.7085 -0.607218,-1.546 0.819552,11.122 8.547169,11.441 3.744191,0.1547 5.686904,-1.8735 5.492825,-2.7334 z"
       style="fill:#3747a9;stroke-width:0.09607879" />
    <path
       inkscape:connector-curvature="0"
       id="path6095"
       d="m 58.140033,1021.0805 c 0,0 4.201525,-2.2579 7.797754,-3.2417 3.361797,-0.9205 5.881944,-3.1831 6.162494,-5.5736 0.209452,-1.7803 -2.598931,-5.145 -2.598931,-5.145 0,0 -1.970576,5.4669 -4.555096,8.1994 -2.813187,2.9746 -1.74383,2.573 -6.806221,5.7609 z"
       style="fill:#ff6e40;stroke-width:0.09607879" />
    <path
       inkscape:connector-curvature="0"
       id="path6097"
       d="m 43.0278,1015.3196 c -2.58452,-2.7325 -4.555096,-8.1994 -4.555096,-8.1994 0,0 -2.808383,3.3637 -2.598931,5.145 0.281511,2.3905 2.801658,4.6531 6.162494,5.5736 3.596229,0.9848 7.797754,3.2417 7.797754,3.2417 -5.062391,-3.1879 -3.992073,-2.7863 -6.806221,-5.7609 z"
       style="fill:#ff6e40;stroke-width:0.09607879" />
    <path
       inkscape:connector-curvature="0"
       id="path6099"
       d="m 57.630815,1020.7327 c 4.550292,-3.7327 6.968595,-8.6029 10.905904,-13.9334 0.742689,-1.005 -3.322405,-3.43 -4.929803,-3.5904 -1.607398,-0.1605 -2.956345,5.7445 -3.108149,9.2178 -0.138354,3.1715 -3.479013,8.8085 -2.866991,8.306 z"
       style="fill:#ffffff;stroke-width:0.09607879" />
    <path
       inkscape:connector-curvature="0"
       id="path6101"
       d="m 47.475287,1012.4257 c -0.151805,-3.4733 -1.500751,-9.3783 -3.108149,-9.2178 -1.607398,0.1604 -5.672492,2.5855 -4.929803,3.5905 3.937309,5.3304 6.354652,10.2006 10.905904,13.9333 0.612022,0.5015 -2.728638,-5.1354 -2.866991,-8.306 z"
       style="fill:#ffffff;stroke-width:0.09607879" />
    <path
       inkscape:connector-curvature="0"
       id="path6103"
       d="m 58.086229,1008.6748 c 0.320903,-2.5711 1.476731,-4.4504 3.777818,-6.029 -2.033988,-0.6802 -3.724975,-1.2327 -4.6089,-0.5092 -0.883925,0.7235 -3.285895,3.1418 -2.964031,7.0791 0.320903,3.9373 0.01729,18.6479 0.713866,18.3751 0.374707,-10.0758 3.563562,-12.9707 3.081247,-18.917 z"
       style="fill:#ffb327;stroke-width:0.09607879" />
    <path
       inkscape:connector-curvature="0"
       id="path6105"
       d="m 52.968111,1027.5917 c 0.695611,0.2719 0.392002,-14.4377 0.713866,-18.375 0.320903,-3.9373 -2.080106,-6.3566 -2.964031,-7.0791 -0.883925,-0.7235 -2.574911,-0.171 -4.608899,0.5092 2.301087,1.5786 3.456914,3.4569 3.777818,6.0289 -0.482316,5.9464 2.706539,8.8412 3.081246,18.917 z"
       style="fill:#ffb327;stroke-width:0.09607879" />
  </g>
</svg>
