<?xml version="1.0" encoding="UTF-8" standalone="no"?>
<svg
   xmlns:dc="http://purl.org/dc/elements/1.1/"
   xmlns:cc="http://creativecommons.org/ns#"
   xmlns:rdf="http://www.w3.org/1999/02/22-rdf-syntax-ns#"
   xmlns:svg="http://www.w3.org/2000/svg"
   xmlns="http://www.w3.org/2000/svg"
   xmlns:sodipodi="http://sodipodi.sourceforge.net/DTD/sodipodi-0.dtd"
   xmlns:inkscape="http://www.inkscape.org/namespaces/inkscape"
   width="512"
   height="512"
   viewBox="0 0 135.46667 135.46667"
   version="1.1"
   id="svg8"
   inkscape:version="1.0.2 (394de47547, 2021-03-26)"
   sodipodi:docname="com.nintendo.znca.svg"
   inkscape:export-filename="/home/reese/Pictures/icons/png/nintendo_switch_online.png"
   inkscape:export-xdpi="28.659931"
   inkscape:export-ydpi="28.659931">
  <defs
     id="defs2" />
  <sodipodi:namedview
     id="base"
     pagecolor="#ffffff"
     bordercolor="#666666"
     borderopacity="1.0"
     inkscape:pageopacity="0.0"
     inkscape:pageshadow="2"
     inkscape:zoom="1.0437173"
     inkscape:cx="243.86417"
     inkscape:cy="286.53039"
     inkscape:document-units="mm"
     inkscape:current-layer="layer1"
     showgrid="false"
     fit-margin-top="0"
     fit-margin-left="0"
     fit-margin-right="0"
     fit-margin-bottom="0"
     inkscape:window-width="1892"
     inkscape:window-height="1000"
     inkscape:window-x="14"
     inkscape:window-y="66"
     inkscape:window-maximized="1"
     inkscape:snap-global="true"
     inkscape:snap-bbox="true"
     inkscape:bbox-paths="true"
     inkscape:bbox-nodes="true"
     inkscape:snap-bbox-edge-midpoints="true"
     inkscape:snap-bbox-midpoints="true"
     inkscape:snap-nodes="true"
     inkscape:snap-text-baseline="true"
     inkscape:snap-page="true"
     inkscape:snap-to-guides="true"
     inkscape:document-rotation="0"
     units="px" />
  <metadata
     id="metadata5">
    <rdf:RDF>
      <cc:Work
         rdf:about="">
        <dc:format>image/svg+xml</dc:format>
        <dc:type
           rdf:resource="http://purl.org/dc/dcmitype/StillImage" />
        <dc:title></dc:title>
      </cc:Work>
    </rdf:RDF>
  </metadata>
  <g
     inkscape:label="Layer 1"
     inkscape:groupmode="layer"
     id="layer1"
     transform="translate(449.41339,493.41072)">
    <rect
       style="fill:#e1131f;fill-opacity:1;stroke-width:0.0264583;stroke-linecap:round;stroke-linejoin:round"
       id="rect8513"
       width="135.43739"
       height="135.43739"
       x="-449.39142"
       y="-493.38876"
       ry="0.79374999" />
    <path
       id="path1106"
       style="display:inline;fill:#ffffff;fill-opacity:1;stroke-width:0.24388"
       d="m -364.70232,-465.9281 c -2.90141,-0.003 -5.79598,0.0103 -8.70425,0.0103 -1.60961,0 -1.60954,3e-5 -1.60954,1.56087 v 38.65487 39.14273 c 0,1.24378 0.0732,1.31693 1.29253,1.31693 3.80453,0 7.60902,0.0244 11.41355,-0.0245 1.36572,-0.0243 2.75589,-0.0975 4.09723,-0.36578 10.04785,-2.02421 16.80331,-10.2917 16.80331,-20.53465 0.0244,-12.95001 0,-25.9 0,-38.85001 0,-0.97552 -0.0488,-1.97544 -0.17076,-2.95096 -1.26817,-10.1454 -9.99907,-17.9008 -20.21763,-17.94958 -0.96942,-0.006 -1.9373,-0.009 -2.90444,-0.0103 z m 5.66026,36.29964 c 4.48738,0 8.0481,3.56062 8.0481,8.09679 -0.0244,4.51177 -3.6095,8.0968 -8.09689,8.0968 -4.48738,-0.0244 -8.048,-3.63382 -8.02362,-8.16998 0.0244,-4.463 3.60941,-8.02361 8.07241,-8.02361 z m -50.19042,-12.07209 c 0,-4.21911 3.38993,-7.65782 7.56028,-7.65782 4.19472,0 7.60904,3.46309 7.58465,7.65782 -0.0244,4.19474 -3.38993,7.56027 -7.53587,7.60905 -4.17035,0.0488 -7.60906,-3.38993 -7.60906,-7.60905 z m 14.38749,-24.2434 c -2.09861,10e-4 -4.19635,0.0139 -6.29067,0.0505 -7.85293,0.14633 -13.8036,3.68254 -17.852,10.38924 -2.04859,3.38993 -2.78021,7.14569 -2.78021,11.09654 v 37.02094 c 0,0.95113 0.0488,1.92664 0.0976,2.87778 0.65847,10.63315 9.38933,19.04701 20.07127,19.2421 5.6824,0.0975 11.38913,0.0244 17.07152,0.0244 1.58522,0 1.58525,0 1.58525,-1.60955 v -38.65497 -38.94758 c 0,-1.4389 -0.0244,-1.46329 -1.4145,-1.46329 -3.49052,0 -6.99057,-0.0286 -10.48824,-0.0262 z m -7.70516,6.63526 h 12.99879 v 67.40837 c -0.31704,0 -0.63408,0.0488 -0.92673,0.0488 -3.48749,0 -6.97505,0.0244 -10.46252,0 -7.0969,-0.0488 -12.68166,-4.65813 -14.02301,-11.63309 -0.17071,-0.95113 -0.24392,-1.97544 -0.24392,-2.95095 0,-12.77931 -0.0244,-25.58297 0,-38.36226 0,-7.19446 4.46304,-12.80366 11.24289,-14.29132 0.46337,-0.0975 0.95113,-0.21954 1.4145,-0.21954 z"
       inkscape:label="joycons" />
  </g>
</svg>
