<?xml version="1.0" encoding="UTF-8" standalone="no"?>
<svg
   xmlns:dc="http://purl.org/dc/elements/1.1/"
   xmlns:cc="http://creativecommons.org/ns#"
   xmlns:rdf="http://www.w3.org/1999/02/22-rdf-syntax-ns#"
   xmlns:svg="http://www.w3.org/2000/svg"
   xmlns="http://www.w3.org/2000/svg"
   xmlns:xlink="http://www.w3.org/1999/xlink"
   xmlns:sodipodi="http://sodipodi.sourceforge.net/DTD/sodipodi-0.dtd"
   xmlns:inkscape="http://www.inkscape.org/namespaces/inkscape"
   width="512"
   height="512"
   viewBox="0 0 135.46667 135.46667"
   version="1.1"
   id="svg8"
   inkscape:version="0.92.5 (2060ec1f9f, 2020-04-08)"
   sodipodi:docname="com.seafile.seadroid2.svg"
   inkscape:export-filename="/home/reese/Pictures/icons/png/nintendo_switch_online.png"
   inkscape:export-xdpi="28.659931"
   inkscape:export-ydpi="28.659931">
  <defs
     id="defs2">
    <linearGradient
       inkscape:collect="always"
       id="linearGradient1582">
      <stop
         style="stop-color:#ff9e2e;stop-opacity:1"
         offset="0"
         id="stop1578" />
      <stop
         style="stop-color:#fdd864;stop-opacity:1"
         offset="1"
         id="stop1580" />
    </linearGradient>
    <linearGradient
       inkscape:collect="always"
       xlink:href="#linearGradient1582"
       id="linearGradient1584"
       x1="67.718689"
       y1="219.82748"
       x2="67.718689"
       y2="-84.390152"
       gradientUnits="userSpaceOnUse"
       gradientTransform="scale(1.0002161)" />
    <clipPath
       clipPathUnits="userSpaceOnUse"
       id="clipPath1712">
      <path
         d="M 0,807 H 712 V 0 H 0 Z"
         id="path1710" />
    </clipPath>
    <mask
       maskUnits="userSpaceOnUse"
       x="0"
       y="0"
       width="1"
       height="1"
       id="mask1726">
      <g
         id="g1742">
        <g
           clip-path="url(#clipPath1720)"
           id="g1740">
          <path
             d="m 163.75,548.25 h 384.5 v -384.5 h -384.5 z"
             style="fill:#000000;fill-opacity:1;fill-rule:nonzero;stroke:none"
             id="path1728" />
          <g
             id="g1738">
            <g
               id="g1730" />
            <g
               id="g1736">
              <g
                 clip-path="url(#clipPath1724)"
                 id="g1734">
                <path
                   d="M 99.917,612.083 H 612.586 V 99.414 H 99.917 Z"
                   style="fill:#ffffff;fill-opacity:1;fill-rule:nonzero;stroke:none"
                   id="path1732" />
              </g>
            </g>
          </g>
        </g>
      </g>
    </mask>
    <clipPath
       clipPathUnits="userSpaceOnUse"
       id="clipPath1720">
      <path
         d="m 163.75,548.25 h 384.5 v -384.5 h -384.5 z"
         id="path1718" />
    </clipPath>
    <clipPath
       clipPathUnits="userSpaceOnUse"
       id="clipPath1724">
      <path
         d="m 163.75,548.25 h 384.5 v -384.5 h -384.5 z"
         id="path1722" />
    </clipPath>
    <clipPath
       clipPathUnits="userSpaceOnUse"
       id="clipPath1750">
      <path
         d="m 163.75,548.25 h 384.5 v -384.5 h -384.5 z"
         id="path1748" />
    </clipPath>
    <clipPath
       clipPathUnits="userSpaceOnUse"
       id="clipPath1754">
      <path
         d="M 164,548 H 548 V 164 H 164 Z"
         id="path1752" />
    </clipPath>
    <clipPath
       clipPathUnits="userSpaceOnUse"
       id="clipPath1758">
      <path
         d="M 164.066,547.968 H 547.999 V 163.956 H 164.066 Z"
         id="path1756" />
    </clipPath>
    <clipPath
       clipPathUnits="userSpaceOnUse"
       id="clipPath1762">
      <path
         d="M 164.02,547.93 H 547.835 V 164.176 H 164.02 Z"
         id="path1760" />
    </clipPath>
    <clipPath
       clipPathUnits="userSpaceOnUse"
       id="clipPath1766">
      <path
         d="m 299.75,548.25 h 0.5 v -384.5 h -0.5 z"
         id="path1764" />
    </clipPath>
    <clipPath
       clipPathUnits="userSpaceOnUse"
       id="clipPath1770">
      <path
         d="m 355.75,548.25 h 0.5 v -384.5 h -0.5 z"
         id="path1768" />
    </clipPath>
    <clipPath
       clipPathUnits="userSpaceOnUse"
       id="clipPath1774">
      <path
         d="m 411.83,548.25 h 0.5 v -384.5 h -0.5 z"
         id="path1772" />
    </clipPath>
    <clipPath
       clipPathUnits="userSpaceOnUse"
       id="clipPath1778">
      <path
         d="m 163.9,412.1 h 383.933 v -0.2 H 163.9 Z"
         id="path1776" />
    </clipPath>
    <clipPath
       clipPathUnits="userSpaceOnUse"
       id="clipPath1782">
      <path
         d="m 163.9,356.1 h 383.933 v -0.2 H 163.9 Z"
         id="path1780" />
    </clipPath>
    <clipPath
       clipPathUnits="userSpaceOnUse"
       id="clipPath1786">
      <path
         d="m 163.75,300.25 h 384.233 v -0.5 H 163.75 Z"
         id="path1784" />
    </clipPath>
  </defs>
  <sodipodi:namedview
     id="base"
     pagecolor="#ffffff"
     bordercolor="#666666"
     borderopacity="1.0"
     inkscape:pageopacity="0.0"
     inkscape:pageshadow="2"
     inkscape:zoom="2.8636665"
     inkscape:cx="232.42897"
     inkscape:cy="245.27534"
     inkscape:document-units="mm"
     inkscape:current-layer="layer1"
     showgrid="false"
     fit-margin-top="0"
     fit-margin-left="0"
     fit-margin-right="0"
     fit-margin-bottom="0"
     inkscape:window-width="1892"
     inkscape:window-height="1000"
     inkscape:window-x="14"
     inkscape:window-y="66"
     inkscape:window-maximized="1"
     inkscape:snap-global="true"
     inkscape:snap-bbox="false"
     inkscape:bbox-paths="true"
     inkscape:bbox-nodes="true"
     inkscape:snap-bbox-edge-midpoints="true"
     inkscape:snap-bbox-midpoints="true"
     inkscape:snap-nodes="true"
     inkscape:snap-text-baseline="true"
     inkscape:snap-page="true"
     inkscape:snap-to-guides="true"
     inkscape:document-rotation="0"
     units="px" />
  <metadata
     id="metadata5">
    <rdf:RDF>
      <cc:Work
         rdf:about="">
        <dc:format>image/svg+xml</dc:format>
        <dc:type
           rdf:resource="http://purl.org/dc/dcmitype/StillImage" />
        <dc:title />
      </cc:Work>
    </rdf:RDF>
  </metadata>
  <g
     inkscape:groupmode="layer"
     id="layer6"
     inkscape:label="Background">
    <rect
       style="fill:url(#linearGradient1584);fill-opacity:1;stroke:none;stroke-width:0;stroke-linecap:round;stroke-linejoin:round;stroke-miterlimit:4;stroke-dasharray:none"
       id="rect8513"
       width="135.46666"
       height="135.46666"
       x="0"
       y="0"
       ry="0" />
  </g>
  <g
     inkscape:label="Foreground"
     inkscape:groupmode="layer"
     id="layer1"
     transform="translate(449.41339,493.41072)"
     style="display:inline">
    <path
       id="path849"
       style="display:inline;fill:#ffffff;fill-opacity:1;stroke:none;stroke-width:0.13923372px;stroke-linecap:butt;stroke-linejoin:miter;stroke-opacity:1"
       d="m -392.9544,-445.49746 c -2.34618,0.0185 -4.71825,0.83894 -6.41103,2.49345 -3.18639,3.11435 -2.24297,7.58147 -2.24297,7.58147 0,0 -3.91393,-1.66593 -6.71262,0.44408 -2.7987,2.11001 -2.25604,5.77334 -2.25604,5.77334 0,0 -2.0809,-1.44144 -3.09524,0.41416 -1.01434,1.85561 1.66537,2.45156 1.66537,2.45156 h 9.34719 c 0.15555,-0.39872 0.33822,-0.78711 0.54879,-1.16065 1.36402,-2.58814 4.0012,-4.4277 6.88312,-4.88599 2.73015,-0.51511 5.53478,0.40804 7.80338,1.91339 0.21935,0.25667 0.27497,0.079 0.34945,-0.14576 0.93512,-2.03858 2.06727,-4.05296 3.59861,-5.70317 v -0.50446 c 0,0 -0.51613,-4.28909 -3.81263,-6.87007 -1.54523,-1.20983 -3.59521,-1.81767 -5.66538,-1.80135 z m 14.04564,9.05198 c -5.23966,1.88591 -7.67557,9.81149 -7.67557,9.81149 0,0 -3.49326,-3.27489 -7.35914,-3.05822 -4.08472,0.22894 -6.64117,2.75786 -7.67768,5.95647 -0.97614,3.01229 0.64882,6.34949 0.64882,6.34949 0,0 -4.31032,0.71634 -5.0758,4.81283 -0.64616,3.55365 1.77236,6.71643 5.45217,6.71643 4.28377,0 5.45841,-1.45544 5.45841,-1.45544 l 13.65857,-13.6349 c 0,0 2.82595,-3.09602 7.88088,-1.71242 5.05494,1.3836 7.15437,5.68104 6.54402,8.77203 -0.61035,3.091 -4.1917,4.55742 -6.32048,2.22177 -2.12878,-2.33564 -0.35409,-5.81259 1.80841,-6.15732 -2.66213,-1.10229 -7.09036,1.50337 -7.11318,5.72793 -0.0229,4.22454 2.86248,6.23835 5.63681,6.23835 h 13.56094 c 0,0 6.84804,-0.26036 6.84804,-7.7237 0,-7.46334 -7.36489,-7.62851 -7.36489,-7.62851 l -2.88678,2.90623 c 0,0 3.33475,-9.38755 -1.47639,-14.80876 -4.29792,-4.39756 -9.41531,-5.15157 -14.54716,-3.33375 z"
       inkscape:connector-curvature="0"
       inkscape:label="clouds" />
  </g>
</svg>
