<?xml version="1.0" encoding="UTF-8" standalone="no"?>
<svg
   xmlns:dc="http://purl.org/dc/elements/1.1/"
   xmlns:cc="http://creativecommons.org/ns#"
   xmlns:rdf="http://www.w3.org/1999/02/22-rdf-syntax-ns#"
   xmlns:svg="http://www.w3.org/2000/svg"
   xmlns="http://www.w3.org/2000/svg"
   xmlns:sodipodi="http://sodipodi.sourceforge.net/DTD/sodipodi-0.dtd"
   xmlns:inkscape="http://www.inkscape.org/namespaces/inkscape"
   width="512"
   height="512"
   viewBox="0 0 135.46667 135.46667"
   version="1.1"
   id="svg8"
   inkscape:version="0.92.5 (2060ec1f9f, 2020-04-08)"
   sodipodi:docname="com.nintendo.znca.svg"
   inkscape:export-filename="/home/reese/Pictures/icons/png/nintendo_switch_online.png"
   inkscape:export-xdpi="28.659931"
   inkscape:export-ydpi="28.659931">
  <defs
     id="defs2" />
  <sodipodi:namedview
     id="base"
     pagecolor="#ffffff"
     bordercolor="#666666"
     borderopacity="1.0"
     inkscape:pageopacity="0.0"
     inkscape:pageshadow="2"
     inkscape:zoom="2.6484014"
     inkscape:cx="132.26665"
     inkscape:cy="251.24944"
     inkscape:document-units="mm"
     inkscape:current-layer="layer1"
     showgrid="false"
     fit-margin-top="0"
     fit-margin-left="0"
     fit-margin-right="0"
     fit-margin-bottom="0"
     inkscape:window-width="1892"
     inkscape:window-height="1000"
     inkscape:window-x="14"
     inkscape:window-y="66"
     inkscape:window-maximized="1"
     inkscape:snap-global="true"
     inkscape:snap-bbox="false"
     inkscape:bbox-paths="true"
     inkscape:bbox-nodes="true"
     inkscape:snap-bbox-edge-midpoints="true"
     inkscape:snap-bbox-midpoints="true"
     inkscape:snap-nodes="true"
     inkscape:snap-text-baseline="true"
     inkscape:snap-page="true"
     inkscape:snap-to-guides="true"
     inkscape:document-rotation="0"
     units="px" />
  <metadata
     id="metadata5">
    <rdf:RDF>
      <cc:Work
         rdf:about="">
        <dc:format>image/svg+xml</dc:format>
        <dc:type
           rdf:resource="http://purl.org/dc/dcmitype/StillImage" />
        <dc:title />
      </cc:Work>
    </rdf:RDF>
  </metadata>
  <g
     inkscape:groupmode="layer"
     id="background"
     inkscape:label="Background">
    <rect
       style="fill:#e1131f;fill-opacity:1;stroke-width:0.0264583;stroke-linecap:round;stroke-linejoin:round"
       id="rect8513"
       width="135.43739"
       height="135.43739"
       x="0"
       y="0"
       ry="0.79374999" />
  </g>
  <g
     inkscape:label="Foreground"
     inkscape:groupmode="layer"
     id="foreground"
     transform="translate(449.41339,493.41072)"
     style="display:inline">
    <path
       id="path1106"
       style="display:inline;fill:#ffffff;fill-opacity:1;stroke-width:0.16264537"
       d="m -370.42206,-452.58571 c -1.93497,-0.003 -3.86538,0.007 -5.80492,0.007 -1.07346,0 -1.07341,10e-6 -1.07341,1.04095 v 25.77919 26.10455 c 0,0.82948 0.0489,0.87826 0.862,0.87826 2.53726,0 5.0745,0.0163 7.61177,-0.0164 0.91081,-0.0162 1.83792,-0.065 2.73246,-0.24394 6.70098,-1.34996 11.20625,-6.86361 11.20625,-13.6947 0.0163,-8.63644 0,-17.27287 0,-25.90933 0,-0.65058 -0.0326,-1.31742 -0.11389,-1.96801 -0.84575,-6.76603 -6.66844,-11.93816 -13.48326,-11.97069 -0.64652,-0.004 -1.29201,-0.006 -1.937,-0.007 z m 3.77488,24.20847 c 2.99266,0 5.36732,2.3746 5.36732,5.3998 -0.0163,3.00893 -2.40719,5.39981 -5.39987,5.39981 -2.99266,-0.0163 -5.36727,-2.42341 -5.35101,-5.44861 0.0163,-2.97641 2.40714,-5.351 5.38356,-5.351 z m -33.47234,-8.05096 c 0,-2.81375 2.26077,-5.10705 5.042,-5.10705 2.79749,0 5.07453,2.30956 5.05825,5.10705 -0.0163,2.79751 -2.26076,5.04199 -5.02571,5.07453 -2.78124,0.0326 -5.07454,-2.26077 -5.07454,-5.07453 z m 9.59512,-16.16808 c -1.39958,6.7e-4 -2.79858,0.009 -4.19529,0.0337 -5.23718,0.0976 -9.20572,2.45591 -11.90562,6.92864 -1.36622,2.26078 -1.85414,4.76552 -1.85414,7.40036 v 24.68951 c 0,0.63433 0.0326,1.2849 0.065,1.91922 0.43914,7.09131 6.26181,12.70257 13.38567,12.83268 3.78963,0.065 7.59549,0.0163 11.38511,0.0163 1.05719,0 1.05722,0 1.05722,-1.07342 v -25.77925 -25.97441 c 0,-0.95961 -0.0163,-0.97587 -0.94335,-0.97587 -2.32785,0 -4.66205,-0.0191 -6.99468,-0.0175 z m -5.13863,4.42509 h 8.66899 v 44.9551 c -0.21144,0 -0.42289,0.0326 -0.61804,0.0326 -2.32584,0 -4.65172,0.0163 -6.97753,0 -4.73298,-0.0326 -8.45749,-3.10654 -9.35205,-7.75819 -0.11385,-0.63431 -0.16267,-1.31743 -0.16267,-1.96801 0,-8.5226 -0.0163,-17.06145 0,-25.58404 0,-4.79804 2.97643,-8.53885 7.49795,-9.53098 0.30903,-0.065 0.63433,-0.14641 0.94335,-0.14641 z"
       inkscape:label="joycons"
       inkscape:connector-curvature="0" />
  </g>
</svg>
