<?xml version="1.0" encoding="UTF-8" standalone="no"?>
<!-- Generator: Adobe Illustrator 15.1.0, SVG Export Plug-In . SVG Version: 6.00 Build 0)  -->

<svg
   xmlns:dc="http://purl.org/dc/elements/1.1/"
   xmlns:cc="http://creativecommons.org/ns#"
   xmlns:rdf="http://www.w3.org/1999/02/22-rdf-syntax-ns#"
   xmlns:svg="http://www.w3.org/2000/svg"
   xmlns="http://www.w3.org/2000/svg"
   xmlns:sodipodi="http://sodipodi.sourceforge.net/DTD/sodipodi-0.dtd"
   xmlns:inkscape="http://www.inkscape.org/namespaces/inkscape"
   version="1.0"
   id="Layer_1"
   x="0px"
   y="0px"
   width="108"
   height="108"
   viewBox="0 0 108 108"
   enable-background="new 0 0 556.159 100"
   xml:space="preserve"
   sodipodi:docname="com.usbank.mobilebanking.svg"
   inkscape:version="0.92.5 (2060ec1f9f, 2020-04-08)"><metadata
   id="metadata27"><rdf:RDF><cc:Work
       rdf:about=""><dc:format>image/svg+xml</dc:format><dc:type
         rdf:resource="http://purl.org/dc/dcmitype/StillImage" /><dc:title></dc:title></cc:Work></rdf:RDF></metadata><defs
   id="defs25" /><sodipodi:namedview
   pagecolor="#ffffff"
   bordercolor="#666666"
   borderopacity="1"
   objecttolerance="10"
   gridtolerance="10"
   guidetolerance="10"
   inkscape:pageopacity="0"
   inkscape:pageshadow="2"
   inkscape:window-width="640"
   inkscape:window-height="480"
   id="namedview23"
   showgrid="false"
   inkscape:zoom="11.644152"
   inkscape:cx="86.749246"
   inkscape:cy="58.484659"
   inkscape:current-layer="layer2" />

<g
   inkscape:groupmode="layer"
   id="background"
   inkscape:label="Background"><rect
     style="opacity:1;fill:#0c2074;fill-opacity:1;fill-rule:nonzero;stroke:none;stroke-width:0.93945372;stroke-linecap:round;stroke-linejoin:round;stroke-miterlimit:4;stroke-dasharray:none;stroke-opacity:1"
     id="rect879"
     width="108"
     height="108"
     x="0"
     y="7.1054274e-15" /></g><g
   inkscape:groupmode="layer"
   id="foreground"
   inkscape:label="Foreground"><path
     d="m 30.030699,39.207321 v 28.300203 l 23.969658,8.155552 23.968949,-8.155552 V 39.207321 Z m 35.353539,6.996372 c 4.297401,0 9.477266,1.193391 9.666471,6.295738 h -6.904524 c -0.03791,-0.653287 -0.381696,-1.152156 -0.880775,-1.497392 -0.461165,-0.383514 -1.076487,-0.576029 -1.688215,-0.576029 -1.077267,0 -2.304117,0.231819 -2.304117,1.535841 0,0.57673 0.461122,0.843563 0.882915,1.033862 1.266838,0.538087 4.143725,0.69156 6.676673,1.534417 2.532581,0.806402 4.75776,2.303485 4.75776,5.565911 0,5.523047 -5.294147,7.020581 -10.130002,7.020581 -4.681284,0 -9.823663,-1.878862 -9.93704,-7.020581 h 7.249853 c 0.03937,0.690472 0.346057,1.265356 0.922787,1.762978 0.38242,0.346329 1.113438,0.576741 2.032123,0.576741 0.998155,0 2.571126,-0.382017 2.571126,-1.535841 0,-1.150179 -0.65278,-1.49582 -4.183155,-2.109735 -5.792819,-0.9967 -8.132765,-2.837875 -8.132765,-6.251592 0,-5.026884 5.410803,-6.334899 9.400885,-6.334899 z m -32.117376,0.499131 h 7.59732 v 10.437595 c 0,2.303639 0.266434,3.912585 2.493516,3.912585 1.304751,0 3.030384,-0.65164 3.030384,-3.835686 V 46.703536 h 7.598035 v 19.913955 h -7.328886 v -2.531966 h -0.07548 c -1.418858,1.995952 -3.45384,3.031097 -6.485136,3.031097 -3.566466,0 -6.829755,-2.187123 -6.829755,-6.753571 z"
     id="polyline2"
     inkscape:connector-curvature="0"
     inkscape:label="logo"
     style="fill:#ffffff;fill-opacity:1;stroke-width:0.36455753" /></g></svg>
