<?xml version="1.0" encoding="UTF-8" standalone="no"?>
<svg
   xmlns:dc="http://purl.org/dc/elements/1.1/"
   xmlns:cc="http://creativecommons.org/ns#"
   xmlns:rdf="http://www.w3.org/1999/02/22-rdf-syntax-ns#"
   xmlns:svg="http://www.w3.org/2000/svg"
   xmlns="http://www.w3.org/2000/svg"
   version="1.1"
   id="svg2"
   xml:space="preserve"
   width="108"
   height="108"
   viewBox="0 0 108 108"><metadata
     id="metadata8"><rdf:RDF><cc:Work
         rdf:about=""><dc:format>image/svg+xml</dc:format><dc:type
           rdf:resource="http://purl.org/dc/dcmitype/StillImage" /><dc:title></dc:title></cc:Work></rdf:RDF></metadata><defs
     id="defs6" /><rect
     y="0"
     x="0"
     height="108"
     width="108"
     id="rect953"
     style="opacity:1;fill:#ff7c00;fill-opacity:1;fill-rule:nonzero;stroke:none;stroke-width:1.38970232;stroke-linecap:round;stroke-linejoin:round;stroke-miterlimit:4;stroke-dasharray:none;stroke-opacity:1" /><g
     id="layer4" /><g
     id="g2276"
     transform="matrix(0.13333333,0,0,-0.13333333,-0.43749998,109.28693)"><path
       style="fill:#ffffff;fill-opacity:1;fill-rule:nonzero;stroke:none;stroke-width:0.0603583"
       d="m 397.58016,592.2169 c -8.42182,0 -18.54308,-5.8245 -19.86733,-19.0671 -1.99485,-17.9566 12.36879,-27.1372 17.1576,-28.7307 3.10122,-0.8873 6.93945,-2.3845 12.53891,-2.3845 4.48461,0 10.1041,0.9602 17.3833,3.9781 -0.39835,-16.3571 -0.39863,-54.26251 -0.39863,-73.4142 0,-25.13921 2.39644,-65.03588 -8.37752,-86.9761 -9.97664,-19.95747 -20.98068,-29.3033 -35.23127,-29.3033 -1.13655,0 -2.29176,0.0591 -3.47056,0.17739 -17.95359,2.39139 -24.33691,19.14995 -17.95342,50.26951 6.3835,31.12677 11.56969,62.24114 -14.76524,85.38249 -10.06051,8.82438 -23.30298,14.64303 -38.91223,14.64303 -24.63041,0 -55.15298,-14.48605 -88.36816,-54.53979 l 35.51264,-43.08942 c 0,0 10.5105,15.65663 25.67309,15.65663 5.08942,0 10.70305,-1.76831 16.62,-6.48232 23.54154,-18.75331 7.18224,-57.05453 4.78722,-79.0002 -2.79097,-28.32798 4.39018,-51.07159 15.56253,-69.02515 14.36344,-23.14138 47.87802,-42.29345 83.78939,-49.0765 2.79218,-0.39959 5.58604,-0.79638 7.97985,-1.19596 l 3.98943,-213.4292713 27.13118,-0.007 3.59129,212.6383913 c 62.24151,4.78765 150.02069,65.83242 110.92057,167.97499 -17.90224,46.9527 -56.04893,116.91967 -56.25412,117.29992 h 0.39272 c 15.16204,3.99573 17.95639,23.54606 0.39818,33.91556 l 12.77198,11.9752 -18.35504,7.5748 6.78442,25.1394 -39.50455,-15.5605 c 0,0 -9.97152,20.7451 -25.13351,21.1495 -13.1702,0 -19.15136,-9.1802 -19.15136,-9.1802 0,0 -3.19316,9.5725 -12.37187,11.9688 -1.49142,0.4768 -3.14446,0.7184 -4.86949,0.7184 z m 68.22588,-39.4444 c 3.24728,0 6.30117,-1.9316 8.06361,-5.1608 2.39625,-4.388 1.20146,-9.9709 -3.19263,-11.9687 -1.05021,-0.5252 -2.18488,-0.7786 -3.32567,-0.7786 -3.1809,0 -6.37421,1.9374 -7.84088,5.1666 -2.39626,4.7864 -1.20113,9.977 2.78855,11.9688 1.15887,0.5251 2.34812,0.7727 3.50702,0.7727 z"
       id="path2274" /></g></svg>