<?xml version="1.0" encoding="UTF-8"?>
<svg fill="none" version="1.1" viewBox="0 0 108 108" xmlns="http://www.w3.org/2000/svg">
	<g display="none">
		<g display="inline" fill="none">
			<path d="m164.44 67.31v-4.8027c0-5.1933 4.21-9.4032 9.403-9.4032s9.403 4.2099 9.403 9.4032v4.6327" display="inline" stroke="#000" stroke-linejoin="round" stroke-width="7.5"/>
			<path d="m168.94 107.08a10.901 10.901 0 0 1-6.2291-12.225 10.901 10.901 0 0 1 10.663-8.6347 10.901 10.901 0 0 1 10.663 8.6347 10.901 10.901 0 0 1-6.2291 12.225" stroke="#010101" stroke-linejoin="round" stroke-width="8"/>
			<rect x="133.08" y="68.526" width="80.583" height="56.254" display="inline" fill="none" stroke="#010101" stroke-linecap="round" stroke-linejoin="round" stroke-width="10.2"/>
			<path d="m133.08 44.088c0-22.253 18.039-40.292 40.292-40.292s40.292 18.039 40.292 40.292" display="inline" stroke="#000" stroke-linecap="round" stroke-width="10.2"/>
			<path d="m151.95 9.9648-13.744-13.744" display="inline" fill="none" stroke="#000" stroke-linecap="round" stroke-width="10.2"/>
			<path d="m194.8 9.9648 13.744-13.744" display="inline" fill="none" stroke="#000" stroke-linecap="round" stroke-width="10.2"/>
			<ellipse cx="160.53" cy="31.164" rx="5.3208" ry="5.321" fill="#000"/>
			<ellipse cx="186.22" cy="31.164" rx="5.3208" ry="5.321" fill="#000"/>
			<path d="m133.08 44.088v8.7666h19.704" fill="none" stroke="#000" stroke-linecap="round" stroke-linejoin="round" stroke-width="10.2"/>
			<path d="m213.67 44.088v8.7666h-19.704" fill="none" stroke="#000" stroke-linecap="round" stroke-linejoin="round" stroke-width="10.2"/>
		</g>
	</g>
	<g id="background">
		<path d="m0 0h108v108h-108z" fill="#e8f5e9" stroke-linecap="round" stroke-width="59.723"/>
		<path d="m54.176 49.827c-2.7028 0-4.9246 2.2216-4.9246 4.9246v0.34366h-10.335a1.9095 1.9095 0 0 0-1.9091 1.9091v21.06a1.9095 1.9095 0 0 0 1.9091 1.9099h30.168a1.9095 1.9095 0 0 0 1.9091-1.9099v-21.06a1.9095 1.9095 0 0 0-1.9091-1.9091h-9.9844v-0.34366c0-2.7029-2.221-4.9246-4.9239-4.9246zm0 2.8078c1.1854 0 2.1161 0.9313 2.1161 2.1168v0.34366h-4.2329v-0.34366c0-1.1855 0.93144-2.1168 2.1168-2.1168zm-13.351 6.2795h26.349v17.241h-26.349zm13.175 3.218c-2.6252 0-4.9111 1.8508-5.4569 4.4186-0.49334 2.321 0.55012 4.685 2.5263 5.9066 0.35148 0.21726 0.79772 0.04362 0.9659-0.33415l0.60982-1.3688c0.16819-0.37777-0.01366-0.81368-0.32757-1.0807-0.70703-0.60144-1.0467-1.5487-0.84453-2.4999 0.25545-1.2018 1.2984-2.0466 2.527-2.0466 1.2286 0 2.2716 0.84481 2.527 2.0466 0.2022 0.95128-0.1375 1.8985-0.84453 2.4999-0.3139 0.26702-0.49576 0.70293-0.32757 1.0807l0.60982 1.3688c0.16819 0.37777 0.61443 0.55142 0.9659 0.33415 1.9762-1.2215 3.0196-3.5856 2.5263-5.9066-0.54581-2.5678-2.8317-4.4186-5.4569-4.4186z" color="#000000" fill="#00acff" stroke-linejoin="round" style="-inkscape-stroke:none"/>
	</g>
	<g id="foreground">
		<path d="m40.833 28.026a1.9093 1.9093 0 0 0-1.3498 0.55936 1.9093 1.9093 0 0 0 0 2.7003l3.5814 3.5814c-3.6999 3.121-6.0579 7.7865-6.0579 12.989v3.2816a1.9095 1.9095 0 0 0 1.9091 1.9091h7.3763a1.9093 1.9093 0 0 0 1.9099-1.9091 1.9093 1.9093 0 0 0-1.9099-1.9091h-5.4671v-1.3725c0-4.6923 2.4303-8.7934 6.104-11.127a1.9093 1.9093 0 0 0 0.13162-0.08409c2.013-1.245 4.3886-1.9647 6.939-1.9647 2.5522 0 4.9288 0.7211 6.9427 1.9676a1.9093 1.9093 0 0 0 0.12577 0.0797c3.6752 2.3329 6.1069 6.4348 6.1069 11.128v1.3725h-5.4679a1.9093 1.9093 0 0 0-1.9091 1.9091 1.9093 1.9093 0 0 0 1.9091 1.9091h7.377a1.9095 1.9095 0 0 0 1.9092-1.9091v-3.2816c0-5.2022-2.3587-9.8672-6.0587-12.988l3.5821-3.5821a1.9093 1.9093 0 0 0 0-2.7003 1.9093 1.9093 0 0 0-1.3505-0.55936 1.9093 1.9093 0 0 0-1.3498 0.55936l-4.1276 4.1276c-2.3116-1.1798-4.9234-1.8506-7.6892-1.8506-2.7658 0-5.3778 0.67016-7.6892 1.8499l-4.1269-4.1269a1.9093 1.9093 0 0 0-1.3505-0.55936zm8.3575 12.999a1.992 1.992 0 0 0-1.9925 1.9925 1.992 1.992 0 0 0 1.9925 1.9918 1.992 1.992 0 0 0 1.9918-1.9918 1.992 1.992 0 0 0-1.9918-1.9925zm9.6181 0a1.992 1.992 0 0 0-1.9918 1.9925 1.992 1.992 0 0 0 1.9918 1.9918 1.992 1.992 0 0 0 1.9925-1.9918 1.992 1.992 0 0 0-1.9925-1.9925z" color="#000000" fill="#2d5" stroke-linecap="round" style="-inkscape-stroke:none"/>
	</g>
</svg>
