<?xml version="1.0" encoding="UTF-8" standalone="no"?>
<svg
   xmlns:dc="http://purl.org/dc/elements/1.1/"
   xmlns:cc="http://creativecommons.org/ns#"
   xmlns:rdf="http://www.w3.org/1999/02/22-rdf-syntax-ns#"
   xmlns:svg="http://www.w3.org/2000/svg"
   xmlns="http://www.w3.org/2000/svg"
   xmlns:sodipodi="http://sodipodi.sourceforge.net/DTD/sodipodi-0.dtd"
   xmlns:inkscape="http://www.inkscape.org/namespaces/inkscape"
   viewBox="0 0 108 108"
   version="1.1"
   id="svg1162"
   sodipodi:docname="io.homeassistant.companion.android.svg"
   width="108"
   height="108"
   inkscape:version="0.92.5 (2060ec1f9f, 2020-04-08)">
  <metadata
     id="metadata1168">
    <rdf:RDF>
      <cc:Work
         rdf:about="">
        <dc:format>image/svg+xml</dc:format>
        <dc:type
           rdf:resource="http://purl.org/dc/dcmitype/StillImage" />
        <dc:title />
      </cc:Work>
    </rdf:RDF>
  </metadata>
  <defs
     id="defs1166" />
  <sodipodi:namedview
     pagecolor="#ffffff"
     bordercolor="#666666"
     borderopacity="1"
     objecttolerance="10"
     gridtolerance="10"
     guidetolerance="10"
     inkscape:pageopacity="0"
     inkscape:pageshadow="2"
     inkscape:window-width="640"
     inkscape:window-height="480"
     id="namedview1164"
     showgrid="false"
     inkscape:zoom="13.316235"
     inkscape:cx="58.177085"
     inkscape:cy="54.373303"
     inkscape:current-layer="foreground" />
  <g
     inkscape:groupmode="layer"
     id="background"
     inkscape:label="Background"
     style="display:inline">
    <path
       d="M 0,0 H 108 V 108 H 0 Z"
       id="path1156"
       inkscape:connector-curvature="0"
       style="fill:#41bdf5;stroke:none;stroke-width:0.21600001"
       clip-path="none" />
  </g>
  <g
     inkscape:groupmode="layer"
     id="foreground"
     inkscape:label="Foreground"
     style="display:inline">
    <path
       d="M 34.753625,72.187665 V 55.48114 H 30.409169 A 1.166714,1.166714 0 0 1 29.57723,53.49649 L 52.954764,29.7188 c 0.564669,-0.574293 1.487989,-0.582169 2.062408,-0.0175 l 0.015,0.015 12.201053,12.350195 v -2.2873 a 0.97232416,0.97232416 0 0 1 0.972325,-0.972324 h 4.051558 a 0.97232416,0.97232416 0 0 1 0.972449,0.972324 v 8.392891 l 5.196397,5.327655 a 1.166714,1.166714 0 0 1 -0.835316,1.981397 h -4.361084 v 16.706526 a 0.97232416,0.97232416 0 0 1 -0.972323,0.972324 H 35.72595 A 0.97232416,0.97232416 0 0 1 34.753625,72.187665 Z M 60.554717,51.778608 a 1.8787683,1.8787683 0 0 0 0.182515,-0.810812 c 0,-1.038579 -0.838814,-1.880518 -1.873767,-1.880518 -1.034829,0 -1.873768,0.841939 -1.873768,1.880518 0,1.038579 0.838939,1.880643 1.873893,1.880643 0.289271,0 0.563168,-0.06588 0.807811,-0.183388 l 2.689955,2.699705 v 2.61495 l -3.372881,3.385009 v -2.480189 a 1.8808934,1.8808934 0 0 0 1.249219,-1.773511 c 0,-1.038579 -0.838938,-1.880643 -1.873893,-1.880643 -1.034828,0 -1.873892,0.842064 -1.873892,1.880643 0,0.818813 0.52154,1.515366 1.249345,1.773511 v 3.733784 l -3.123113,3.134364 V 47.341019 l 2.56507,-2.574196 a 1.8608919,1.8608919 0 0 0 0.807813,0.183264 c 1.034952,0 1.873891,-0.841939 1.873891,-1.880642 0,-1.03858 -0.838939,-1.88052 -1.873891,-1.88052 -1.03483,0 -1.873768,0.84194 -1.873768,1.88052 0,0.290396 0.0655,0.565292 0.182513,0.810811 l -2.306175,2.31455 -2.306301,-2.31455 a 1.8787683,1.8787683 0 0 0 0.182514,-0.810811 c 0,-1.03858 -0.838814,-1.88052 -1.873768,-1.88052 -1.034829,0 -1.873768,0.84194 -1.873768,1.88052 0,1.038703 0.838939,1.880642 1.873892,1.880642 0.289272,0 0.563168,-0.06588 0.807812,-0.183264 l 2.564946,2.574196 v 13.146005 l -4.497093,-4.513345 v -3.608401 a 1.8808934,1.8808934 0 0 0 1.24922,-1.77351 c 0,-1.038706 -0.838939,-1.880644 -1.873893,-1.880644 -1.034829,0 -1.873892,0.841938 -1.873892,1.880644 0,0.818813 0.521538,1.515366 1.249345,1.77351 v 2.354804 L 44.122842,51.20969 v -3.483141 a 1.8808934,1.8808934 0 0 0 1.24922,-1.773511 c 0,-1.038578 -0.83894,-1.880643 -1.873894,-1.880643 -1.034828,0 -1.873894,0.842065 -1.873894,1.880643 0,0.818813 0.521542,1.515366 1.249346,1.773511 v 4.00243 l 3.86367,3.877546 h -2.221419 c -0.257269,-0.730431 -0.951322,-1.253721 -1.767259,-1.253721 -1.034831,0 -1.873895,0.84194 -1.873895,1.880519 0,1.038704 0.839064,1.880644 1.873895,1.880644 0.815937,0 1.510115,-0.523291 1.767259,-1.253846 h 3.47064 l 5.38041,5.399912 V 71.645 l -2.873093,-2.883472 v -3.608525 a 1.8808934,1.8808934 0 0 0 1.249219,-1.77351 c 0,-1.038579 -0.838939,-1.880517 -1.873894,-1.880517 -1.034827,0 -1.873892,0.841938 -1.873892,1.880517 0,0.818813 0.52154,1.515366 1.249345,1.77351 v 2.354805 l -4.180193,-4.19507 a 1.8787683,1.8787683 0 0 0 0.182639,-0.810812 c 0,-1.038579 -0.838813,-1.880518 -1.873893,-1.880518 -1.034829,0 -1.873769,0.841939 -1.873769,1.880518 0,1.038579 0.83894,1.880519 1.873895,1.880519 0.289271,0 0.563292,-0.06576 0.807811,-0.183263 l 4.180192,4.195194 H 46.139869 C 45.8826,67.663945 45.188547,67.140531 44.37261,67.140531 c -1.034829,0 -1.873893,0.842063 -1.873893,1.880644 0,1.038578 0.839064,1.880516 1.873893,1.880516 0.815937,0 1.50999,-0.523289 1.767259,-1.25372 h 3.470641 l 3.497766,3.510394 h 1.766634 l 3.622777,-3.635654 h 3.34563 c 0.257269,0.730307 0.951322,1.253597 1.767259,1.253597 1.034829,0 1.873893,-0.84194 1.873893,-1.880519 0,-1.038579 -0.839064,-1.880519 -1.873893,-1.880519 -0.815937,0 -1.50999,0.523291 -1.767259,1.253721 H 57.980272 L 54.616266,71.645 v -4.11919 l 4.006431,-4.020807 h 6.468742 c 0.257269,0.730431 0.951323,1.25372 1.767135,1.25372 1.034954,0 1.873892,-0.841938 1.873892,-1.880519 0,-1.038703 -0.838938,-1.880641 -1.873892,-1.880641 -0.815812,0 -1.509866,0.523289 -1.767135,1.253845 h -5.219773 l 3.738784,-3.752287 v -3.134239 l 2.689831,-2.699706 a 1.8608919,1.8608919 0 0 0 0.807937,0.183389 c 1.034829,0 1.873892,-0.842065 1.873892,-1.880644 0,-1.038578 -0.839063,-1.880519 -1.873892,-1.880519 -1.034829,0 -1.873893,0.841941 -1.873893,1.880519 0,0.290397 0.06563,0.565293 0.182639,0.810812 l -1.806514,1.813138 v -5.740063 a 1.8808934,1.8808934 0 0 0 1.249222,-1.77351 c 0,-1.038704 -0.838939,-1.880642 -1.873894,-1.880642 -1.034829,0 -1.873892,0.841938 -1.873892,1.880642 0,0.818812 0.521538,1.515365 1.249345,1.77351 v 5.739813 L 60.554592,51.778482 Z M 44.37261,69.773356 c -0.413906,0 -0.749557,-0.336775 -0.749557,-0.752181 0,-0.415408 0.335651,-0.752184 0.749557,-0.752184 0.414032,0 0.749558,0.336776 0.749558,0.752184 0,0.415406 -0.335526,0.752181 -0.749558,0.752181 z m 5.496669,-5.64168 c -0.414032,0 -0.749682,-0.336776 -0.749682,-0.752183 0,-0.415406 0.33565,-0.752181 0.749556,-0.752181 0.414033,0 0.749558,0.336775 0.749558,0.752181 0,0.415407 -0.335525,0.752183 -0.749558,0.752183 z m -6.495994,-0.877567 c -0.414032,0 -0.749558,-0.336775 -0.749558,-0.752183 0,-0.415406 0.335526,-0.752182 0.749558,-0.752182 0.413906,0 0.749557,0.336776 0.749557,0.752182 0,0.415408 -0.335651,0.752183 -0.749557,0.752183 z m -0.624673,-6.268478 c -0.413906,0 -0.749432,-0.336776 -0.749432,-0.752308 0,-0.415406 0.335526,-0.752183 0.749432,-0.752183 0.414031,0 0.749556,0.336777 0.749556,0.752183 0,0.415532 -0.335525,0.752308 -0.749556,0.752308 z m 15.615189,0.877567 c -0.413906,0 -0.749431,-0.336777 -0.749431,-0.752183 0,-0.415531 0.335525,-0.752307 0.749431,-0.752307 0.414032,0 0.749558,0.336776 0.749558,0.752307 0,0.415406 -0.335526,0.752183 -0.749558,0.752183 z m 8.494648,5.767064 c -0.413782,0 -0.749432,-0.336775 -0.749432,-0.752182 0,-0.415531 0.335526,-0.752307 0.749432,-0.752307 0.414031,0 0.749557,0.336776 0.749557,0.752307 0,0.415407 -0.335526,0.752182 -0.749557,0.752182 z m -3.247873,6.017709 c -0.414032,0 -0.749558,-0.336775 -0.749558,-0.752182 0,-0.415406 0.335526,-0.752183 0.749558,-0.752183 0.413906,0 0.749557,0.336777 0.749557,0.752183 0,0.415407 -0.335651,0.752182 -0.749557,0.752182 z m 3.497767,-17.927867 c -0.413906,0 -0.749557,-0.3369 -0.749557,-0.752308 0,-0.415406 0.335651,-0.752183 0.749557,-0.752183 0.413906,0 0.749557,0.336777 0.749557,0.752183 0,0.415408 -0.335651,0.752308 -0.749557,0.752308 z m -4.122439,-4.889499 c -0.413907,0 -0.749559,-0.336775 -0.749559,-0.752182 0,-0.415532 0.335652,-0.752307 0.749559,-0.752307 0.414031,0 0.749557,0.336775 0.749557,0.752307 0,0.415407 -0.335526,0.752182 -0.749557,0.752182 z m -4.99688,-3.008979 c -0.413908,0 -0.749433,-0.336651 -0.749433,-0.752181 0,-0.415407 0.335525,-0.752184 0.749433,-0.752184 0.414032,0 0.749556,0.336777 0.749556,0.752184 0,0.41553 -0.335524,0.752305 -0.749556,0.752305 z m -7.994985,0 c -0.413782,0 -0.749433,-0.336651 -0.749433,-0.752181 0,-0.415407 0.335526,-0.752184 0.749433,-0.752184 0.414031,0 0.749557,0.336777 0.749557,0.752184 0,0.41553 -0.335526,0.752305 -0.749557,0.752305 z m -6.495871,2.883596 c -0.413906,0 -0.749556,-0.336778 -0.749556,-0.752184 0,-0.415531 0.33565,-0.752307 0.749556,-0.752307 0.413908,0 0.749557,0.336776 0.749557,0.752307 0,0.415406 -0.335649,0.752184 -0.749557,0.752184 z m 4.746987,4.638727 c -0.413907,0 -0.749432,-0.336775 -0.749432,-0.752181 0,-0.415533 0.335525,-0.752308 0.749432,-0.752308 0.414031,0 0.749557,0.336775 0.749557,0.752308 0,0.415406 -0.335526,0.752181 -0.749557,0.752181 z m 10.61831,0.376155 c -0.413781,0 -0.749432,-0.3369 -0.749432,-0.752308 0,-0.415406 0.335526,-0.752183 0.749432,-0.752183 0.414031,0 0.749557,0.336777 0.749557,0.752183 0,0.415408 -0.335526,0.752308 -0.749557,0.752308 z"
       id="path1158"
       inkscape:connector-curvature="0"
       style="fill:#ffffff;stroke:none;stroke-width:0.12500954"
       inkscape:label="house" />
  </g>
</svg>
