<?xml version="1.0" encoding="UTF-8" standalone="no"?>
<svg
   width="108"
   height="108"
   viewBox="0 0 108 108"
   version="1.1"
   id="svg92"
   sodipodi:docname="xyz.ovine.icons.svg"
   inkscape:version="1.1.2 (1:1.1+202202050950+0a00cf5339)"
   style="fill:none"
   xmlns:inkscape="http://www.inkscape.org/namespaces/inkscape"
   xmlns:sodipodi="http://sodipodi.sourceforge.net/DTD/sodipodi-0.dtd"
   xmlns="http://www.w3.org/2000/svg"
   xmlns:svg="http://www.w3.org/2000/svg"
   xmlns:rdf="http://www.w3.org/1999/02/22-rdf-syntax-ns#"
   xmlns:cc="http://creativecommons.org/ns#"
   xmlns:dc="http://purl.org/dc/elements/1.1/">
  <metadata
     id="metadata96">
    <rdf:RDF>
      <cc:Work
         rdf:about="">
        <dc:format>image/svg+xml</dc:format>
        <dc:type
           rdf:resource="http://purl.org/dc/dcmitype/StillImage" />
        <dc:title />
      </cc:Work>
    </rdf:RDF>
  </metadata>
  <sodipodi:namedview
     pagecolor="#ffffff"
     bordercolor="#666666"
     borderopacity="1"
     objecttolerance="10"
     gridtolerance="10"
     guidetolerance="10"
     inkscape:pageopacity="0"
     inkscape:pageshadow="2"
     inkscape:window-width="640"
     inkscape:window-height="480"
     id="namedview94"
     showgrid="false"
     inkscape:zoom="8.7407408"
     inkscape:cx="46.449152"
     inkscape:cy="65.555084"
     inkscape:current-layer="background"
     fit-margin-top="0"
     fit-margin-left="0"
     fit-margin-right="0"
     fit-margin-bottom="0"
     inkscape:pagecheckerboard="1" />
  <defs
     id="defs90" />
  <g
     inkscape:groupmode="layer"
     id="background"
     inkscape:label="Background"
     transform="translate(-202,-202)">
    <rect
       style="opacity:1;fill:#dd7db2;fill-rule:nonzero;stroke:none;stroke-width:0;stroke-linecap:round;stroke-linejoin:round;stroke-miterlimit:4;stroke-dasharray:none"
       id="rect860"
       width="108"
       height="108"
       x="202"
       y="202"
       clip-path="none" />
  </g>
  <g
     inkscape:groupmode="layer"
     id="foreground"
     inkscape:label="Foreground"
     transform="translate(-202,-202)">
    <g
       id="g1053"
       inkscape:label="ram"
       transform="matrix(0.44222091,0,0,0.44222091,229.00203,227.06344)">
      <path
         style="fill:#929394"
         d="m 108.34,48.93 c 1.29,-0.36 4.43,4.75 7.11,6.9 2.46,1.97 4.03,3.15 5.35,3.38 0.82,0.14 3.8,0.92 2.25,3.87 -1.55,2.95 -5.7,3.03 -7.74,2.96 -2.04,-0.07 -11.61,-9.92 -11.61,-9.92 0,0 0.13,-5.92 4.64,-7.19 z"
         id="path937" />
      <path
         style="fill:#b88658"
         d="m 37.88,16.62 c 0,0 -4.24,-2.44 -12.46,-1.27 -6.29,0.9 -13.37,4.36 -17.67,12.6 -4.93,9.43 -4.6,18.61 -1.06,25.06 4.19,7.63 11.76,12.18 11.76,12.18 z"
         id="path939" />
      <path
         style="fill:#6f4b41"
         d="m 21.13,30.35 c 0,0 -2.67,0 -5,3.1 -1.87,2.49 -2.67,4.5 -2.67,4.5 0,0 -5.82,0.94 -5.98,4.36 -0.1,2.11 2.46,1.41 4.43,3.38 1.97,1.97 2.46,3.31 2.96,5.56 0.49,2.25 3.31,2.67 3.31,2.67 0,0 0.07,-5.7 -3.03,-8.8 -3.1,-3.1 -5.28,-2.32 -5.14,-3.1 0.14,-0.77 2.46,-2.37 5,-2.32 3.94,0.07 5.56,4.65 5.56,4.65 l 2.6,-11.54 z"
         id="path941" />
      <path
         style="fill:#5d6167"
         d="m 76.24,108.15 c 0,0 -0.05,2.53 0.14,3.64 0.09,0.54 2.07,2.13 5.96,2.23 3.85,0.09 6.08,-1.99 6.05,-3.1 -0.02,-0.94 0.28,-4.97 0.28,-4.97 l -1.17,-4.08 -9.36,2.67 -0.73,1.4 z"
         id="path943" />
      <path
         style="fill:#979899"
         d="m 79.83,108.34 c 0,0 1.57,0.39 4.48,0.09 2.82,-0.28 4.32,-1.5 4.32,-1.5 l 1.06,-7.11 -13.37,1.41 1.83,6.83 z"
         id="path945" />
      <path
         style="fill:#5d6268"
         d="m 95.06,107.49 c 0,0 0.2,5.34 0.52,5.96 0.33,0.66 1.87,2.2 5.68,2.35 4.79,0.19 5.96,-1.6 6.1,-2.82 0.14,-1.22 0.84,-5.23 0.28,-6.71 -0.56,-1.48 -10.09,-0.52 -10.09,-0.52 z"
         id="path947" />
      <path
         style="fill:#979899"
         d="m 108.74,91.91 -13.7,1.64 c 0,0 -0.28,13.09 0,13.94 0.28,0.84 2.18,2.07 6.48,2.18 4.58,0.12 6.26,-1.2 6.26,-1.2 l 1.45,-16.28 z"
         id="path949" />
      <path
         style="fill:#5d6164"
         d="m 51.63,115 c 0,0 0.19,5.63 0.75,6.34 0.56,0.7 1.71,2.91 6.43,2.77 4.72,-0.14 6.31,-2.89 6.45,-3.59 0.14,-0.7 0.16,-4.67 0.16,-4.67 L 52.3,113.2 Z"
         id="path951" />
      <path
         style="fill:#979899"
         d="m 65.61,106.3 -14.5,1.2 c 0,0 0.31,6.85 0.52,8.12 0.18,1.1 2.09,2.72 7.09,2.58 5,-0.14 6.76,-2.39 6.76,-2.39 z"
         id="path953" />
      <path
         style="fill:#5f6467"
         d="m 30.44,112.66 c 0,0 2.72,-2.84 6.59,-2.98 3.87,-0.14 6.45,4.76 6.45,4.76 0,0 0.12,2.65 0.12,3.47 0,1.27 -2.95,3.28 -6.26,3.24 -5.09,-0.07 -5.77,-2.06 -6.01,-3.05 -0.14,-0.59 -0.89,-5.44 -0.89,-5.44 z"
         id="path955" />
      <path
         style="fill:#98999a"
         d="m 31.61,102.07 -2.89,0.96 1.76,9.95 c 0,0 2.11,2.96 6.83,2.96 4.72,0 6.19,-1.41 6.19,-1.41 l -0.42,-8.38 z"
         id="path957" />
      <path
         style="fill:#dedede"
         d="m 59.49,20.21 c 0,0 -2.4,-7.11 -12.25,-7.46 -11.68,-0.42 -14.08,8.87 -14.08,8.87 0,0 -5.77,-3.1 -11.12,2.53 -5.35,5.63 -1.13,11.68 -1.13,11.68 0,0 -3.14,2.26 -2.67,6.34 0.42,3.66 2.53,4.79 2.53,4.79 0,0 -7.85,4.12 -8.87,13.51 -1.13,10.42 3.52,14.08 3.52,14.08 0,0 -4.08,6.62 0.42,15.91 4.3,8.87 10.42,9.29 10.42,9.29 0,0 3.24,7.32 9.15,8.73 5.91,1.41 10.84,-0.28 10.84,-0.28 0,0 5.35,4.79 11.12,4.08 5.77,-0.7 7.6,-3.52 7.6,-3.52 0,0 3.52,3.38 10.56,1.83 7.04,-1.55 8.31,-5.49 8.31,-5.49 0,0 6.48,3.66 13.09,0.14 6.62,-3.52 7.18,-9.71 7.18,-9.71 0,0 7.18,-1.13 10.98,-8.45 3.8,-7.32 0.28,-12.11 0.28,-12.11 0,0 1.83,-3.8 -0.14,-11.54 -1.97,-7.74 -7.88,-8.59 -7.88,-8.59 0,0 4.36,-7.88 -1.55,-13.8 C 99.89,35.13 91.16,36.25 91.16,36.25 L 68.64,28.37 c 0,0 2.88,-4.09 -1.97,-7.32 -3.8,-2.53 -7.18,-0.84 -7.18,-0.84 z"
         id="path959" />
      <path
         style="fill:#979899"
         d="m 21.71,47.33 c 0,0 2.35,0.28 4.97,-1.78 2.63,-2.06 4.04,-4.79 4.04,-4.79 0,0 2.4,5.03 7.88,6.01 6.85,1.22 11.64,-5.16 11.64,-5.16 0,0 -0.75,3.66 3.1,6.66 3.85,3 8.45,1.78 8.45,1.78 0,0 -5.63,5.82 -7.41,10.7 -1.78,4.88 -2.72,13.14 -7.32,17.18 -6.5,5.7 -26.09,4.88 -27.5,-8.63 -0.6,-5.74 2.44,-5.82 2.82,-13.51 0.26,-5.55 -0.67,-8.46 -0.67,-8.46 z"
         id="path961" />
      <path
         style="fill:#2f2f2f"
         d="m 31.71,66.11 c 0.29,0.04 2.25,-1.03 2.63,-1.22 0.38,-0.19 2.11,-1.31 2.86,-0.23 0.75,1.08 0.22,2.09 -1.4,2.86 -1.18,0.56 -2.5,1.2 -2.5,1.2 0,0 -0.66,4.12 2.15,4.4 1.76,0.18 2.15,-1 3.41,0.18 1.27,1.17 -0.42,3.13 -3.12,3 -1.52,-0.07 -2.44,-0.43 -3.28,-1.22 -0.42,-0.39 -1.02,-1.71 -1.02,-1.71 0,0 -0.67,2.13 -3.48,2.32 -2.6,0.18 -3.99,-2.11 -2.91,-3.14 1.08,-1.03 1.13,0.31 2.77,0.26 2.36,-0.07 2.04,-4.33 2.04,-4.33 0,0 -1.62,-1.84 -2.09,-2.31 -0.47,-0.47 -1.25,-1.41 -0.66,-2.25 0.77,-1.1 1.71,-0.41 2.18,-0.08 0.47,0.31 2.12,2.23 2.42,2.27 z"
         id="path963" />
      <path
         style="fill:#6f4b41"
         d="m 64.04,48.65 -1.22,-13.14 21.4,-4.22 6.01,12.11 -3.85,18.2 -1.22,5.44 -6.1,6.85 c 0,0 -4.33,2.51 -10.04,0.84 C 62.92,72.95 60.29,69.19 58.98,63 57,53.7 64.04,48.65 64.04,48.65 Z"
         id="path965" />
      <path
         style="fill:#b68859"
         d="m 60.1,38.14 c 0,6.01 2.91,10.89 3.94,10.51 1.03,-0.38 4.84,-1.41 6.01,-6.29 0.56,-2.32 3.42,-4.69 6.56,-5.05 3.2,-0.37 6.7,1.34 8.36,7.31 1.5,5.4 -0.18,10.52 -3.1,12.67 -2.92,2.15 -6.89,1.68 -7.88,-1.22 -1.5,-4.41 4.69,-5.91 4.79,-7.41 0.1,-1.5 -7.6,-4.79 -12.86,0.38 -5.87,5.76 -6.38,14.27 -1.78,20.18 4.6,5.91 11.98,6.86 19.33,3 C 90.98,68.28 97.28,60.29 96.8,44.91 96.24,26.89 82.16,17.53 71.37,19.95 c -3.99,0.89 -6.69,2.84 -8.39,5.71 -1.71,2.86 -2.88,7.88 -2.88,12.48 z"
         id="path967" />
      <ellipse
         style="fill:#2f2f2f"
         cx="47.43"
         cy="51.490002"
         rx="3.28"
         ry="3.96"
         id="ellipse969" />
      <ellipse
         style="fill:#2f2f2f"
         cx="28.280001"
         cy="49.470001"
         rx="3.01"
         ry="3.5699999"
         id="ellipse971" />
    </g>
  </g>
</svg>
