<?xml version="1.0" encoding="UTF-8"?>
<svg fill="none" version="1.1" viewBox="0 0 108 108" xmlns="http://www.w3.org/2000/svg">
	<g id="background">
		<rect x="0" y="0" width="108" height="108" fill="#dd7db2"/>
	</g>
	<g id="foreground">
		<path d="m74.912 46.701c0.5705-0.1592 1.9591 2.1005 3.1442 3.0513 1.0879 0.8712 1.7822 1.393 2.3659 1.4947 0.3626 0.0619 1.6804 0.4068 0.995 1.7114s-2.5207 1.3399-3.4228 1.309c-0.9021-0.031-5.1342-4.3869-5.1342-4.3869s0.0575-2.6179 2.0519-3.1795z" fill="#929394"/>
		<path d="m43.753 32.413s-1.875-1.079-5.51-0.5616c-2.7816 0.398-5.9125 1.9281-7.8141 5.572-2.1801 4.1701-2.0342 8.2297-0.4687 11.082 1.8529 3.3742 5.2005 5.3863 5.2005 5.3863z" fill="#b88658"/>
		<path d="m36.346 38.484s-1.1807 0-2.2111 1.3709c-0.8269 1.1011-1.1807 1.99-1.1807 1.99s-2.5737 0.4157-2.6445 1.9281c-0.0442 0.9331 1.0879 0.6235 1.9591 1.4947 0.8711 0.8712 1.0878 1.4637 1.3089 2.4587 0.2167 0.995 1.4638 1.1808 1.4638 1.1808s0.0309-2.5207-1.34-3.8916c-1.3708-1.3709-2.3349-1.0259-2.273-1.3709 0.0619-0.3405 1.0879-1.048 2.2111-1.0259 1.7424 0.0309 2.4588 2.0563 2.4588 2.0563l1.1498-5.1032z" fill="#6f4b41"/>
		<path d="m60.717 72.889s-0.0221 1.1188 0.0619 1.6097c0.0398 0.2388 0.9154 0.9419 2.6357 0.9861 1.7025 0.0398 2.6887-0.88 2.6754-1.3708-0.0088-0.4157 0.1238-2.1979 0.1238-2.1979l-0.5174-1.8042-4.1392 1.1807-0.3228 0.6191z" fill="#5d6167"/>
		<path d="m62.304 72.973s0.6943 0.1725 1.9812 0.0398c1.247-0.1238 1.9103-0.6633 1.9103-0.6633l0.4688-3.1442-5.9125 0.6235 0.8093 3.0204z" fill="#979899"/>
		<path d="m69.04 72.597s0.0885 2.3615 0.23 2.6357c0.1459 0.2918 0.8269 0.9729 2.5118 1.0392 2.1182 0.084 2.6356-0.7076 2.6975-1.2471 0.062-0.5395 0.3715-2.3128 0.1239-2.9673-0.2477-0.6545-4.462-0.2299-4.462-0.2299z" fill="#5d6268"/>
		<path d="m75.089 65.708-6.0584 0.7253s-0.1238 5.7886 0 6.1645c0.1238 0.3715 0.964 0.9154 2.8656 0.9641 2.0253 0.053 2.7683-0.5307 2.7683-0.5307l0.6412-7.1993z" fill="#979899"/>
		<path d="m49.834 75.918s0.084 2.4897 0.3316 2.8037c0.2477 0.3096 0.7562 1.2869 2.8435 1.2249 2.0873-0.0619 2.7904-1.278 2.8523-1.5875 0.062-0.3096 0.0708-2.0652 0.0708-2.0652l-5.8019-1.1719z" fill="#5d6164"/>
		<path d="m56.016 72.071-6.4122 0.5307s0.1371 3.0292 0.23 3.5908c0.0796 0.4864 0.9242 1.2028 3.1353 1.1409s2.9894-1.0569 2.9894-1.0569z" fill="#979899"/>
		<path d="m40.463 74.884s1.2028-1.2559 2.9142-1.3178 2.8524 2.105 2.8524 2.105 0.053 1.1719 0.053 1.5345c0 0.5616-1.3045 1.4505-2.7683 1.4328-2.2509-0.031-2.5516-0.911-2.6577-1.3488-0.0619-0.2609-0.3936-2.4057-0.3936-2.4057z" fill="#5f6467"/>
		<path d="m40.981 70.2-1.278 0.4245 0.7783 4.4001s0.9331 1.309 3.0204 1.309c2.0872 0 2.7373-0.6235 2.7373-0.6235l-0.1857-3.7058z" fill="#98999a"/>
		<path d="m53.31 34s-1.0613-3.1442-5.4172-3.299c-5.1651-0.1857-6.2265 3.9225-6.2265 3.9225s-2.5516-1.3709-4.9174 1.1188c-2.3659 2.4897-0.4998 5.1652-0.4998 5.1652s-1.3885 0.9994-1.1807 2.8037c0.1857 1.6185 1.1188 2.1182 1.1188 2.1182s-3.4714 1.8219-3.9225 5.9744c-0.4997 4.6079 1.5566 6.2265 1.5566 6.2265s-1.8042 2.9275 0.1858 7.0357c1.9015 3.9225 4.6079 4.1082 4.6079 4.1082s1.4328 3.2371 4.0463 3.8606c2.6136 0.6236 4.7937-0.1238 4.7937-0.1238s2.3659 2.1183 4.9175 1.8043c2.5516-0.3096 3.3609-1.5566 3.3609-1.5566s1.5566 1.4947 4.6699 0.8092c3.1132-0.6854 3.6748-2.4278 3.6748-2.4278s2.8656 1.6186 5.7887 0.0619c2.9275-1.5566 3.1751-4.2939 3.1751-4.2939s3.1752-0.4997 4.8556-3.7368c1.6805-3.2371 0.1238-5.3553 0.1238-5.3553s0.8093-1.6804-0.0619-5.1032c-0.8711-3.4228-3.4847-3.7987-3.4847-3.7987s1.9281-3.4847-0.6854-6.1027c-2.6135-2.6135-6.4741-2.1182-6.4741-2.1182l-9.9589-3.4847s1.2736-1.8087-0.8711-3.237c-1.6805-1.1189-3.1752-0.3715-3.1752-0.3715z" fill="#eee"/>
		<path d="m36.603 45.993s1.0392 0.1238 2.1979-0.7871c1.163-0.911 1.7865-2.1183 1.7865-2.1183s1.0614 2.2244 3.4847 2.6578c3.0292 0.5395 5.1475-2.2819 5.1475-2.2819s-0.3317 1.6185 1.3709 2.9452c1.7025 1.3267 3.7367 0.7872 3.7367 0.7872s-2.4897 2.5737-3.2768 4.7317c-0.7872 2.1581-1.2029 5.8108-3.2371 7.5974-2.8744 2.5206-11.538 2.158-12.161-3.8164-0.2653-2.5383 1.0791-2.5737 1.2471-5.9744 0.115-2.4543-0.2963-3.7412-0.2963-3.7412z" fill="#979899"/>
		<path d="m41.025 54.298c0.1283 0.0177 0.995-0.4555 1.1631-0.5395 0.168-0.084 0.9331-0.5793 1.2647-0.1017 0.3317 0.4776 0.0973 0.9243-0.6191 1.2648-0.5218 0.2476-1.1055 0.5306-1.1055 0.5306s-0.2919 1.822 0.9507 1.9458c0.7783 0.0796 0.9508-0.4422 1.508 0.0796 0.5616 0.5174-0.1857 1.3842-1.3797 1.3267-0.6722-0.031-1.079-0.1902-1.4505-0.5395-0.1857-0.1725-0.4511-0.7562-0.4511-0.7562s-0.2963 0.9419-1.5389 1.0259c-1.1498 0.0796-1.7645-0.9331-1.2869-1.3886s0.4997 0.1371 1.225 0.115c1.0436-0.0309 0.9021-1.9148 0.9021-1.9148s-0.7164-0.8137-0.9242-1.0215c-0.2079-0.2079-0.5528-0.6236-0.2919-0.995 0.3405-0.4865 0.7562-0.1813 0.9641-0.0354 0.2078 0.1371 0.9375 0.9861 1.0701 1.0038z" fill="#2f2f2f"/>
		<path d="m55.322 46.577-0.5395-5.8108 9.4636-1.8662 2.6577 5.3553-1.7026 8.0484-0.5395 2.4057-2.6975 3.0292s-1.9148 1.11-4.4399 0.3715c-2.6976-0.7872-3.8606-2.4499-4.4399-5.1873-0.8756-4.1126 2.2376-6.3458 2.2376-6.3458z" fill="#6f4b41"/>
		<path d="m53.58 41.929c0 2.6578 1.2868 4.8158 1.7423 4.6478 0.4555-0.1681 2.1404-0.6236 2.6578-2.7816 0.2476-1.026 1.5124-2.074 2.901-2.2332 1.4151-0.1637 2.9628 0.5925 3.6969 3.2326 0.6633 2.388-0.0796 4.6522-1.3709 5.6029-1.2913 0.9508-3.0469 0.743-3.4847-0.5395-0.6633-1.9502 2.074-2.6135 2.1183-3.2768 0.0442-0.6634-3.3609-2.1183-5.687 0.168-2.5958 2.5472-2.8214 6.3105-0.7871 8.924 2.0342 2.6136 5.2978 3.0337 8.5481 1.3267 3.3211-1.7424 6.1071-5.2757 5.8948-12.077-0.2477-7.9688-6.4741-12.108-11.246-11.038-1.7644 0.3936-2.9584 1.2559-3.7102 2.5251-0.7562 1.2647-1.2736 3.4847-1.2736 5.5189z" fill="#b68859"/>
		<ellipse cx="47.977" cy="47.833" rx="1.4505" ry="1.7512" fill="#2f2f2f"/>
		<ellipse cx="39.508" cy="46.94" rx="1.3311" ry="1.5787" fill="#2f2f2f"/>
	</g>
</svg>
