<?xml version="1.0" encoding="UTF-8"?>
<svg fill="none" version="1.1" viewBox="0 0 108 108" xmlns="http://www.w3.org/2000/svg" xmlns:xlink="http://www.w3.org/1999/xlink">
	<defs>
		<radialGradient id="radialGradient1764" cx="465.68" cy="1097.5" r="435.76" gradientTransform="translate(-15.787 -9.823)" gradientUnits="userSpaceOnUse">
			<stop stop-color="#0e6ab3" offset="0"/>
			<stop stop-color="#00bcd4" offset="1"/>
		</radialGradient>
		<linearGradient id="linearGradient1769" x1="553.93" x2="487.94" y1="1186" y2="1542.5" gradientTransform="matrix(.97495 0 0 1 -14.855 -26.667)" gradientUnits="userSpaceOnUse">
			<stop stop-color="#055493" offset="0"/>
			<stop stop-color="#032541" offset="1"/>
		</linearGradient>
		<linearGradient id="linearGradient1784" x1="986.66" x2="796.14" y1="1202.6" y2="1144" gradientTransform="matrix(.97484 .015104 -.014725 .99989 1.549 -39.635)" gradientUnits="userSpaceOnUse">
			<stop stop-color="#055493" offset="0"/>
			<stop stop-color="#032541" offset="1"/>
		</linearGradient>
		<linearGradient id="linearGradient1774" x1="246.88" x2="478.99" y1="738.36" y2="1203.4" gradientTransform="rotate(10.295 432.27 1140.1)" gradientUnits="userSpaceOnUse">
			<stop stop-color="#055493" offset="0"/>
			<stop stop-color="#032541" offset="1"/>
		</linearGradient>
		<linearGradient id="linearGradient1779" x1="229.94" x2="299.77" y1="564.6" y2="862.76" gradientTransform="rotate(10.295 488.18 1151.8)" gradientUnits="userSpaceOnUse">
			<stop stop-color="#055493" offset="0"/>
			<stop stop-color="#032541" offset="1"/>
		</linearGradient>
		<linearGradient id="linearGradient1789" x1="357.9" x2="406.1" y1="600.84" y2="718.87" gradientTransform="rotate(10.295 432.27 1140.1)" gradientUnits="userSpaceOnUse">
			<stop stop-color="#055493" offset="0"/>
			<stop stop-color="#032541" offset="1"/>
		</linearGradient>
	</defs>
	<g id="background">
		<path d="m0 0h108v108h-108z" fill="#fff"/>
	</g>
	<g id="foreground">
		<g transform="matrix(.069892 0 0 .069892 17.744 -16.922)">
			<path id="globe" d="m845.56 1158.9q-33.341 66.895-111.12 124.62-72.551 50.096-166.1 59.286-192.26 11.637-315.23-149.89-49.793-68.051-59.809-175.11-2.4695-102.75 34.595-172.2 55.099-99.888 127.35-141.91 77.992-47.797 169.33-52.525 197.74-1.5239 308.36 162.4 98.66 166.02 12.618 345.34" fill="url(#radialGradient1764)"/>
			<path id="body" d="m841.11 799.22v0.01953c29.111 95.864 43.159 143.99-1.8493 252.45-75.389 181.68-207.65 174.53-276.53 165.66-100.19-12.907-81.624 4.7809-62.169-12.413 35.747-31.592 56.049-50.575 62.241-55.494 13.773-10.942 29.208-21.109 47.153-29.055 41.123-18.208 103.17-32.723 185.81-44.324l-19.978-8.5454c-59.383-26.394-92.953-38.938-100.44-40.199-17.757-2.9918-29.167-5.7562-34.696-5.7562-0.52023 0-0.98592 0.067-1.4003 0.051-2.7468-0.1031-5.5303-0.2289-8.3571-0.2289-6.0512 0-12.291 0.3496-18.72 1.0489-9.4317 1.0258-19.276 3.0083-29.533 5.9475l-15.694 5.2066c-10.671 4.0004-21.791 8.5137-33.133 14.045-41.016 20.004-71.443 34.551-91.536 43.085-12.911 5.4835-26.077 10.24-39.432 14.477-25.82 8.1931-62.15 4.9411-89.184 4.9411-1.0196 0-2.04 1e-3 -3.0612-0.017-28.096-0.509-56.669-4.0643-85.592-11.197-43.558-10.742-103.76-33.343-103.76-33.343s-6.4795 65.449 46.584 143.6c65.899 97.059 158.8 169.98 290.19 193.69 222.98 40.231 381.39-86.173 450.03-282.69 23.068-66.046 11.799-162.71-3.3376-210.49-20.029-63.221-63.61-110.47-63.61-110.47l-9e-3 9.6e-4v-9.6e-4 9.6e-4 -9.6e-4 9.6e-4 -9.6e-4 9.6e-4 -9.6e-4 9.6e-4 -9.6e-4 9.6e-4 -9.6e-4 9.6e-4 -9.6e-4 9.6e-4 -9.6e-4 9.6e-4 -9.6e-4 9.6e-4z" fill="url(#linearGradient1769)" stroke-width=".9874"/>
			<path id="tail" d="m734.55 1352.4 27.268-115.71c59.617-84.981 95.739-149.5 108.36-193.56 9.8918-29.458 16.458-58.965 19.699-88.521 1.7788-14.943 3.0786-29.51 3.8996-43.699 1.2758-21.621 2.1439-53.029 2.6044-94.222 0.27513-5.2701-0.32683-9.5216-0.32683-9.5216s6.1383 9.5027 7.831 17.213c5.2716 24.135 8.4827 41.1 9.6334 50.894 4.6099 29.409 7.7168 62.45 9.3209 99.124 0.67727 17.989 0.60457 35.84-0.21808 53.555l-1.9838 25.947c-1.8367 16.937-4.5671 33.047-8.191 48.331-7.4598 30.553-17.223 57.887-29.289 82.003-12.066 24.116-24.741 45.129-38.023 63.041-34.103 46.842-70.966 81.884-110.59 105.13" fill="url(#linearGradient1784)" stroke-width=".9874"/>
			<path id="torso" d="m186.12 1113-3.4e-4 0.0018h-1.8e-4l-1.8e-4 1e-3 -1.6e-4 9e-4h-5.4e-4l-1.6e-4 8e-4h-1.8e-4l-1.6e-4 9e-4 3e-3 -0.015-1.6e-4 9e-4 1.6e-4 -9e-4 -1.6e-4 9e-4 1.6e-4 -9e-4 -1.6e-4 9e-4 1.6e-4 -9e-4 -1.6e-4 9e-4 1.6e-4 -9e-4 -1.6e-4 9e-4 1.6e-4 -9e-4 -1.6e-4 9e-4 1.6e-4 -9e-4 -1.6e-4 9e-4 1.6e-4 -9e-4 -1.6e-4 9e-4zm316.03-492.28-3.6e-4 0.00196-1.7e-4 9.4e-4 -1.7e-4 9.3e-4 -1.8e-4 9.9e-4 -1.8e-4 9.8e-4 -3.4e-4 0.0019-1.8e-4 9.5e-4 -1.7e-4 9.9e-4 -1.8e-4 9.4e-4 -1.7e-4 9.7e-4 -1.7e-4 9.4e-4 -1.8e-4 9.9e-4 -1.8e-4 9.8e-4c-16.316-4.2758-41.99 2.649-41.99 2.649-48.91 13.192-133.01 36.765-133.01 36.765-39.656 17.668-98.688 59.865-189.37 124.74l89.539-39.702 2e-3 1e-3c-45.884 41.55-85.251 107.94-103.91 188.48-8.5616 36.949-14.066 107-3.0898 161.97s33.677 94.974 63.962 133 74.703 58.076 152.45 70.244c95.346 14.922 151.14-11.372 178.18-22.793 47.653-20.13 115.29-87.889 140.35-161.02l4.6624-12.212-7e-3 1e-3c-31.922 8.2884-57.965 18.7-77.21 31.478-12.86 8.5386-22.522 15.441-29.252 21.269-47.413 40.172-100.43 52.42-138.38 59.223-26.44 4.7403-53.759 4.3606-80.549 2.4021-16.105-1.1774-32.416-3.2528-47.698-8.4709-16.544-5.6488-32.256-14.138-46.461-24.326-11.136-7.9866-21.043-17.794-29.742-28.382-7.493-9.1196-13.556-19.406-19.013-29.872-2.1988-4.2174-5.4824-13.173-5.4824-13.173h2e-3c13.628 9.5343 58.768 50.3 215.13 37.492 94.135-7.7114 154.87-45.277 212.14-83.096 38.463-25.401 75.639-73.409 109.34-147.45l-7e-3 -3e-4c-69.588 38.338-131.02 57.496-184.23 59.303-34.074 1.1571-64.677 0.1789-91.888-4.7636-34.198-6.2115-62.997-17.721-86.397-34.53-17.841-64.34 2.8783-94.476 29.01-136.11 11.907-18.97 26.513-37.918 44.751-53.658l126.54-120.18-58.35-9.2952-1.8e-4 9.8e-4 1.8e-4 -9.8e-4 -1.8e-4 9.8e-4 1.8e-4 -9.8e-4 -1.8e-4 9.8e-4 1.8e-4 -9.8e-4 -1.8e-4 9.8e-4 1.8e-4 -9.8e-4 -1.8e-4 9.8e-4 1.8e-4 -9.8e-4 -1.8e-4 9.8e-4 1.8e-4 -9.8e-4 -1.8e-4 9.8e-4 1.8e-4 -9.8e-4 -1.8e-4 9.8e-4z" fill="url(#linearGradient1774)"/>
			<path id="neck" d="m443.85 731.38c-37.703 1.5147-68.621 8.1212-90.435 15.198-15.405 5.4588-24.49 9.0859-27.256 10.881-11.744 5.7564-22.784 12.571-33.119 20.443-10.336 7.8723-19.747 16.581-28.235 26.126-10.105 12.196-15.831 19.704-17.176 22.522-12.147 18.189-22.84 43.869-32.078 77.042l-7.3203 27.252c27.896-13.864 51.67-19.075 71.323-15.633 23.465 3.4417 57.741 15.55 101.59 37.625-7.296-30.069-11.904-52.595-12.586-68.876-0.21462-16.223 0.16879-25.892 1.1502-29.007 0.90404-6.3646 2.3498-12.661 4.3373-18.889 2.0204-6.2242 4.5824-12.38 7.6862-18.468 1.0225-3.1106 6.6509-12.12 16.885-27.029 10.702-14.85 31.544-36.992 55.676-59.681z" fill="url(#linearGradient1779)"/>
			<path id="beak" d="m391.96 643.92 4.8722 0.9195q32.59 5.5386 45.099 14.153 4.6796 2.6291 9.8564 11.494 3.4134 6.4675 5.8983 19.849 29.414-26.71 46.639-36.39 16.776-10.336 55.363-23.658-22.179-6.5576-34.064-8.5923-11.88-2.2496-25.012-2.5399-13.196-0.243-28.02 2.271-21.704 2.8586-80.631 22.493" fill="url(#linearGradient1789)"/>
		</g>
	</g>
</svg>
