<?xml version="1.0" encoding="UTF-8"?>
<svg style="fill:none" version="1.1" viewBox="0 0 108 108" xmlns="http://www.w3.org/2000/svg">
	<g id="background">
		<path d="m0 0h108v108h-108z" style="fill:#512d8c;stroke-linecap:round;stroke-width:59.723"/>
	</g>
	<g id="foreground">
		<g transform="matrix(.96942 0 0 .96942 1.6515 .51862)">
			<path class="st1" d="m39.469 80.599c-0.97748-0.18718-1.8094-0.56153-2.6829-1.227-2.2461-1.6846-2.8076-4.6378-1.3726-7.0087 0.14558-0.24957 0.22877-0.45754 0.20797-0.49914-0.04159-0.0416-0.24957-0.12478-0.47834-0.22877-1.5806-0.62392-2.7037-2.2045-2.8076-3.9723-0.10399-1.539 0.64472-3.1196 1.8718-4.0347 0.20797-0.14558 0.45754-0.31196 0.54073-0.37435 0.16638-0.08319 14.329-4.721 14.433-4.721 0.0416 0 0.14558 0.14558 0.24957 0.31196s0.33276 0.47834 0.49914 0.68631c0.24957 0.29116 0.31196 0.39515 0.24957 0.47834-0.0416 0.06239-1.435 1.9757-3.078 4.2635-3.3068 4.5546-3.2236 4.4298-2.7868 4.8666 0.27036 0.27037 0.60312 0.29116 0.91508 0.06239 0.12478-0.08319 1.5598-2.0173 3.2236-4.3051 2.3293-3.2028 3.0364-4.1387 3.1196-4.0971 0.18718 0.08319 1.1439 0.39515 1.3726 0.43674l0.20797 0.0416v7.3415c0 8.2565 0 8.0694-0.51993 9.1508-0.54073 1.1023-1.4974 1.9342-2.6413 2.3293-0.7695 0.27037-1.4142 0.33276-2.1213 0.20797-1.1439-0.18718-2.0381-0.66552-2.8492-1.539l-0.45754-0.49914-0.12478 0.18718c-0.62392 0.89429-1.7886 1.6846-2.9116 1.9757-0.58232 0.18718-1.6222 0.24957-2.0589 0.16638z" style="fill:#31a452"/>
			<path class="st3" d="m66.88 80.599c-1.1439-0.18718-2.0589-0.66552-2.974-1.5806l-0.66552-0.66552-0.14558 0.20797c-0.47834 0.68631-1.4142 1.3518-2.3085 1.643-0.7695 0.24957-1.9134 0.29116-2.6205 0.06239-1.4766-0.43674-2.6413-1.539-3.1612-2.974l-0.18718-0.54073v-15.432l0.37435-0.08319c0.20797-0.04159 0.56153-0.16638 0.8111-0.24957 0.22877-0.10399 0.43674-0.16638 0.45754-0.14558 0.0208 0.0208 1.3518 1.8718 2.9948 4.1387 1.6222 2.2669 3.0572 4.1803 3.1612 4.2635 0.45754 0.39515 1.1231 0.08319 1.1231-0.54073 0-0.29116-0.20797-0.60312-2.87-4.2635-1.5806-2.1837-2.9532-4.0763-3.0572-4.2427l-0.18718-0.27037 0.29116-0.35356c0.16638-0.18718 0.39515-0.51993 0.51993-0.70711l0.20797-0.33276 7.1543 2.3293c3.9307 1.2894 7.2999 2.4125 7.4662 2.5165 1.4142 0.83189 2.3085 2.3501 2.3085 3.9723 0 0.85269-0.10399 1.331-0.49914 2.1213-0.41595 0.85269-1.1439 1.5806-1.9965 2.0173-0.33276 0.16638-0.66552 0.31196-0.70711 0.31196-0.20797 0-0.18718 0.14558 0.06239 0.54073 0.58233 0.89429 0.83189 1.7678 0.8111 2.8492 0 1.6846-0.7695 3.1612-2.2045 4.2219-1.3518 0.99827-2.7868 1.3934-4.1595 1.1854z" style="fill:#ffb800"/>
			<path class="st0" d="m32.626 61.611c-1.2478-0.27037-2.5373-1.2894-3.0988-2.4333-0.70711-1.4558-0.64472-3.1404 0.18718-4.4922 0.14558-0.24957 0.24957-0.47834 0.22877-0.49914-0.0208-0.0208-0.22877-0.12478-0.43674-0.20797-0.8111-0.31196-1.6846-0.99827-2.2253-1.7262-0.95668-1.2894-1.2686-3.0364-0.8111-4.5962 0.60312-2.1421 1.955-3.494 3.9723-4.0139 0.58233-0.14558 1.8718-0.16638 2.4333 0 0.22877 0.06239 0.45754 0.10399 0.49914 0.10399 0.0416 0 0.06239-0.14558 0.06239-0.31196 0-0.60312 0.16638-1.2062 0.49914-1.9134 1.0815-2.2461 3.7643-3.2236 6.0312-2.1837 0.56153 0.24957 1.2894 0.7903 1.6222 1.2062 0.14558 0.16638 2.1421 2.9116 4.4714 6.1144l4.2219 5.8025-0.31196 0.37435c-0.16638 0.20797-0.39515 0.54073-0.51993 0.72791-0.12478 0.20797-0.24957 0.35356-0.31196 0.33276-0.93588-0.35356-9.7124-3.1196-9.9203-3.1196-0.39515 0-0.64472 0.27037-0.64472 0.66552 0 0.20797 0.0416 0.35356 0.16638 0.47834 0.12478 0.12478 1.6222 0.64472 5.0954 1.7678l4.929 1.6014-0.0416 1.7886-6.7799 2.1837c-3.7435 1.227-7.0503 2.2669-7.3207 2.3293-0.64472 0.14558-1.3726 0.14558-1.9965 0.0208z" style="fill:#4081ef"/>
			<path class="st4" d="m73.036 61.528c-0.37435-0.10399-3.6395-1.1647-7.2791-2.3501l-6.6136-2.1629 0.20797-0.89429v-0.89429l4.7002-1.6014c3.1196-1.0191 4.9914-1.6638 5.1161-1.7678 0.14558-0.12478 0.18718-0.22877 0.18718-0.45754 0-0.41595-0.24957-0.68631-0.64472-0.68631-0.18718 0-2.1837 0.60312-5.1369 1.5598-2.6621 0.85269-4.8666 1.5598-4.9082 1.5598-0.0208 0-0.14558-0.16638-0.27036-0.39515-0.12478-0.20797-0.33276-0.51993-0.45754-0.66552-0.14558-0.14558-0.24957-0.31196-0.24957-0.33276 0-0.0416 1.9965-2.8076 4.4506-6.156 3.9307-5.4073 4.4922-6.156 4.9082-6.468 1.1854-0.91508 2.7245-1.2062 4.0971-0.8111 1.8718 0.56153 3.3484 2.4125 3.3484 4.2219 0 0.47834-0.0208 0.47834 0.64472 0.31196 0.97748-0.22877 2.3917-0.10399 3.3276 0.31196 0.95668 0.41595 1.8718 1.2478 2.3917 2.1213 0.43674 0.7487 0.8111 1.955 0.87349 2.7453 0.06239 1.0815-0.22877 2.2253-0.83189 3.182-0.54073 0.85269-1.6222 1.7262-2.5165 2.0381-0.18718 0.06239-0.35356 0.16638-0.35356 0.20797 0 0.04159 0.08319 0.20797 0.18718 0.35356 0.49914 0.7487 0.7487 1.6014 0.72791 2.6413 0 1.2062-0.43674 2.2253-1.331 3.1404-0.8319 0.85269-1.851 1.3102-3.0988 1.3518-0.68631 0.08319-0.89429 0.06239-1.4766-0.10399z" style="fill:#e64132"/>
			<path class="st5" d="m53.008 59.885c-1.2686-0.33276-2.3709-1.4142-2.7453-2.6829-0.14558-0.49914-0.14558-1.5598 0-2.0589 0.35356-1.2062 1.3726-2.2461 2.5581-2.5997 0.56153-0.16638 1.4974-0.18718 2.0797-0.04159 1.2894 0.33276 2.4125 1.4766 2.7452 2.766 0.33276 1.2478-0.06239 2.6205-1.0399 3.5979-0.95668 0.95668-2.3501 1.3518-3.5979 1.0191z" style="fill:#ffffff"/>
			<path class="st2" d="m47.205 45.514c-2.766-3.8059-4.409-6.156-4.5754-6.468-0.29116-0.62392-0.39515-1.1439-0.39515-1.955 0-2.9324 2.7245-5.0746 5.6361-4.4506 0.29116 0.06239 0.54073 0.10399 0.56153 0.10399 0.0208 0 0.06239-0.27036 0.08319-0.58232 0.16638-2.2253 1.747-4.0763 3.9307-4.6586 0.8111-0.20797 2.2045-0.20797 3.0156 0 1.851 0.47834 3.3068 1.9342 3.7851 3.7851 0.08319 0.31196 0.14558 0.7695 0.14558 1.0191s0.0208 0.43674 0.06239 0.43674 0.31196-0.06239 0.62392-0.12478c1.539-0.33276 3.1612 0.14558 4.2635 1.2478 0.89429 0.89429 1.3726 1.9965 1.3726 3.2444 0 0.83189-0.12478 1.3518-0.49914 2.0797-0.12478 0.24957-2.1629 3.1196-4.513 6.3848-3.7019 5.0954-4.3258 5.9272-4.4506 5.8857-0.08319-0.0208-0.39515-0.12478-0.70711-0.22877-0.31196-0.10399-0.60312-0.18718-0.68631-0.18718-0.14558 0-0.14558-0.16638-0.06239-5.3033v-5.3033l-0.29116-0.18718c-0.20797-0.22877-0.51993-0.31196-0.7903-0.18718-0.41595 0.16638-0.41595-0.10399-0.37435 5.6569v5.3657h-0.24957c-0.10399-0.0416-0.49914 0.06239-0.83189 0.18718-0.33276 0.12478-0.64472 0.22877-0.66552 0.22877-0.0416-0.0208-1.9965-2.7037-4.3882-5.9896z" style="fill:#de7fb3"/>
		</g>
	</g>
</svg>
