<?xml version="1.0" encoding="UTF-8"?>
<svg width="108" height="108" version="1.1" viewBox="0 0 28.575 28.575" xmlns="http://www.w3.org/2000/svg">
	<g id="background">
		<rect width="28.575" height="28.575" style="fill:#071935;stroke-linecap:round;stroke-linejoin:round;stroke-width:.34298"/>
		<g transform="matrix(.18256 0 0 .18256 -58.35 -30.915)" style="fill:#fcd372">
			<circle transform="rotate(-6.1866)" cx="332.13" cy="276.2" r="1.2942" style="fill:#fcd372;stroke-linecap:round;stroke-width:.529"/>
			<circle transform="rotate(-6.1866)" cx="376.65" cy="258.27" r="1.2942" style="fill:#fcd372;stroke-linecap:round;stroke-width:.529"/>
			<circle transform="rotate(-6.1866)" cx="351.2" cy="314.63" r="1.2942" style="fill:#fcd372;stroke-linecap:round;stroke-width:.529"/>
			<path d="m378.03 215.35-1.1693 0.91973 0.20012 1.4742-1.3812-0.5528-1.1766 0.91037-0.21184-1.4725-1.3767-0.56378 1.1693-0.91973-0.20011-1.4742 1.3812 0.5528 1.1766-0.91037 0.21183 1.4725z" style="fill:#fcd372;stroke-linecap:round;stroke-width:.45514"/>
			<circle transform="rotate(-6.1866)" cx="409.02" cy="296.63" r="1.2942" style="fill:#fcd372;stroke-linecap:round;stroke-width:.529"/>
			<path transform="rotate(7.3734 528.57 228.73)" d="m423.13 224.54-0.20136 1.4409-1.0564-1.0004-1.1613 0.8765-0.0396-1.4544-1.4409-0.20136 1.0004-1.0564-0.8765-1.1613 1.4544-0.0396 0.20135-1.4409 1.0564 1.0004 1.1613-0.8765 0.0396 1.4544 1.4409 0.20135-1.0004 1.0564 0.8765 1.1612z" style="fill:#fcd372"/>
			<path d="m420.42 281.55-1.2026-0.1589-0.79023 0.92029-0.62555-1.0393-1.2122-0.044 0.4225-1.137-0.72138-0.9752 1.1524-0.37861 0.31267-1.172 1.0145 0.66494 1.1113-0.48629 0.11268 1.2078 1.0731 0.56563-0.87401 0.84113z" style="fill:#fcd372"/>
			<circle transform="rotate(-6.1866)" cx="356.62" cy="330.06" r="1.2942" style="fill:#fcd372;stroke-linecap:round;stroke-width:.529"/>
			<circle transform="rotate(-6.1866)" cx="406.06" cy="273.93" r="1.2942" style="fill:#fcd372;stroke-linecap:round;stroke-width:.529"/>
			<circle transform="rotate(-6.1866)" cx="344.63" cy="294.64" r="1.2942" style="fill:#fcd372;stroke-linecap:round;stroke-width:.529"/>
			<circle transform="rotate(-6.1866)" cx="394.32" cy="309.29" r="1.2942" style="fill:#fcd372;stroke-linecap:round;stroke-width:.529"/>
			<circle transform="rotate(-6.1866)" cx="369.42" cy="274.53" r="1.2942" style="fill:#fcd372;stroke-linecap:round;stroke-width:.529"/>
			<path d="m363.41 269.51-1.1693 0.91973 0.20012 1.4742-1.3812-0.5528-1.1766 0.91037-0.21184-1.4725-1.3767-0.56378 1.1693-0.91973-0.20011-1.4742 1.3812 0.5528 1.1766-0.91037 0.21183 1.4725z" style="fill:#fcd372;stroke-linecap:round;stroke-width:.45514"/>
		</g>
	</g>
	<g id="foreground" transform="matrix(.72611 0 0 .72611 346.09 377.41)">
		<g transform="matrix(.21508 -.036417 .036417 .21508 -358.98 -422.37)">
			<circle transform="rotate(15.379)" cx="-482.74" cy="-309.55" r="23.326" style="fill:#06b0c1"/>
			<path d="m-377.17-448.98a23.326 23.326 0 0 0-0.13934-0.0383 38.38 38.38 0 0 1 5.9342 32.707 38.38 38.38 0 0 1-5.9355 12.349 23.326 23.326 0 0 0 16.445-16.341 23.326 23.326 0 0 0-16.304-28.678z" style="fill:#000000;opacity:.18"/>
			<path d="m-360.41-430.53a23.326 23.326 0 0 1 0.19843 1.3138 31.107 5.0824 0 0 1 7.9582 3.3862 31.107 5.0824 0 0 1-31.107 5.0822 31.107 5.0824 0 0 1-31.107-5.0822 31.107 5.0824 0 0 1 7.9709-3.3898 23.326 23.326 0 0 1 0.16515-1.301 42.885 7.0067 0 0 0-19.914 5.907 42.885 7.0067 0 0 0 42.885 7.0066 42.885 7.0067 0 0 0 42.885-7.0066 42.885 7.0067 0 0 0-19.934-5.9163z" style="fill:#f05945"/>
			<path d="m-360.32-429.95a23.326 23.326 0 0 1 0.11041 0.73092 31.107 5.0824 0 0 1 7.9582 3.3862 31.107 5.0824 0 0 1-31.107 5.0822 31.107 5.0824 0 0 1-31.107-5.0822 31.107 5.0824 0 0 1 7.971-3.3898 23.326 23.326 0 0 1 0.0874-0.71953 36.928 6.0335 0 0 0-13.879 4.7064 36.928 6.0335 0 0 0 36.928 6.0337 36.928 6.0335 0 0 0 36.928-6.0337 36.928 6.0335 0 0 0-13.889-4.7143z" style="fill:#a91307"/>
		</g>
	</g>
</svg>
