<?xml version="1.0" encoding="UTF-8" standalone="no"?>
<svg
   width="108"
   height="108"
   version="1.1"
   viewBox="0 0 28.575 28.575"
   id="svg44"
   sodipodi:docname="infinity.svg"
   inkscape:version="1.1.2 (1:1.1+202202050950+0a00cf5339)"
   xmlns:inkscape="http://www.inkscape.org/namespaces/inkscape"
   xmlns:sodipodi="http://sodipodi.sourceforge.net/DTD/sodipodi-0.dtd"
   xmlns="http://www.w3.org/2000/svg"
   xmlns:svg="http://www.w3.org/2000/svg">
  <defs
     id="defs48" />
  <sodipodi:namedview
     id="namedview46"
     pagecolor="#505050"
     bordercolor="#ffffff"
     borderopacity="1"
     inkscape:pageshadow="0"
     inkscape:pageopacity="0"
     inkscape:pagecheckerboard="1"
     showgrid="false"
     inkscape:zoom="8.0833333"
     inkscape:cx="53.938144"
     inkscape:cy="54.061856"
     inkscape:current-layer="g41" />
  <g
     id="background">
    <rect
       width="28.575001"
       height="28.575001"
       style="fill:#071935;stroke-width:0.34298;stroke-linecap:round;stroke-linejoin:round"
       id="rect2"
       x="0"
       y="0" />
    <g
       style="fill:#fcd372"
       id="g30">
      <circle
         cx="7.36447"
         cy="12.680122"
         r="0.23626913"
         style="fill:#fcd372;stroke-width:0.529;stroke-linecap:round"
         id="circle4" />
      <circle
         cx="13.964868"
         cy="9.0070953"
         r="0.23626913"
         style="fill:#fcd372;stroke-width:0.529;stroke-linecap:round"
         id="circle6" />
      <circle
         cx="11.581684"
         cy="19.279861"
         r="0.23626913"
         style="fill:#fcd372;stroke-width:0.529;stroke-linecap:round"
         id="circle8" />
      <path
         d="M 10.4076,7.85356 10.1941,8.02147 10.2307,8.2906 9.97852,8.18968 9.76372,8.35587 9.72504,8.08705 9.47371,7.98413 9.68718,7.81622 9.65065,7.54709 9.9028,7.64801 10.1176,7.48182 10.1563,7.75064 Z"
         style="fill:#fcd372;stroke-width:0.0830904;stroke-linecap:round"
         id="path10" />
      <circle
         cx="21.721695"
         cy="14.875373"
         r="0.23626913"
         style="fill:#fcd372;stroke-width:0.529;stroke-linecap:round"
         id="circle12" />
      <path
         d="M 18.9598,8.7575 18.8896,9.01366 18.7217,8.80779 18.491,8.93927 18.5179,8.67503 18.2617,8.60481 18.4676,8.43699 18.3361,8.2062 l 0.2642,0.0269 0.0703,-0.25615 0.1678,0.20587 0.2308,-0.13149 -0.0269,0.26425 0.2561,0.07022 -0.2059,0.16782 0.1315,0.23077 z"
         style="fill:#fcd372"
         id="path14" />
      <path
         d="m 18.4019,20.4848 -0.2196,-0.029 -0.1442,0.168 -0.1142,-0.1898 -0.2213,-0.008 0.0771,-0.2076 -0.1317,-0.178 0.2104,-0.0691 0.0571,-0.214 0.1852,0.1214 0.2029,-0.0888 0.0205,0.2205 0.1959,0.1033 -0.1595,0.1535 z"
         style="fill:#fcd372"
         id="path16" />
      <circle
         cx="12.868963"
         cy="21.973724"
         r="0.23626913"
         style="fill:#fcd372;stroke-width:0.529;stroke-linecap:round"
         id="circle18" />
      <circle
         cx="20.737869"
         cy="10.813628"
         r="0.23626913"
         style="fill:#fcd372;stroke-width:0.529;stroke-linecap:round"
         id="circle20" />
      <circle
         cx="9.9959669"
         cy="15.780999"
         r="0.23626913"
         style="fill:#fcd372;stroke-width:0.529;stroke-linecap:round"
         id="circle22" />
      <circle
         cx="19.302769"
         cy="17.46233"
         r="0.23626913"
         style="fill:#fcd372;stroke-width:0.529;stroke-linecap:round"
         id="circle24" />
      <circle
         cx="14.099632"
         cy="11.64338"
         r="0.23626913"
         style="fill:#fcd372;stroke-width:0.529;stroke-linecap:round"
         id="circle26" />
      <path
         d="M 7.99413,18.2867 7.78066,18.4547 7.8172,18.7238 7.56504,18.6229 7.35024,18.7891 7.31157,18.5202 7.06024,18.4173 7.27371,18.2494 7.23718,17.9803 7.48933,18.0812 7.70413,17.915 7.7428,18.1838 Z"
         style="fill:#fcd372;stroke-width:0.0830904;stroke-linecap:round"
         id="path28" />
    </g>
  </g>
  <g
     id="foreground">
    <g
       id="g41">
      <circle
         cx="14.283339"
         cy="14.25438"
         r="3.694711"
         style="fill:#06b0c1"
         id="circle33" />
      <path
         d="m 14.6555,10.5783 c -0.0076,-7e-4 -0.0152,-0.0015 -0.0228,-0.0023 1.318,1.2927 1.9771,3.1143 1.7916,4.951 -0.0734,0.7256 -0.2768,1.432 -0.6004,2.0856 1.1914,-0.5463 2.0043,-1.6829 2.1361,-2.9869 0.0986,-0.975 -0.1942,-1.9491 -0.8139,-2.7082 -0.6198,-0.7591 -1.5156,-1.2409 -2.4906,-1.3394 z"
         style="fill:#05909e"
         id="path35" />
      <path
         d="m 17.7608,13.0165 c 0.0238,0.066 0.0457,0.1327 0.0657,0.2 0.8229,0.0101 1.2973,0.1235 1.3324,0.3184 0.0741,0.4383 -2.0407,1.1619 -4.7237,1.6162 -2.6829,0.4543 -4.91805,0.4672 -4.99237,0.0289 -0.03133,-0.1958 0.38001,-0.4594 1.15517,-0.7402 -0.0048,-0.0691 -0.0077,-0.1383 -0.0086,-0.2075 -1.89985,0.5278 -3.01395,1.0744 -2.9538,1.449 0.10238,0.6044 3.1839,0.5866 6.8827,-0.0397 3.6989,-0.6263 6.6144,-1.6239 6.5122,-2.2283 -0.0643,-0.3746 -1.298,-0.5243 -3.2696,-0.3968 z"
         style="fill:#f05945"
         id="path37" />
      <path
         d="m 17.7902,13.1047 c 0.0127,0.0369 0.0249,0.074 0.0365,0.1113 0.8229,0.0101 1.2973,0.1235 1.3324,0.3184 0.0741,0.4383 -2.0407,1.1619 -4.7236,1.6162 -2.683,0.4543 -4.91811,0.4672 -4.99244,0.0289 -0.03132,-0.1958 0.38002,-0.4594 1.15524,-0.7402 -0.0024,-0.0382 -0.0042,-0.0764 -0.0054,-0.1147 -1.33768,0.4102 -2.08931,0.8156 -2.04306,1.102 0.04226,0.2499 0.69042,0.3867 1.80186,0.3803 1.1115,-0.0064 2.5952,-0.1555 4.1248,-0.4145 1.5296,-0.2589 2.9797,-0.6066 4.0313,-0.9664 1.0516,-0.3599 1.6186,-0.7024 1.5763,-0.9523 -0.0488,-0.2865 -0.893,-0.4223 -2.2938,-0.369 z"
         style="fill:#a91307"
         id="path39" />
    </g>
  </g>
</svg>
