<?xml version="1.0" encoding="UTF-8" standalone="no"?>
<svg
   xmlns:dc="http://purl.org/dc/elements/1.1/"
   xmlns:cc="http://creativecommons.org/ns#"
   xmlns:rdf="http://www.w3.org/1999/02/22-rdf-syntax-ns#"
   xmlns:svg="http://www.w3.org/2000/svg"
   xmlns="http://www.w3.org/2000/svg"
   xmlns:sodipodi="http://sodipodi.sourceforge.net/DTD/sodipodi-0.dtd"
   xmlns:inkscape="http://www.inkscape.org/namespaces/inkscape"
   viewBox="0 0 108 108"
   version="1.1"
   id="svg1162"
   sodipodi:docname="io.homeassistant.companion.android.svg"
   width="108"
   height="108"
   inkscape:version="0.92.5 (2060ec1f9f, 2020-04-08)">
  <metadata
     id="metadata1168">
    <rdf:RDF>
      <cc:Work
         rdf:about="">
        <dc:format>image/svg+xml</dc:format>
        <dc:type
           rdf:resource="http://purl.org/dc/dcmitype/StillImage" />
        <dc:title></dc:title>
      </cc:Work>
    </rdf:RDF>
  </metadata>
  <defs
     id="defs1166" />
  <sodipodi:namedview
     pagecolor="#ffffff"
     bordercolor="#666666"
     borderopacity="1"
     objecttolerance="10"
     gridtolerance="10"
     guidetolerance="10"
     inkscape:pageopacity="0"
     inkscape:pageshadow="2"
     inkscape:window-width="640"
     inkscape:window-height="480"
     id="namedview1164"
     showgrid="false"
     inkscape:zoom="6.6581174"
     inkscape:cx="79.623334"
     inkscape:cy="50.946369"
     inkscape:current-layer="svg1162" />
  <path
     d="M 0,0 H 108 V 108 H 0 Z"
     id="path1156"
     inkscape:connector-curvature="0"
     style="fill:#41bdf5;stroke:none;stroke-width:0.21600001"
     clip-path="none" />
  <g
     inkscape:groupmode="layer"
     id="layer3"
     inkscape:label="Background"
     style="display:inline" />
  <g
     inkscape:groupmode="layer"
     id="layer4"
     inkscape:label="Foreground"
     style="display:inline">
    <path
       d="M 36.096355,72.301971 V 56.760982 h -4.041364 a 1.0853178,1.0853178 0 0 1 -0.773898,-1.84619 L 53.027685,32.795961 c 0.525275,-0.534228 1.384179,-0.541554 1.918524,-0.01628 l 0.01395,0.01395 11.349843,11.48858 v -2.127726 a 0.90448964,0.90448964 0 0 1 0.90449,-0.904489 h 3.7689 a 0.90448964,0.90448964 0 0 1 0.904606,0.904489 v 7.807358 l 4.833868,4.95597 a 1.0853178,1.0853178 0 0 1 -0.777037,1.843168 H 71.887998 V 72.30197 a 0.90448964,0.90448964 0 0 1 -0.904489,0.90449 H 37.000845 a 0.90448964,0.90448964 0 0 1 -0.90449,-0.904489 z m 24.00107,-18.985212 a 1.7476954,1.7476954 0 0 0 0.169782,-0.754246 c 0,-0.966122 -0.780294,-1.749323 -1.743043,-1.749323 -0.962634,0 -1.743044,0.783201 -1.743044,1.749323 0,0.966123 0.78041,1.74944 1.74316,1.74944 0.26909,0 0.523878,-0.06128 0.751454,-0.170594 l 2.502289,2.511359 v 2.432517 l -3.137571,3.148853 V 59.92693 a 1.7496722,1.7496722 0 0 0 1.162067,-1.649781 c 0,-0.966123 -0.780409,-1.74944 -1.74316,-1.74944 -0.962633,0 -1.743159,0.783317 -1.743159,1.74944 0,0.761688 0.485154,1.409646 1.162184,1.649781 v 3.473295 l -2.905228,2.915694 V 49.18876 l 2.386117,-2.394607 a 1.7310662,1.7310662 0 0 0 0.751455,0.170479 c 0.962749,0 1.743159,-0.783201 1.743159,-1.749439 0,-0.966123 -0.78041,-1.749324 -1.743159,-1.749324 -0.962634,0 -1.743044,0.783201 -1.743044,1.749324 0,0.270137 0.06093,0.525855 0.16978,0.754245 l -2.145284,2.153075 -2.145401,-2.153075 a 1.7476954,1.7476954 0 0 0 0.169781,-0.754245 c 0,-0.966123 -0.780294,-1.749324 -1.743044,-1.749324 -0.962634,0 -1.743044,0.783201 -1.743044,1.749324 0,0.966238 0.78041,1.749439 1.74316,1.749439 0.26909,0 0.523878,-0.06128 0.751454,-0.170479 l 2.386002,2.394607 v 12.228869 l -4.183352,-4.19847 V 53.8625 a 1.7496722,1.7496722 0 0 0 1.162068,-1.649781 c 0,-0.96624 -0.78041,-1.74944 -1.74316,-1.74944 -0.962634,0 -1.74316,0.7832 -1.74316,1.74944 0,0.761688 0.485153,1.409646 1.162184,1.649781 v 2.19052 l -3.253743,-3.265488 v -3.240139 a 1.7496722,1.7496722 0 0 0 1.162068,-1.649781 c 0,-0.966122 -0.780411,-1.74944 -1.743161,-1.74944 -0.962633,0 -1.743161,0.783318 -1.743161,1.74944 0,0.761688 0.485156,1.409646 1.162185,1.649781 v 3.723199 l 3.594119,3.607028 h -2.066441 c -0.23932,-0.679472 -0.884952,-1.166255 -1.643965,-1.166255 -0.962636,0 -1.743162,0.783202 -1.743162,1.749324 0,0.966239 0.780526,1.74944 1.743162,1.74944 0.759013,0 1.404761,-0.486783 1.643965,-1.166371 h 3.22851 l 5.005044,5.023186 v 8.730221 L 50.738437,69.11486 v -3.356775 a 1.7496722,1.7496722 0 0 0 1.162067,-1.649781 c 0,-0.966122 -0.78041,-1.749322 -1.743161,-1.749322 -0.962632,0 -1.743159,0.7832 -1.743159,1.749322 0,0.761688 0.485154,1.409646 1.162184,1.649781 v 2.190521 l -3.888561,-3.9024 a 1.7476954,1.7476954 0 0 0 0.169897,-0.754245 c 0,-0.966122 -0.780293,-1.749323 -1.74316,-1.749323 -0.962634,0 -1.743045,0.783201 -1.743045,1.749323 0,0.966122 0.780411,1.749324 1.743162,1.749324 0.26909,0 0.523994,-0.06117 0.751454,-0.170478 l 3.88856,3.902515 h -2.066441 c -0.239321,-0.679472 -0.884953,-1.16637 -1.643966,-1.16637 -0.962634,0 -1.74316,0.783316 -1.74316,1.74944 0,0.966122 0.780526,1.749322 1.74316,1.749322 0.759013,0 1.404645,-0.486782 1.643966,-1.166254 h 3.22851 l 3.253743,3.26549 h 1.643385 l 3.370032,-3.382011 h 3.112221 c 0.239321,0.679356 0.884953,1.166139 1.643966,1.166139 0.962634,0 1.74316,-0.783202 1.74316,-1.749324 0,-0.966122 -0.780526,-1.749324 -1.74316,-1.749324 -0.759013,0 -1.404645,0.486783 -1.643966,1.166255 h -3.593538 l -3.129315,3.14048 v -3.831813 l 3.726921,-3.740294 h 6.017448 c 0.239321,0.679472 0.884954,1.166254 1.64385,1.166254 0.96275,0 1.74316,-0.7832 1.74316,-1.749324 0,-0.966238 -0.78041,-1.749438 -1.74316,-1.749438 -0.758896,0 -1.404529,0.486782 -1.64385,1.16637 h -4.855614 l 3.477947,-3.490507 v -2.915578 l 2.502174,-2.51136 a 1.7310662,1.7310662 0 0 0 0.751571,0.170595 c 0.962634,0 1.743159,-0.783318 1.743159,-1.74944 0,-0.966122 -0.780525,-1.749324 -1.743159,-1.749324 -0.962634,0 -1.74316,0.783202 -1.74316,1.749324 0,0.270137 0.06105,0.525855 0.169897,0.754245 l -1.680482,1.686644 v -5.339606 a 1.7496722,1.7496722 0 0 0 1.162069,-1.64978 c 0,-0.966239 -0.78041,-1.749439 -1.743161,-1.749439 -0.962634,0 -1.743159,0.7832 -1.743159,1.749439 0,0.761687 0.485153,1.409645 1.162184,1.64978 v 5.339373 L 60.097309,53.316642 Z M 45.044268,70.056097 c -0.38503,0 -0.697264,-0.31328 -0.697264,-0.699705 0,-0.386427 0.312234,-0.699707 0.697264,-0.699707 0.385147,0 0.697265,0.31328 0.697265,0.699707 0,0.386425 -0.312118,0.699705 -0.697265,0.699705 z m 5.113192,-5.248086 c -0.385147,0 -0.69738,-0.313281 -0.69738,-0.699707 0,-0.386425 0.312233,-0.699705 0.697263,-0.699705 0.385148,0 0.697265,0.31328 0.697265,0.699705 0,0.386426 -0.312117,0.699707 -0.697265,0.699707 z m -6.042799,-0.816343 c -0.385147,0 -0.697265,-0.31328 -0.697265,-0.699707 0,-0.386425 0.312118,-0.699706 0.697265,-0.699706 0.38503,0 0.697264,0.313281 0.697264,0.699706 0,0.386427 -0.312234,0.699707 -0.697264,0.699707 z m -0.581092,-5.831156 c -0.38503,0 -0.697148,-0.313281 -0.697148,-0.699823 0,-0.386425 0.312118,-0.699707 0.697148,-0.699707 0.385146,0 0.697263,0.313282 0.697263,0.699707 0,0.386542 -0.312117,0.699823 -0.697263,0.699823 z m 14.52579,0.816343 c -0.38503,0 -0.697147,-0.313281 -0.697147,-0.699706 0,-0.386542 0.312117,-0.699822 0.697147,-0.699822 0.385147,0 0.697265,0.31328 0.697265,0.699822 0,0.386425 -0.312118,0.699706 -0.697265,0.699706 z m 7.902016,5.364723 c -0.384914,0 -0.697148,-0.31328 -0.697148,-0.699706 0,-0.386541 0.312118,-0.699822 0.697148,-0.699822 0.385146,0 0.697264,0.313281 0.697264,0.699822 0,0.386426 -0.312118,0.699706 -0.697264,0.699706 z m -3.021284,5.597882 c -0.385147,0 -0.697265,-0.31328 -0.697265,-0.699706 0,-0.386425 0.312118,-0.699707 0.697265,-0.699707 0.38503,0 0.697264,0.313282 0.697264,0.699707 0,0.386426 -0.312234,0.699706 -0.697264,0.699706 z m 3.253744,-16.677124 c -0.38503,0 -0.697264,-0.313396 -0.697264,-0.699823 0,-0.386425 0.312234,-0.699706 0.697264,-0.699706 0.38503,0 0.697264,0.313281 0.697264,0.699706 0,0.386427 -0.312234,0.699823 -0.697264,0.699823 z m -3.834836,-4.548381 c -0.38503,0 -0.697265,-0.31328 -0.697265,-0.699706 0,-0.386542 0.312235,-0.699822 0.697265,-0.699822 0.385146,0 0.697264,0.31328 0.697264,0.699822 0,0.386426 -0.312118,0.699706 -0.697264,0.699706 z m -4.648271,-2.799057 c -0.385031,0 -0.697148,-0.313164 -0.697148,-0.699705 0,-0.386426 0.312117,-0.699707 0.697148,-0.699707 0.385147,0 0.697263,0.313281 0.697263,0.699707 0,0.386541 -0.312116,0.699821 -0.697263,0.699821 z m -7.437212,0 c -0.384914,0 -0.697148,-0.313164 -0.697148,-0.699705 0,-0.386426 0.312118,-0.699707 0.697148,-0.699707 0.385146,0 0.697264,0.313281 0.697264,0.699707 0,0.386541 -0.312118,0.699821 -0.697264,0.699821 z m -6.042684,2.682421 c -0.38503,0 -0.697263,-0.313282 -0.697263,-0.699707 0,-0.386542 0.312233,-0.699822 0.697263,-0.699822 0.385031,0 0.697264,0.31328 0.697264,0.699822 0,0.386425 -0.312233,0.699707 -0.697264,0.699707 z m 4.415812,4.315105 c -0.385031,0 -0.697148,-0.31328 -0.697148,-0.699705 0,-0.386543 0.312117,-0.699823 0.697148,-0.699823 0.385146,0 0.697264,0.31328 0.697264,0.699823 0,0.386425 -0.312118,0.699705 -0.697264,0.699705 z m 9.87752,0.349912 c -0.384914,0 -0.697148,-0.313396 -0.697148,-0.699823 0,-0.386425 0.312118,-0.699706 0.697148,-0.699706 0.385146,0 0.697264,0.313281 0.697264,0.699706 0,0.386427 -0.312118,0.699823 -0.697264,0.699823 z"
       id="path1158"
       inkscape:connector-curvature="0"
       style="fill:#ffffff;stroke:none;stroke-width:0.11628821"
       inkscape:label="house" />
  </g>
</svg>
