<?xml version="1.0" encoding="UTF-8" standalone="no"?>
<svg
   xmlns:dc="http://purl.org/dc/elements/1.1/"
   xmlns:cc="http://creativecommons.org/ns#"
   xmlns:rdf="http://www.w3.org/1999/02/22-rdf-syntax-ns#"
   xmlns:svg="http://www.w3.org/2000/svg"
   xmlns="http://www.w3.org/2000/svg"
   xmlns:sodipodi="http://sodipodi.sourceforge.net/DTD/sodipodi-0.dtd"
   xmlns:inkscape="http://www.inkscape.org/namespaces/inkscape"
   width="907.52484mm"
   height="907.52484mm"
   viewBox="0 0 907.52483 907.52485"
   version="1.1"
   id="svg8"
   inkscape:version="1.0.1 (0767f8302a, 2020-10-17)"
   sodipodi:docname="kde_connect.svg"
   inkscape:export-filename="/home/reese/Pictures/icons/png/kde_connect.png"
   inkscape:export-xdpi="28.659931"
   inkscape:export-ydpi="28.659931">
  <defs
     id="defs2">
    <filter
       style="color-interpolation-filters:sRGB"
       inkscape:label="Drop Shadow"
       id="filter4754">
      <feFlood
         flood-opacity="0.2"
         flood-color="rgb(0,0,0)"
         result="flood"
         id="feFlood4744" />
      <feComposite
         in="flood"
         in2="SourceGraphic"
         operator="in"
         result="composite1"
         id="feComposite4746" />
      <feGaussianBlur
         in="composite1"
         stdDeviation="20"
         result="blur"
         id="feGaussianBlur4748" />
      <feOffset
         dx="0"
         dy="10"
         result="offset"
         id="feOffset4750" />
      <feComposite
         in="SourceGraphic"
         in2="offset"
         operator="over"
         result="composite2"
         id="feComposite4752" />
    </filter>
    <filter
       style="color-interpolation-filters:sRGB;"
       inkscape:label="Drop Shadow"
       id="filter1405">
      <feFlood
         flood-opacity="0.0784314"
         flood-color="rgb(0,0,0)"
         result="flood"
         id="feFlood1395" />
      <feComposite
         in="flood"
         in2="SourceGraphic"
         operator="in"
         result="composite1"
         id="feComposite1397" />
      <feGaussianBlur
         in="composite1"
         stdDeviation="20"
         result="blur"
         id="feGaussianBlur1399" />
      <feOffset
         dx="0"
         dy="10"
         result="offset"
         id="feOffset1401" />
      <feComposite
         in="SourceGraphic"
         in2="offset"
         operator="over"
         result="composite2"
         id="feComposite1403" />
    </filter>
    <clipPath
       clipPathUnits="userSpaceOnUse"
       id="clipPath3581">
      <rect
         style="display:inline;fill:#4797e4;fill-opacity:0.960784;stroke:none;stroke-width:3.08692;stroke-linecap:round;stroke-linejoin:miter;stroke-miterlimit:3;stroke-dasharray:none;stroke-dashoffset:0;stroke-opacity:1"
         id="rect3583"
         width="39.101017"
         height="26.753328"
         x="66.800629"
         y="1025.3973"
         rx="3.0869224"
         ry="3.0869224" />
    </clipPath>
    <filter
       style="color-interpolation-filters:sRGB;"
       inkscape:label="Drop Shadow"
       id="filter4139">
      <feFlood
         flood-opacity="0.196078"
         flood-color="rgb(0,0,0)"
         result="flood"
         id="feFlood4129" />
      <feComposite
         in="flood"
         in2="SourceGraphic"
         operator="in"
         result="composite1"
         id="feComposite4131" />
      <feGaussianBlur
         in="composite1"
         stdDeviation="20"
         result="blur"
         id="feGaussianBlur4133" />
      <feOffset
         dx="0"
         dy="6"
         result="offset"
         id="feOffset4135" />
      <feComposite
         in="SourceGraphic"
         in2="offset"
         operator="over"
         result="composite2"
         id="feComposite4137" />
    </filter>
    <clipPath
       clipPathUnits="userSpaceOnUse"
       id="clipPath4143">
      <circle
         style="fill:#f2f2f2;fill-opacity:1;stroke:none;stroke-width:0.272521"
         id="circle4145"
         cx="4.3490291"
         cy="-39.6483"
         r="389.4794"
         clip-path="none"
         inkscape:label="plate" />
    </clipPath>
    <clipPath
       clipPathUnits="userSpaceOnUse"
       id="clipPath4229">
      <circle
         style="fill:#01346b;fill-opacity:1;stroke:none;stroke-width:0.111183"
         id="circle4231"
         cx="576.35345"
         cy="682.57422"
         r="158.90031"
         clip-path="none"
         inkscape:label="plate"
         transform="rotate(-56.853029)" />
    </clipPath>
  </defs>
  <sodipodi:namedview
     id="base"
     pagecolor="#ffffff"
     bordercolor="#666666"
     borderopacity="1.0"
     inkscape:pageopacity="0.0"
     inkscape:pageshadow="2"
     inkscape:zoom="0.22627417"
     inkscape:cx="2123.8219"
     inkscape:cy="1815.414"
     inkscape:document-units="mm"
     inkscape:current-layer="layer1"
     showgrid="false"
     fit-margin-top="0"
     fit-margin-left="0"
     fit-margin-right="0"
     fit-margin-bottom="0"
     inkscape:window-width="1892"
     inkscape:window-height="1000"
     inkscape:window-x="14"
     inkscape:window-y="66"
     inkscape:window-maximized="1"
     inkscape:snap-global="true"
     inkscape:snap-bbox="true"
     inkscape:bbox-paths="true"
     inkscape:bbox-nodes="true"
     inkscape:snap-bbox-edge-midpoints="true"
     inkscape:snap-bbox-midpoints="true"
     inkscape:snap-nodes="true"
     inkscape:snap-text-baseline="true"
     inkscape:snap-page="true"
     inkscape:snap-to-guides="true"
     inkscape:document-rotation="0" />
  <metadata
     id="metadata5">
    <rdf:RDF>
      <cc:Work
         rdf:about="">
        <dc:format>image/svg+xml</dc:format>
        <dc:type
           rdf:resource="http://purl.org/dc/dcmitype/StillImage" />
        <dc:title></dc:title>
      </cc:Work>
    </rdf:RDF>
  </metadata>
  <g
     inkscape:label="Layer 1"
     inkscape:groupmode="layer"
     id="layer1"
     transform="translate(449.41339,493.41072)">
    <circle
       style="fill:#2d2d2d;fill-opacity:1;stroke:none;stroke-width:0.264583;filter:url(#filter4754)"
       id="path4586"
       cx="4.3490262"
       cy="-39.648304"
       r="378.13535"
       transform="matrix(1.03,0,0,1.03,-0.13047101,1.1894489)"
       clip-path="none"
       inkscape:label="plate" />
    <path
       d="m 26.175619,-278.88838 -85.328656,8.16853 V 80.63816 L 25.273522,67.927316 V -81.875452 L 138.75875,84.275687 227.72654,56.125047 111.52046,-103.66393 228.63675,-254.37526 137.85611,-275.24708 25.27514,-124.54167 Z m -193.419099,85.62001 c -0.96576,0.10783 -1.89376,0.53953 -2.61674,1.25171 l -33.48985,33.48392 c -1.40817,1.41357 -1.67254,3.60408 -0.63664,5.31439 l 39.20943,64.5777 c -6.95457,11.691669 -12.52795,24.297303 -16.51185,37.594616 l -71.98278,14.9731 c -2.00167,0.431627 -3.44761,2.190501 -3.44761,4.246119 v 47.354754 c 0,2.001664 1.37042,3.738958 3.30194,4.202957 l 69.86728,17.077816 c 3.72816,15.400949 9.499,30.000694 17.12961,43.419943 l -40.44066,61.668005 c -1.12762,1.72111 -0.89022,3.99254 0.56652,5.4455 l 33.47798,33.48392 c 1.40818,1.40278 3.60407,1.67794 5.32518,0.64744 l 63.37131,-38.48755 c 12.448091,7.1828 25.872196,12.83603 40.060277,16.6694 l 14.785883,71.09041 c 0.431627,2.01785 2.195897,3.44761 4.240724,3.44761 H 2.3272112 c 1.9908754,0 3.7281679,-1.35963 4.2029578,-3.31274 l 17.415564,-71.2377 c 14.625641,-3.94937 28.458171,-9.83028 41.210558,-17.34003 l 62.449789,40.94727 c 1.71571,1.13302 3.98715,0.90642 5.44549,-0.55031 l 33.48986,-33.48339 c 1.41896,-1.41897 1.67256,-3.60408 0.63125,-5.31438 l -22.79794,-37.57142 -7.37541,2.33078 c -1.07367,0.32372 -2.24985,-0.054 -2.88108,-0.99814 0,0 -14.54148,-21.286163 -33.321,-48.77318 -22.451014,43.9379 -68.125661,74.03625 -120.870881,74.03625 -74.938342,0 -135.692379,-60.756201 -135.692379,-135.6977797 0,-55.1294123 32.88288,-102.5418903 80.087099,-123.7805903 v -35.00701 c -8.591513,3.0052 -16.897073,6.62924 -24.785039,10.92607 -0.006,-0.005 -0.0119,-0.0199 -0.0346,-0.04 l -63.91892,-41.92274 c -0.86327,-0.5611 -1.856,-0.78772 -2.82176,-0.69058 z"
       fill="#31363b"
       id="path4337"
       style="fill:#f3f3f3;fill-opacity:1;stroke-width:14.2751" />
  </g>
</svg>
