<?xml version="1.0" encoding="UTF-8"?>
<svg width="28.575mm" height="28.575mm" version="1.1" viewBox="0 0 101.25 101.25" xmlns="http://www.w3.org/2000/svg">
	<g id="background">
		<rect width="101.25" height="101.25" style="fill:#ffffff;stroke-linecap:round;stroke-width:73.794"/>
	</g>
	<g id="foreground">
		<path transform="scale(.9375)" d="m53.922 29.02c-6.75 0.055186-13.243 0.78566-17.027 2.5234 0 0-7.5039 3.357-7.5039 14.811 0 2.6227-0.051811 5.7583 0.03125 9.084 0.27252 11.201 2.054 22.241 12.41 24.982 4.775 1.2639 8.876 1.5272 12.178 1.3457 5.9876-0.33197 9.3477-2.1367 9.3477-2.1367l-0.19727-4.3438s-4.2786 1.35-9.084 1.1855c-4.761-0.16328-9.7866-0.51396-10.557-6.3594-0.071121-0.51346-0.10742-1.0621-0.10742-1.6387 0 0 4.6746 1.1427 10.598 1.4141 3.6218 0.16613 7.0171-0.21338 10.467-0.625 6.6155-0.78995 12.376-4.8654 13.1-8.5898 1.1407-5.867 1.0469-14.318 1.0469-14.318 0-11.454-7.5039-14.811-7.5039-14.811-3.7836-1.7378-10.281-2.4682-17.031-2.5234h-0.16602zm-7.6387 8.9492c2.8116 0 4.9399 1.0806 6.3477 3.2422l1.3691 2.2949 1.3691-2.2949c1.4075-2.1616 3.5357-3.2422 6.3477-3.2422 2.4299 0 4.3877 0.85511 5.8828 2.5215 1.4493 1.6664 2.1719 3.9176 2.1719 6.752v13.869h-5.4941v-13.461c0-2.8375-1.194-4.2773-3.582-4.2773-2.6404 0-3.9648 1.7077-3.9648 5.0859v7.3672h-5.4609v-7.3672c0-3.3783-1.3245-5.0859-3.9648-5.0859-2.3881 0-3.582 1.4398-3.582 4.2773v13.461h-5.4941v-13.869c0-2.8344 0.72226-5.0856 2.1719-6.752 1.4948-1.6664 3.4527-2.5215 5.8828-2.5215z" style="fill:#2b90d9;stroke-width:.22757"/>
	</g>
</svg>
