<?xml version="1.0" encoding="UTF-8" standalone="no"?>
<svg
   style="fill:none"
   version="1.1"
   viewBox="0 0 108 108"
   id="svg8"
   sodipodi:docname="mealie.svg"
   inkscape:version="1.1.2 (1:1.1+202202050950+0a00cf5339)"
   xmlns:inkscape="http://www.inkscape.org/namespaces/inkscape"
   xmlns:sodipodi="http://sodipodi.sourceforge.net/DTD/sodipodi-0.dtd"
   xmlns="http://www.w3.org/2000/svg"
   xmlns:svg="http://www.w3.org/2000/svg">
  <defs
     id="defs12" />
  <sodipodi:namedview
     id="namedview10"
     pagecolor="#505050"
     bordercolor="#ffffff"
     borderopacity="1"
     inkscape:pageshadow="0"
     inkscape:pageopacity="0"
     inkscape:pagecheckerboard="1"
     showgrid="false"
     inkscape:zoom="11.43156"
     inkscape:cx="54.410773"
     inkscape:cy="55.023113"
     inkscape:current-layer="foreground" />
  <g
     id="background">
    <rect
       width="108"
       height="108"
       style="fill:#e58325"
       id="rect2" />
  </g>
  <g
     id="foreground">
    <path
       d="m 33.878446,33.310531 c -0.753243,0.802064 -1.325151,1.792407 -1.771555,3.068776 -0.139488,0.397545 -0.244102,0.725342 -0.237129,0.725342 0.007,0 -0.02092,0.153434 -0.06277,0.348725 -0.292922,1.262404 -0.320823,2.789761 -0.07672,3.961488 0.502159,2.392235 1.241456,3.438371 5.447046,7.685856 1.387898,1.408846 7.099993,7.113958 7.351077,7.35806 0.04185,0.03487 6.793144,-6.70945 6.793144,-6.786162 0,-0.06277 -11.884654,-11.946828 -14.855579,-14.855579 -1.088031,-1.060102 -2.029526,-1.931962 -2.085386,-1.931962 -0.06277,0 -0.285949,0.188309 -0.502159,0.425437 z m 31.099056,0.007 c -4.617081,4.721723 -6.667554,6.848909 -7.832298,8.14613 -0.223183,0.251084 -0.43242,0.467284 -0.453339,0.488213 -0.02092,0.02092 -0.21621,0.244101 -0.432419,0.495186 -0.885759,1.053119 -1.095015,2.727014 -0.537034,4.184641 0.181336,0.474258 0.81601,1.625018 0.955498,1.736643 0.0279,0.02092 0.174362,0.174362 0.327796,0.334769 l 0.278976,0.292922 -23.413486,23.413487 1.701729,1.715695 1.694747,1.722677 16.731298,-16.731298 8.313519,8.313519 c 4.575281,4.568298 8.348432,8.320501 8.383249,8.334467 0.06975,0.02093 3.298912,-3.201253 3.347694,-3.333825 0.01395,-0.03487 -3.724368,-3.815046 -8.306536,-8.397214 L 57.409412,55.699059 58.69965,54.42269 c 1.743624,-1.72966 1.827319,-1.799389 2.064438,-1.799389 0.07672,0 0.28595,0.132515 0.460312,0.299904 0.969424,0.913651 2.30854,1.387899 3.752299,1.325151 1.115866,-0.04185 1.904031,-0.439392 3.312877,-1.645965 0.920623,-0.79509 1.387898,-1.248438 5.89345,-5.733042 l 4.477621,-4.463656 -1.122849,-1.136814 c -0.613755,-0.627701 -1.129831,-1.129832 -1.143796,-1.115866 -0.02093,0.007 -1.785424,1.771554 -3.933558,3.912705 l -3.905723,3.898741 -1.115866,-1.101997 c -0.620728,-0.606773 -1.122849,-1.129831 -1.122849,-1.150779 0,-0.0279 1.750607,-1.806372 3.898741,-3.954505 l 3.891758,-3.905723 -1.10898,-1.122849 c -0.606772,-0.620728 -1.122848,-1.122849 -1.143796,-1.122849 -0.02092,0 -1.799389,1.75759 -3.947523,3.898741 l -3.905723,3.905723 -2.287593,-2.259758 3.905724,-3.905723 c 2.148133,-2.148134 3.905723,-3.926576 3.905723,-3.947523 0,-0.03488 -1.353081,-1.408846 -2.036509,-2.071421 l -0.237129,-0.223193 z"
       style="fill:#ffffff;stroke-width:0.0069745"
       id="path5" />
  </g>
</svg>
