<?xml version="1.0" encoding="UTF-8"?>
<svg version="1.1" viewBox="0 0 108 108" xmlns="http://www.w3.org/2000/svg" xmlns:xlink="http://www.w3.org/1999/xlink">
	<defs>
		<radialGradient id="radialGradient1303" cx="0" cy="800" r="54" gradientTransform="matrix(2 -2 2 2 -1600 -800)" gradientUnits="userSpaceOnUse">
			<stop style="stop-color:#09f" offset="0"/>
			<stop style="stop-color:#0099ff" offset=".173"/>
			<stop style="stop-color:#a033ff" offset=".46816"/>
			<stop style="stop-color:#ff5280" offset=".68639"/>
			<stop style="stop-color:#ff7061" offset=".75931"/>
			<stop style="stop-color:#ff7061" offset="1"/>
		</radialGradient>
	</defs>
	<script/>
	<g id="background">
		<rect transform="translate(0,-692)" y="692" width="108" height="108" style="fill:url(#radialGradient1303)"/>
	</g>
	<g id="foreground">
		<path d="m34.645 62.177 9.4668-15.018c0.72-1.1431 1.8855-1.9328 3.2141-2.1777 1.3285-0.2449 2.699 0.0773 3.7792 0.8886l7.5332 5.6479c0.691 0.5173 1.6411 0.514 2.3285-8e-3l10.168-7.7185c1.3536-1.0313 3.1261 0.5962 2.2237 2.0384l-9.4749 15.01c-0.72 1.1431-1.8854 1.9328-3.214 2.1777s-2.6991-0.0773-3.7793-0.8886l-7.5332-5.6479c-0.6909-0.5173-1.6411-0.514-2.3284 8e-3l-10.168 7.7185c-1.3535 1.0313-3.1261-0.5881-2.2156-2.0303z" style="fill:#ffffff;stroke-width:.080569"/>
	</g>
</svg>
