<?xml version="1.0" encoding="UTF-8"?>
<svg width="108" height="108" version="1.1" viewBox="0 0 28.575 28.575" xmlns="http://www.w3.org/2000/svg" xmlns:xlink="http://www.w3.org/1999/xlink">
	<defs>
		<radialGradient id="radialGradient1303" cx="0" cy="800" r="54" gradientTransform="matrix(.52917 -.52917 .52917 .52917 -332.5 -260.72)" gradientUnits="userSpaceOnUse">
			<stop style="stop-color:#09f" offset="0"/>
			<stop style="stop-color:#0099ff" offset=".28648"/>
			<stop style="stop-color:#a033ff" offset=".48986"/>
			<stop style="stop-color:#ff5280" offset=".64022"/>
			<stop style="stop-color:#ff7061" offset=".71314"/>
			<stop style="stop-color:#ff7061" offset="1"/>
		</radialGradient>
	</defs>
	<g id="background" transform="translate(-90.836 -134.04)">
		<rect x="90.836" y="134.04" width="28.575" height="28.575" style="fill:url(#radialGradient1303)"/>
	</g>
	<g id="foreground" transform="translate(-90.836 -134.04)">
		<path d="m90.836 134.04v28.575h28.575v-28.575zm19.029 11.502c0.30138-0.0289 0.57485 0.3137 0.38086 0.62373l-2.5073 3.9713a1.279 1.279 0 0 1-1.85 0.34106l-1.9932-1.4945a0.51161 0.51161 0 0 0-0.61598 2e-3l-2.6903 2.0423c-0.35812 0.27285-0.82741-0.15535-0.58652-0.53692l2.5048-3.9734a1.279 1.279 0 0 1 1.8505-0.34158l1.9932 1.4945a0.51161 0.51161 0 0 0 0.61598-2e-3l2.6903-2.0423c0.0671-0.0512 0.13819-0.0776 0.20773-0.0842z" style="fill:#ffffff"/>
	</g>
</svg>
