<?xml version="1.0" encoding="UTF-8" standalone="no"?>
<svg
   xmlns:dc="http://purl.org/dc/elements/1.1/"
   xmlns:cc="http://creativecommons.org/ns#"
   xmlns:rdf="http://www.w3.org/1999/02/22-rdf-syntax-ns#"
   xmlns:svg="http://www.w3.org/2000/svg"
   xmlns="http://www.w3.org/2000/svg"
   xmlns:sodipodi="http://sodipodi.sourceforge.net/DTD/sodipodi-0.dtd"
   xmlns:inkscape="http://www.inkscape.org/namespaces/inkscape"
   width="512"
   height="512"
   viewBox="0 0 135.46667 135.46667"
   version="1.1"
   id="svg8"
   inkscape:version="1.0.2 (394de47547, 2021-03-26)"
   sodipodi:docname="ml.docilealligator.infinityforreddit.svg"
   inkscape:export-filename="/home/reese/Pictures/icons/png/ml.docilealligator.infinityforreddit.png"
   inkscape:export-xdpi="28.659931"
   inkscape:export-ydpi="28.659931">
  <defs
     id="defs2">
    <clipPath
       clipPathUnits="userSpaceOnUse"
       id="clipPath946">
      <circle
         style="display:inline;fill:#06b0c1;fill-opacity:1;stroke:none;stroke-width:0.574686;stroke-linecap:round;stroke-miterlimit:4;stroke-dasharray:none;stroke-opacity:1"
         id="circle948"
         cy="217.2594"
         cx="356.6033"
         r="7.5"
         inkscape:label="body"
         transform="rotate(13.197607)" />
    </clipPath>
    <clipPath
       clipPathUnits="userSpaceOnUse"
       id="clipPath950">
      <circle
         style="display:inline;fill:#06b0c1;fill-opacity:1;stroke:none;stroke-width:0.574686;stroke-linecap:round;stroke-miterlimit:4;stroke-dasharray:none;stroke-opacity:1"
         id="circle952"
         cy="217.2594"
         cx="356.6033"
         r="7.5"
         inkscape:label="body"
         transform="rotate(13.197607)" />
    </clipPath>
    <clipPath
       clipPathUnits="userSpaceOnUse"
       id="clipPath954">
      <circle
         style="display:inline;fill:#06b0c1;fill-opacity:1;stroke:none;stroke-width:0.574686;stroke-linecap:round;stroke-miterlimit:4;stroke-dasharray:none;stroke-opacity:1"
         id="circle956"
         cy="217.2594"
         cx="356.6033"
         r="7.5"
         inkscape:label="body"
         transform="rotate(13.197607)" />
    </clipPath>
    <clipPath
       clipPathUnits="userSpaceOnUse"
       id="clipPath958">
      <circle
         style="display:inline;fill:#06b0c1;fill-opacity:1;stroke:none;stroke-width:0.574686;stroke-linecap:round;stroke-miterlimit:4;stroke-dasharray:none;stroke-opacity:1"
         id="circle960"
         cy="217.2594"
         cx="356.6033"
         r="7.5"
         inkscape:label="body"
         transform="rotate(13.197607)" />
    </clipPath>
  </defs>
  <sodipodi:namedview
     id="base"
     pagecolor="#ffffff"
     bordercolor="#666666"
     borderopacity="1.0"
     inkscape:pageopacity="0.0"
     inkscape:pageshadow="2"
     inkscape:zoom="1.28"
     inkscape:cx="223.74093"
     inkscape:cy="279.44243"
     inkscape:document-units="mm"
     inkscape:current-layer="layer1"
     showgrid="false"
     fit-margin-top="0"
     fit-margin-left="0"
     fit-margin-right="0"
     fit-margin-bottom="0"
     inkscape:window-width="1892"
     inkscape:window-height="1000"
     inkscape:window-x="14"
     inkscape:window-y="66"
     inkscape:window-maximized="1"
     inkscape:snap-global="true"
     inkscape:snap-bbox="true"
     inkscape:bbox-paths="false"
     inkscape:bbox-nodes="true"
     inkscape:snap-bbox-edge-midpoints="true"
     inkscape:snap-bbox-midpoints="true"
     inkscape:snap-nodes="true"
     inkscape:snap-text-baseline="true"
     inkscape:snap-page="true"
     inkscape:snap-to-guides="true"
     inkscape:document-rotation="0"
     inkscape:object-nodes="false"
     units="px" />
  <metadata
     id="metadata5">
    <rdf:RDF>
      <cc:Work
         rdf:about="">
        <dc:format>image/svg+xml</dc:format>
        <dc:type
           rdf:resource="http://purl.org/dc/dcmitype/StillImage" />
        <dc:title></dc:title>
      </cc:Work>
    </rdf:RDF>
  </metadata>
  <g
     inkscape:label="Layer 1"
     id="layer1"
     transform="translate(449.41339,493.41072)">
    <rect
       style="fill:#071935;fill-opacity:1;stroke-width:1.626;stroke-linecap:round;stroke-linejoin:round"
       id="rect16503"
       width="135.46667"
       height="135.46666"
       x="-449.41339"
       y="-493.41071"
       inkscape:label="bg" />
    <g
       id="g981"
       inkscape:label="planet"
       transform="matrix(3.1101401,0,0,3.1101401,-1492.8277,-1101.5524)"
       style="opacity:1">
      <g
         id="g891"
         inkscape:label="planet"
         style="display:inline">
        <circle
           style="display:inline;fill:#06b0c1;fill-opacity:1;stroke:none;stroke-width:0.574686;stroke-linecap:round;stroke-miterlimit:4;stroke-dasharray:none;stroke-opacity:1"
           id="circle876"
           cy="217.25941"
           cx="356.60333"
           r="7.5"
           inkscape:label="body" />
        <rect
           style="display:inline;fill:#3692bf;fill-opacity:1;stroke-width:0.541669;stroke-linecap:round"
           id="rect915"
           width="17.890108"
           height="1.8170083"
           x="289.08633"
           y="298.42719"
           transform="rotate(-13.197607)"
           clip-path="url(#clipPath958)" />
        <rect
           style="display:inline;fill:#289fb2;fill-opacity:1;stroke-width:0.541669;stroke-linecap:round"
           id="rect913"
           width="17.890108"
           height="1.8170083"
           x="289.00934"
           y="294.50122"
           transform="rotate(-13.197607)"
           clip-path="url(#clipPath954)" />
        <rect
           style="display:inline;fill:#0c8288;fill-opacity:1;stroke-width:0.541669;stroke-linecap:round"
           id="rect911"
           width="17.890108"
           height="1.8170083"
           x="288.74707"
           y="290.51065"
           transform="rotate(-13.197607)"
           clip-path="url(#clipPath950)" />
        <rect
           style="display:inline;fill:#0f6d83;fill-opacity:1;stroke-width:0.541669;stroke-linecap:round"
           id="rect909"
           width="17.890108"
           height="1.8170083"
           x="289.08218"
           y="286.47324"
           transform="rotate(-13.197607)"
           clip-path="url(#clipPath946)" />
        <path
           id="circle893"
           style="display:inline;opacity:0.18;fill:#000000;fill-opacity:1;stroke:none;stroke-width:2.17204;stroke-linecap:round;stroke-miterlimit:4;stroke-dasharray:none;stroke-opacity:1"
           d="m 3046.3633,2657.6504 a 28.346457,28.346457 0 0 0 -0.1758,0 46.640019,46.640019 0 0 1 17.4941,36.4102 46.640019,46.640019 0 0 1 -2.9746,16.3828 28.346457,28.346457 0 0 0 14.002,-24.4473 28.346457,28.346457 0 0 0 -28.3457,-28.3476 z"
           transform="matrix(0.26458333,0,0,0.26458333,-449.41339,-493.41072)"
           inkscape:label="shadow" />
      </g>
      <g
         id="g1325"
         inkscape:label="rings"
         style="display:inline">
        <path
           id="path1147"
           clip-path="none"
           style="display:inline;fill:#f05945;fill-opacity:1;stroke:none;stroke-width:2.53268;stroke-linecap:round;stroke-miterlimit:4;stroke-dasharray:none;stroke-opacity:1"
           inkscape:label="outer"
           d="m 3086.5742,2672.584 c -4.4438,0.057 -9.5747,0.3639 -14.7031,1.0508 a 28.346457,28.346457 0 0 1 0.3926,0.8476 c 9.6937,-0.8183 16.0133,0.051 16.6425,2.5625 1.1242,4.481 -15.9521,12.6086 -38.1386,18.1524 -22.1847,5.5433 -41.0766,6.4038 -42.1953,1.9218 -0.5311,-2.1212 3.0753,-5.1177 9.5839,-8.3086 a 28.346457,28.346457 0 0 1 -0.066,-0.7714 c -15.0264,5.8511 -24.134,11.8237 -23.1699,15.6914 1.5209,6.0833 27.1654,4.9151 57.2793,-2.6094 30.1117,-7.524 53.2912,-18.5546 51.7754,-24.6387 -0.6347,-2.5444 -5.6099,-3.7732 -14.0781,-3.8965 -1.0532,-0.015 -2.164,-0.017 -3.3223,0 z"
           transform="matrix(0.26458333,0,0,0.26458333,-449.41339,-493.41072)" />
        <path
           id="path1147-2"
           style="display:inline;fill:#a91307;fill-opacity:1;stroke:none;stroke-width:2.15948;stroke-linecap:round;stroke-miterlimit:4;stroke-dasharray:none;stroke-opacity:1"
           inkscape:label="inner"
           d="m 3082.5957,2673.3262 a 9.6811068,47.92229 75.970811 0 0 -10.5566,0.664 28.346457,28.346457 0 0 1 0.2207,0.4844 8.3639288,41.40215 75.970811 0 1 6.0664,-0.2988 8.3639288,41.40215 75.970811 0 1 10.58,2.8691 8.3639288,41.40215 75.970811 0 1 -38.1386,18.1524 8.3639288,41.40215 75.970811 0 1 -42.1953,1.9218 8.3639288,41.40215 75.970811 0 1 9.5839,-8.3164 28.346457,28.346457 0 0 1 -0.082,-0.998 9.6811068,47.92229 75.970811 0 0 -16.5195,12.0781 9.6811068,47.92229 75.970811 0 0 48.8398,-2.2246 9.6811068,47.92229 75.970811 0 0 44.1465,-21.0098 9.6811068,47.92229 75.970811 0 0 -11.9453,-3.3222 z"
           transform="matrix(0.26458333,0,0,0.26458333,-449.41339,-493.41072)" />
      </g>
    </g>
    <g
       id="g1032"
       inkscape:label="stars"
       style="display:inline;fill:#fcd372;fill-opacity:1"
       transform="matrix(1.0749335,0,0,1.0749335,-812.79721,-690.84895)">
      <circle
         style="opacity:1;fill:#fcd372;fill-opacity:1;stroke-width:0.529;stroke-linecap:round"
         id="path983"
         cx="337.64001"
         cy="277.05795"
         r="1.2941518"
         transform="rotate(-6.1866467)" />
      <circle
         style="opacity:1;fill:#fcd372;fill-opacity:1;stroke-width:0.529;stroke-linecap:round"
         id="circle1005"
         cx="379.18497"
         cy="249.18852"
         r="1.2941518"
         transform="rotate(-6.1866467)" />
      <circle
         style="opacity:1;fill:#fcd372;fill-opacity:1;stroke-width:0.529;stroke-linecap:round"
         id="circle1007"
         cx="411.4657"
         cy="273.59494"
         r="1.2941518"
         transform="rotate(-6.1866467)" />
      <path
         id="path1017"
         style="opacity:1;fill:#fcd372;fill-opacity:1;stroke-width:0.529;stroke-linecap:round"
         inkscape:transform-center-x="0.50177534"
         inkscape:transform-center-y="-0.93214424"
         d="m 379.84443,218.84514 -1.49727,0.86487 -0.0134,1.72906 -1.49764,-0.86424 -1.50412,0.85291 -3.6e-4,-1.72911 -1.4907,-0.87615 1.49727,-0.86487 0.0134,-1.72906 1.49764,0.86424 1.50412,-0.85291 3.6e-4,1.72911 z" />
      <path
         id="path1019"
         style="opacity:1;fill:#fcd372;fill-opacity:1;stroke-width:0.722322;stroke-linecap:round"
         inkscape:transform-center-x="0.68512607"
         inkscape:transform-center-y="-1.2727975"
         d="m 424.63105,223.75479 -2.04446,1.18094 -0.0183,2.36094 -2.04495,-1.18008 -2.05379,1.16461 -5e-4,-2.36101 -2.03548,-1.19633 2.04445,-1.18094 0.0183,-2.36094 2.04495,1.18007 2.05379,-1.16461 5e-4,2.36102 z" />
      <circle
         style="opacity:1;fill:#fcd372;fill-opacity:1;stroke-width:0.529;stroke-linecap:round"
         id="circle1032"
         cx="393.12122"
         cy="308.54248"
         r="1.2941518"
         transform="rotate(-6.1866467)" />
      <path
         id="path1034"
         style="opacity:1;fill:#fcd372;fill-opacity:1;stroke-width:0.597217;stroke-linecap:round"
         inkscape:transform-center-x="0.56633125"
         inkscape:transform-center-y="-1.0523663"
         d="m 398.98738,281.98625 -1.69037,0.9764 -0.0151,1.95203 -1.69076,-0.97569 -1.69808,0.9629 -4.2e-4,-1.95209 -1.68293,-0.98912 1.69035,-0.97641 0.0151,-1.95203 1.69077,0.97569 1.69808,-0.9629 4.1e-4,1.95209 z" />
    </g>
  </g>
</svg>
