<?xml version="1.0" encoding="UTF-8" standalone="no"?>
<svg
   xmlns:dc="http://purl.org/dc/elements/1.1/"
   xmlns:cc="http://creativecommons.org/ns#"
   xmlns:rdf="http://www.w3.org/1999/02/22-rdf-syntax-ns#"
   xmlns:svg="http://www.w3.org/2000/svg"
   xmlns="http://www.w3.org/2000/svg"
   xmlns:xlink="http://www.w3.org/1999/xlink"
   xmlns:sodipodi="http://sodipodi.sourceforge.net/DTD/sodipodi-0.dtd"
   xmlns:inkscape="http://www.inkscape.org/namespaces/inkscape"
   width="512"
   height="512"
   viewBox="0 0 135.46667 135.46667"
   version="1.1"
   id="svg8"
   inkscape:version="0.92.5 (2060ec1f9f, 2020-04-08)"
   sodipodi:docname="com.newegg.app.svg"
   inkscape:export-filename="/home/reese/Pictures/icons/png/kde_connect.png"
   inkscape:export-xdpi="28.659931"
   inkscape:export-ydpi="28.659931">
  <defs
     id="defs2">
    <linearGradient
       inkscape:collect="always"
       id="linearGradient2657">
      <stop
         style="stop-color:#ffca32;stop-opacity:1"
         offset="0"
         id="stop2653" />
      <stop
         style="stop-color:#f35923;stop-opacity:1"
         offset="1"
         id="stop2655" />
    </linearGradient>
    <linearGradient
       inkscape:collect="always"
       id="linearGradient2615">
      <stop
         style="stop-color:#fbfbfb;stop-opacity:1"
         offset="0"
         id="stop2611" />
      <stop
         style="stop-color:#cdccd1;stop-opacity:1"
         offset="1"
         id="stop2613" />
    </linearGradient>
    <linearGradient
       inkscape:collect="always"
       xlink:href="#linearGradient2615"
       id="linearGradient2619"
       x1="17.93243"
       y1="-59.346798"
       x2="-3.6199348"
       y2="-22.880661"
       gradientUnits="userSpaceOnUse" />
    <linearGradient
       inkscape:collect="always"
       xlink:href="#linearGradient2657"
       id="linearGradient2649"
       gradientUnits="userSpaceOnUse"
       x1="17.93243"
       y1="-59.346798"
       x2="-3.6199348"
       y2="-22.880661"
       gradientTransform="matrix(3.7795276,0,0,3.7795276,1643.0533,1864.8594)" />
    <linearGradient
       inkscape:collect="always"
       xlink:href="#linearGradient2615"
       id="linearGradient2651"
       gradientUnits="userSpaceOnUse"
       x1="17.93243"
       y1="-59.346798"
       x2="-3.6199348"
       y2="-22.880661"
       gradientTransform="matrix(3.7795276,0,0,3.7795276,1589.2873,1864.8594)" />
  </defs>
  <sodipodi:namedview
     id="base"
     pagecolor="#ffffff"
     bordercolor="#666666"
     borderopacity="1.0"
     inkscape:pageopacity="0.0"
     inkscape:pageshadow="2"
     inkscape:zoom="2.135695"
     inkscape:cx="215.79355"
     inkscape:cy="255.9798"
     inkscape:document-units="mm"
     inkscape:current-layer="layer1"
     showgrid="false"
     fit-margin-top="0"
     fit-margin-left="0"
     fit-margin-right="0"
     fit-margin-bottom="0"
     inkscape:window-width="1892"
     inkscape:window-height="1000"
     inkscape:window-x="14"
     inkscape:window-y="66"
     inkscape:window-maximized="1"
     inkscape:snap-global="true"
     inkscape:snap-bbox="true"
     inkscape:bbox-paths="false"
     inkscape:bbox-nodes="true"
     inkscape:snap-bbox-edge-midpoints="false"
     inkscape:snap-bbox-midpoints="true"
     inkscape:snap-nodes="true"
     inkscape:snap-text-baseline="true"
     inkscape:snap-page="true"
     inkscape:snap-to-guides="true"
     inkscape:document-rotation="0"
     inkscape:object-nodes="false"
     units="px" />
  <metadata
     id="metadata5">
    <rdf:RDF>
      <cc:Work
         rdf:about="">
        <dc:format>image/svg+xml</dc:format>
        <dc:type
           rdf:resource="http://purl.org/dc/dcmitype/StillImage" />
        <dc:title />
      </cc:Work>
    </rdf:RDF>
  </metadata>
  <g
     inkscape:groupmode="layer"
     id="background"
     inkscape:label="Background">
    <rect
       style="fill:#0e4671;fill-opacity:1;stroke-width:1.626;stroke-linecap:round;stroke-linejoin:round"
       id="rect20050"
       width="135.46666"
       height="135.46666"
       x="7.1207683e-06"
       y="0" />
  </g>
  <g
     inkscape:label="Foreground"
     inkscape:groupmode="layer"
     id="foreground"
     transform="translate(449.41339,493.41072)"
     style="display:inline;opacity:1">
    <g
       id="g2681"
       inkscape:label="eggs"
       transform="matrix(0.96223733,0,0,0.96223733,-373.9541,-386.34043)">
      <path
         id="path2641"
         style="display:inline;fill:url(#linearGradient2619);fill-opacity:1;stroke:none;stroke-width:0.211667;stroke-linecap:butt;stroke-linejoin:miter;stroke-miterlimit:4;stroke-dasharray:none;stroke-opacity:0.66414897"
         d="m 16.632683,-59.973563 c -2.957228,-0.917659 -6.156298,-0.857162 -9.0845316,0.143895 -5.6150651,1.706749 -10.6194654,5.283195 -14.298566,9.831434 -2.402019,3.002219 -4.1507384,6.614827 -4.3651934,10.501243 -0.335186,4.099553 0.179122,8.496127 2.7405741,11.863758 2.1308404,3.282967 5.5785514,5.658438 9.4601584,6.287317 6.5135533,1.062958 13.2889405,-2.044361 17.2625965,-7.210972 2.320188,-2.529168 4.177114,-6.763499 4.935948,-10.656136 0.714498,-4.062798 1.277216,-9.09671 0.09729,-12.528521 -1.068244,-3.418133 -3.11602,-7.089814 -6.748273,-8.232018 z"
         sodipodi:nodetypes="cccccccccc"
         inkscape:connector-curvature="0" />
      <path
         id="path2647"
         style="display:inline;fill:url(#linearGradient2649);fill-opacity:1;stroke:none;stroke-width:0.99999899px;stroke-linecap:butt;stroke-linejoin:miter;stroke-opacity:0.66414897"
         d="m 1688.709,1635.7402 c -5.8033,0.097 -11.5933,1.1005 -17.127,2.9922 -21.2223,6.4507 -40.1377,19.968 -54.0429,37.1582 -9.0785,11.347 -15.6875,25.0007 -16.4981,39.6895 -1.2668,15.4944 0.6783,32.1098 10.3594,44.8379 8.0536,12.408 21.0833,21.3868 35.7539,23.7636 11.1708,1.823 22.5425,0.3911 33.0391,-3.5312 -6.8776,-4.4884 -12.8106,-10.4116 -17.336,-17.3262 -10.6535,-14.0924 -12.5894,-31.923 -11.2851,-48.0488 0.891,-15.9995 8.0209,-30.5631 17.5761,-42.5059 l 0.01,-0.014 0.01,-0.01 c 11.0581,-13.6705 25.1536,-25.1023 41.1113,-32.7695 -1.3834,-0.7033 -2.8346,-1.3084 -4.3633,-1.7891 -5.5884,-1.7342 -11.4037,-2.5438 -17.207,-2.4473 z"
         transform="matrix(0.26458333,0,0,0.26458333,-449.41339,-493.41072)"
         inkscape:connector-curvature="0" />
      <path
         id="path2645"
         style="display:inline;fill:url(#linearGradient2651);fill-opacity:1;stroke:none;stroke-width:0.99999899px;stroke-linecap:butt;stroke-linejoin:miter;stroke-opacity:0.66414897"
         d="m 1634.9414,1635.7402 c -5.8033,0.097 -11.5913,1.1005 -17.125,2.9922 -21.2223,6.4507 -40.1377,19.968 -54.043,37.1582 -9.0785,11.347 -15.6875,25.0007 -16.498,39.6895 -1.2669,15.4944 0.6763,32.1098 10.3574,44.8379 8.0536,12.408 21.0852,21.3868 35.7559,23.7636 10.7809,1.7594 21.7514,0.495 31.9394,-3.1211 -7.1548,-4.5349 -13.3237,-10.6061 -17.9902,-17.7363 -10.6535,-14.0924 -12.5896,-31.923 -11.2852,-48.0488 0.891,-15.9995 8.021,-30.5631 17.5762,-42.5059 l 0.01,-0.014 0.01,-0.01 c 11.2647,-13.9257 25.683,-25.5233 42.0098,-33.1895 -1.124,-0.5253 -2.2913,-0.9866 -3.5078,-1.3691 -5.5885,-1.7342 -11.4057,-2.5438 -17.209,-2.4473 z"
         transform="matrix(0.26458333,0,0,0.26458333,-449.41339,-493.41072)"
         inkscape:connector-curvature="0" />
    </g>
  </g>
</svg>
