<?xml version="1.0" encoding="UTF-8"?>
<svg width="28.575mm" height="28.575mm" version="1.1" viewBox="0 0 28.575 28.575" xmlns="http://www.w3.org/2000/svg" xmlns:xlink="http://www.w3.org/1999/xlink">
	<defs>
		<linearGradient id="linearGradient2619" x1="17.932" x2="-3.6199" y1="-59.347" y2="-22.881" gradientTransform="matrix(.20297 0 0 .20297 15.917 22.585)" gradientUnits="userSpaceOnUse">
			<stop style="stop-color:#fbfbfb" offset="0"/>
			<stop style="stop-color:#cdccd1" offset="1"/>
		</linearGradient>
		<linearGradient id="linearGradient2649" x1="17.932" x2="-3.6199" y1="-59.347" y2="-22.881" gradientTransform="matrix(.20297 0 0 .20297 12.936 22.585)" gradientUnits="userSpaceOnUse">
			<stop style="stop-color:#ffca32" offset="0"/>
			<stop style="stop-color:#f35923" offset="1"/>
		</linearGradient>
		<linearGradient id="linearGradient2651" x1="17.932" x2="-3.6199" y1="-59.347" y2="-22.881" gradientTransform="matrix(.20297 0 0 .20297 10.048 22.585)" gradientUnits="userSpaceOnUse">
			<stop style="stop-color:#fbfbfb" offset="0"/>
			<stop style="stop-color:#cdccd1" offset="1"/>
		</linearGradient>
	</defs>
	<g id="background">
		<rect x="7.1208e-6" width="28.575" height="28.575" style="fill:#0e4671;stroke-linecap:round;stroke-linejoin:round;stroke-width:.34298"/>
	</g>
	<g id="foreground">
		<path d="m19.293 10.412c-0.60023-0.18626-1.2496-0.17398-1.8439 0.02921-1.1397 0.34642-2.1555 1.0723-2.9022 1.9955-0.48754 0.60937-0.84248 1.3426-0.88601 2.1315-0.06803 0.83209 0.03636 1.7245 0.55626 2.408 0.4325 0.66635 1.1323 1.1485 1.9201 1.2761 1.3221 0.21575 2.6973-0.41495 3.5038-1.4636 0.47093-0.51335 0.84784-1.3728 1.0019-2.1629 0.14502-0.82463 0.25924-1.8464 0.01975-2.5429-0.21682-0.69378-0.63246-1.439-1.3697-1.6709z" style="fill:url(#linearGradient2619)"/>
		<path d="m15.388 10.281c-0.31166 0.0052-0.6226 0.0591-0.91977 0.16069-1.1397 0.34642-2.1555 1.0723-2.9023 1.9955-0.48754 0.60937-0.84247 1.3426-0.886 2.1314-0.06803 0.8321 0.03643 1.7244 0.55633 2.4079 0.4325 0.66635 1.1322 1.1485 1.9201 1.2762 0.5999 0.0979 1.2106 0.021 1.7743-0.18964-0.36935-0.24104-0.68797-0.55913-0.931-0.93047-0.57212-0.7568-0.67609-1.7144-0.60604-2.5804 0.04785-0.85922 0.43075-1.6413 0.94389-2.2827l5.38e-4 -7.51e-4 5.38e-4 -5.28e-4c0.59385-0.73415 1.3508-1.3481 2.2078-1.7598-0.07429-0.03777-0.15223-0.07027-0.23432-0.09608-0.30011-0.09313-0.61241-0.13661-0.92407-0.13143z" style="fill:url(#linearGradient2649)"/>
		<path d="m12.5 10.281c-0.31166 0.0052-0.62249 0.0591-0.91966 0.16069-1.1397 0.34642-2.1555 1.0723-2.9023 1.9955-0.48754 0.60937-0.84247 1.3426-0.88599 2.1314-0.068036 0.8321 0.036319 1.7244 0.55622 2.4079 0.4325 0.66635 1.1323 1.1485 1.9202 1.2762 0.57897 0.09449 1.1681 0.02658 1.7152-0.16761-0.38423-0.24354-0.71552-0.56958-0.96613-0.95249-0.57212-0.7568-0.6761-1.7144-0.60605-2.5804 0.04785-0.85922 0.43075-1.6413 0.9439-2.2827l5.37e-4 -7.52e-4 5.37e-4 -5.37e-4c0.60495-0.74785 1.3793-1.3707 2.2561-1.7824-0.06036-0.02821-0.12305-0.05298-0.18838-0.07352-0.30012-0.09313-0.61252-0.13661-0.92417-0.13143z" style="fill:url(#linearGradient2651)"/>
	</g>
</svg>
