<?xml version="1.0" encoding="UTF-8" standalone="no"?>
<svg
   xmlns:dc="http://purl.org/dc/elements/1.1/"
   xmlns:cc="http://creativecommons.org/ns#"
   xmlns:rdf="http://www.w3.org/1999/02/22-rdf-syntax-ns#"
   xmlns:svg="http://www.w3.org/2000/svg"
   xmlns="http://www.w3.org/2000/svg"
   xmlns:sodipodi="http://sodipodi.sourceforge.net/DTD/sodipodi-0.dtd"
   xmlns:inkscape="http://www.inkscape.org/namespaces/inkscape"
   width="907.52484mm"
   height="907.52484mm"
   viewBox="0 0 907.52483 907.52485"
   version="1.1"
   id="svg8"
   inkscape:version="1.0.1 (0767f8302a, 2020-10-17)"
   sodipodi:docname="nintendo_switch_online.svg"
   inkscape:export-filename="/home/reese/Pictures/icons/png/nintendo_switch_online.png"
   inkscape:export-xdpi="28.659931"
   inkscape:export-ydpi="28.659931">
  <defs
     id="defs2">
    <filter
       style="color-interpolation-filters:sRGB"
       inkscape:label="Drop Shadow"
       id="filter4754">
      <feFlood
         flood-opacity="0.2"
         flood-color="rgb(0,0,0)"
         result="flood"
         id="feFlood4744" />
      <feComposite
         in="flood"
         in2="SourceGraphic"
         operator="in"
         result="composite1"
         id="feComposite4746" />
      <feGaussianBlur
         in="composite1"
         stdDeviation="20"
         result="blur"
         id="feGaussianBlur4748" />
      <feOffset
         dx="0"
         dy="10"
         result="offset"
         id="feOffset4750" />
      <feComposite
         in="SourceGraphic"
         in2="offset"
         operator="over"
         result="composite2"
         id="feComposite4752" />
    </filter>
    <filter
       style="color-interpolation-filters:sRGB;"
       inkscape:label="Drop Shadow"
       id="filter1405">
      <feFlood
         flood-opacity="0.0784314"
         flood-color="rgb(0,0,0)"
         result="flood"
         id="feFlood1395" />
      <feComposite
         in="flood"
         in2="SourceGraphic"
         operator="in"
         result="composite1"
         id="feComposite1397" />
      <feGaussianBlur
         in="composite1"
         stdDeviation="20"
         result="blur"
         id="feGaussianBlur1399" />
      <feOffset
         dx="0"
         dy="10"
         result="offset"
         id="feOffset1401" />
      <feComposite
         in="SourceGraphic"
         in2="offset"
         operator="over"
         result="composite2"
         id="feComposite1403" />
    </filter>
  </defs>
  <sodipodi:namedview
     id="base"
     pagecolor="#ffffff"
     bordercolor="#666666"
     borderopacity="1.0"
     inkscape:pageopacity="0.0"
     inkscape:pageshadow="2"
     inkscape:zoom="0.23748788"
     inkscape:cx="1837.7565"
     inkscape:cy="1768.4136"
     inkscape:document-units="mm"
     inkscape:current-layer="layer1"
     showgrid="false"
     fit-margin-top="0"
     fit-margin-left="0"
     fit-margin-right="0"
     fit-margin-bottom="0"
     inkscape:window-width="1892"
     inkscape:window-height="1022"
     inkscape:window-x="14"
     inkscape:window-y="44"
     inkscape:window-maximized="1"
     inkscape:snap-global="true"
     inkscape:snap-bbox="true"
     inkscape:bbox-paths="true"
     inkscape:bbox-nodes="true"
     inkscape:snap-bbox-edge-midpoints="true"
     inkscape:snap-bbox-midpoints="true"
     inkscape:snap-nodes="true"
     inkscape:snap-text-baseline="true"
     inkscape:snap-page="true"
     inkscape:snap-to-guides="true"
     inkscape:document-rotation="0" />
  <metadata
     id="metadata5">
    <rdf:RDF>
      <cc:Work
         rdf:about="">
        <dc:format>image/svg+xml</dc:format>
        <dc:type
           rdf:resource="http://purl.org/dc/dcmitype/StillImage" />
        <dc:title />
      </cc:Work>
    </rdf:RDF>
  </metadata>
  <g
     inkscape:label="Layer 1"
     inkscape:groupmode="layer"
     id="layer1"
     transform="translate(449.41339,493.41072)">
    <circle
       style="fill:#e1131f;fill-opacity:1;stroke:none;stroke-width:0.264583;filter:url(#filter4754)"
       id="path4586"
       cx="4.3490262"
       cy="-39.648304"
       r="378.13535"
       transform="matrix(1.03,0,0,1.03,-0.13047101,1.1894489)"
       clip-path="none" />
    <path
       id="path1106"
       style="display:inline;fill:#ffffff;fill-opacity:1;stroke-width:1.36942"
       d="m 99.137845,-266.20786 c -16.291803,-0.0193 -32.545247,0.0578 -48.875567,0.0578 -9.038148,0 -9.03779,1.4e-4 -9.03779,8.76443 V -40.333273 179.45851 c 0,6.98404 0.410668,7.39471 7.257749,7.39471 21.362936,0 42.72566,0.13695 64.088603,-0.137 7.66873,-0.13691 15.47469,-0.54762 23.00651,-2.05398 56.42001,-11.36618 94.35285,-57.78925 94.35285,-115.304791 0.13694,-72.7160554 0,-145.432045 0,-218.148119 0,-5.47767 -0.27413,-11.09236 -0.95881,-16.57004 -7.12096,-56.96777 -56.14614,-100.51544 -113.52475,-100.78932 -5.44341,-0.0342 -10.8782,-0.0513 -16.308795,-0.0578 z m 31.783085,203.827414 c 25.19726,0 45.19116,19.993398 45.19116,45.464579 -0.13694,25.3342119 -20.26784,45.464585 -45.46511,45.464585 -25.19726,-0.136956 -45.190625,-20.4043418 -45.05368,-45.8755 0.136967,-25.060355 20.26728,-45.053664 45.32763,-45.053664 z m -281.826,-67.786404 c 0,-23.69093 19.03491,-42.99972 42.45194,-42.99972 23.553984,0 42.725832,19.44573 42.588897,42.99972 -0.136945,23.55398 -19.034913,42.451957 -42.314997,42.725813 -23.41705,0.273891 -42.72584,-19.034893 -42.72584,-42.725813 z m 80.787685,-136.13001 c -11.783952,0.008 -23.563062,0.0784 -35.322935,0.28376 -44.09526,0.82165 -77.50912,20.67799 -100.24144,58.33697 -11.50311,19.03491 -15.61124,40.12399 -15.61124,62.30856 V 62.510021 c 0,5.340739 0.274,10.818356 0.54789,16.159129 3.69743,59.70661 52.72242,106.95154 112.70292,108.04704 31.907426,0.54781 63.951528,0.137 95.858954,0.137 8.9011905,0 8.9013694,0 8.9013694,-9.03781 V -39.237532 -257.93353 c 0,-8.07957 -0.1369341,-8.21653 -7.9425864,-8.21653 -19.599782,0 -39.253023,-0.16017 -58.892932,-0.1468 z m -43.265525,37.25788 h 72.98998 v 378.50717 c -1.780243,0 -3.560429,0.27394 -5.203727,0.27394 -19.582682,0 -39.1658,0.13694 -58.748473,0 -39.85005,-0.27392 -71.20923,-26.15601 -78.74104,-65.321383 -0.95859,-5.340705 -1.3697,-11.09237 -1.3697,-16.569987 0,-71.7575051 -0.13695,-143.651836 0,-215.40931 0,-40.39781 25.06057,-71.89425 63.13038,-80.2477 2.60188,-0.54776 5.34069,-1.23273 7.94258,-1.23273 z"
       inkscape:label="joycons" />
  </g>
</svg>
