<?xml version="1.0" encoding="UTF-8" standalone="no"?>
<svg
   width="108"
   height="108"
   viewBox="0 0 28.575 28.575"
   version="1.1"
   id="svg8"
   inkscape:version="1.1.2 (1:1.1+202202050950+0a00cf5339)"
   sodipodi:docname="nintendo_switch_online.svg"
   inkscape:export-filename="/home/reese/Pictures/icons/png/nintendo_switch_online.png"
   inkscape:export-xdpi="28.659931"
   inkscape:export-ydpi="28.659931"
   xmlns:inkscape="http://www.inkscape.org/namespaces/inkscape"
   xmlns:sodipodi="http://sodipodi.sourceforge.net/DTD/sodipodi-0.dtd"
   xmlns="http://www.w3.org/2000/svg"
   xmlns:svg="http://www.w3.org/2000/svg"
   xmlns:rdf="http://www.w3.org/1999/02/22-rdf-syntax-ns#"
   xmlns:cc="http://creativecommons.org/ns#"
   xmlns:dc="http://purl.org/dc/elements/1.1/">
  <defs
     id="defs2" />
  <sodipodi:namedview
     id="base"
     pagecolor="#ffffff"
     bordercolor="#666666"
     borderopacity="1.0"
     inkscape:pageopacity="0.0"
     inkscape:pageshadow="2"
     inkscape:zoom="5.6568543"
     inkscape:cx="100.76272"
     inkscape:cy="45.96194"
     inkscape:document-units="mm"
     inkscape:current-layer="background"
     showgrid="false"
     fit-margin-top="0"
     fit-margin-left="0"
     fit-margin-right="0"
     fit-margin-bottom="0"
     inkscape:window-width="1892"
     inkscape:window-height="1000"
     inkscape:window-x="14"
     inkscape:window-y="66"
     inkscape:window-maximized="1"
     inkscape:snap-global="true"
     inkscape:snap-bbox="false"
     inkscape:bbox-paths="true"
     inkscape:bbox-nodes="true"
     inkscape:snap-bbox-edge-midpoints="true"
     inkscape:snap-bbox-midpoints="true"
     inkscape:snap-nodes="true"
     inkscape:snap-text-baseline="true"
     inkscape:snap-page="true"
     inkscape:snap-to-guides="true"
     inkscape:document-rotation="0"
     units="px"
     inkscape:pagecheckerboard="1" />
  <metadata
     id="metadata5">
    <rdf:RDF>
      <cc:Work
         rdf:about="">
        <dc:format>image/svg+xml</dc:format>
        <dc:type
           rdf:resource="http://purl.org/dc/dcmitype/StillImage" />
        <dc:title />
      </cc:Work>
    </rdf:RDF>
  </metadata>
  <g
     inkscape:groupmode="layer"
     id="background"
     inkscape:label="Background">
    <rect
       style="fill:#e1131f;fill-opacity:1;stroke-width:0.00558228;stroke-linecap:round;stroke-linejoin:round"
       id="rect8513"
       width="28.575001"
       height="28.575001"
       x="0"
       y="0"
       ry="7.3436623e-18"
       rx="7.3436623e-18" />
  </g>
  <g
     inkscape:label="Foreground"
     inkscape:groupmode="layer"
     id="foreground"
     transform="translate(449.41339,493.41072)"
     style="display:inline">
    <path
       id="path1106"
       style="display:inline;fill:#ffffff;fill-opacity:1;stroke-width:0.034308"
       d="m -432.75115,-484.79919 c -0.40816,-6.3e-4 -0.81535,0.001 -1.22448,0.001 -0.22644,0 -0.22642,0 -0.22642,0.21959 v 5.43778 5.50644 c 0,0.17496 0.0105,0.18525 0.18183,0.18525 0.5352,0 1.0704,0.003 1.60561,-0.003 0.19212,-0.003 0.38768,-0.0135 0.57638,-0.0514 1.41348,-0.28476 2.36382,-1.44778 2.36382,-2.88873 0.003,-1.82175 0,-3.64348 0,-5.46525 0,-0.13725 -0.008,-0.27789 -0.024,-0.41512 -0.1784,-1.42721 -1.40663,-2.5182 -2.84412,-2.52507 -0.13635,-8.4e-4 -0.27254,-10e-4 -0.40859,-10e-4 z m 0.79626,5.10647 c 0.63126,0 1.13217,0.50089 1.13217,1.13902 -0.003,0.6347 -0.50776,1.13903 -1.13904,1.13903 -0.63126,-0.003 -1.13215,-0.51119 -1.12872,-1.14932 0.003,-0.62784 0.50775,-1.12873 1.13559,-1.12873 z m -7.06057,-1.69824 c 0,-0.59354 0.47688,-1.07727 1.06354,-1.07727 0.5901,0 1.07042,0.48717 1.06698,1.07727 -0.003,0.5901 -0.47688,1.06354 -1.06011,1.0704 -0.58666,0.007 -1.07041,-0.47688 -1.07041,-1.0704 z m 2.02396,-3.41046 c -0.29521,1.5e-4 -0.59032,0.002 -0.88494,0.007 -1.10472,0.0206 -1.94182,0.51804 -2.51134,1.46151 -0.28818,0.47688 -0.3911,1.00522 -0.3911,1.56102 v 5.20794 c 0,0.1338 0.007,0.27103 0.0135,0.40483 0.0927,1.49582 1.32084,2.67945 2.82354,2.70689 0.79937,0.0135 1.60217,0.003 2.40155,0.003 0.22299,0 0.223,0 0.223,-0.22643 v -5.43781 -5.47898 c 0,-0.20242 -0.003,-0.20584 -0.19899,-0.20584 -0.49102,0 -0.9834,-0.005 -1.47544,-0.003 z m -1.08393,0.93342 h 1.82862 v 9.48271 c -0.0446,0 -0.0892,0.007 -0.13035,0.007 -0.4906,0 -0.98122,0.003 -1.47183,0 -0.99835,-0.007 -1.78399,-0.65527 -1.97269,-1.63648 -0.024,-0.1338 -0.0343,-0.27789 -0.0343,-0.41513 0,-1.79773 -0.003,-3.5989 0,-5.39664 0,-1.01208 0.62784,-1.80115 1.5816,-2.01043 0.0652,-0.0135 0.1338,-0.0309 0.19897,-0.0309 z"
       inkscape:label="joycons"
       inkscape:connector-curvature="0" />
  </g>
</svg>
