<?xml version="1.0" encoding="UTF-8" standalone="no"?>
<!-- Generator: Adobe Illustrator 23.0.1, SVG Export Plug-In . SVG Version: 6.00 Build 0)  -->

<svg
   xmlns:dc="http://purl.org/dc/elements/1.1/"
   xmlns:cc="http://creativecommons.org/ns#"
   xmlns:rdf="http://www.w3.org/1999/02/22-rdf-syntax-ns#"
   xmlns:svg="http://www.w3.org/2000/svg"
   xmlns="http://www.w3.org/2000/svg"
   xmlns:xlink="http://www.w3.org/1999/xlink"
   xmlns:sodipodi="http://sodipodi.sourceforge.net/DTD/sodipodi-0.dtd"
   xmlns:inkscape="http://www.inkscape.org/namespaces/inkscape"
   version="1.1"
   id="Livello_1"
   x="0px"
   y="0px"
   viewBox="0 0 108 108"
   enable-background="new 0 0 240.1 240.1"
   xml:space="preserve"
   sodipodi:docname="org.telegram.messenger.svg"
   width="108"
   height="108"
   inkscape:version="0.92.5 (2060ec1f9f, 2020-04-08)"><metadata
   id="metadata15"><rdf:RDF><cc:Work
       rdf:about=""><dc:format>image/svg+xml</dc:format><dc:type
         rdf:resource="http://purl.org/dc/dcmitype/StillImage" /><dc:title></dc:title></cc:Work></rdf:RDF></metadata><defs
   id="defs13"><linearGradient
     inkscape:collect="always"
     xlink:href="#linearGradient2201"
     id="linearGradient849-7"
     x1="0"
     y1="186.10001"
     x2="108"
     y2="186.10001"
     gradientUnits="userSpaceOnUse"
     gradientTransform="translate(4.1132141e-6,-240.10001)" /><linearGradient
     id="linearGradient2201"
     gradientUnits="userSpaceOnUse"
     x1="-838.04102"
     y1="660.58099"
     x2="-838.04102"
     y2="660.34271"
     gradientTransform="matrix(1000,0,0,-1000,838161,660581)"><stop
       offset="0"
       style="stop-color:#2AABEE"
       id="stop2-5" /><stop
       offset="1"
       style="stop-color:#229ED9"
       id="stop4-3" /></linearGradient></defs><sodipodi:namedview
   pagecolor="#ffffff"
   bordercolor="#666666"
   borderopacity="1"
   objecttolerance="10"
   gridtolerance="10"
   guidetolerance="10"
   inkscape:pageopacity="0"
   inkscape:pageshadow="2"
   inkscape:window-width="640"
   inkscape:window-height="480"
   id="namedview11"
   showgrid="false"
   inkscape:zoom="4.902124"
   inkscape:cx="50.664672"
   inkscape:cy="61.498219"
   inkscape:current-layer="layer1" />
<g
   inkscape:groupmode="layer"
   id="background"
   inkscape:label="Background"><rect
     style="opacity:1;fill:url(#linearGradient849-7);fill-opacity:1;fill-rule:nonzero;stroke:none;stroke-width:0.3983101;stroke-linecap:round;stroke-linejoin:round;stroke-miterlimit:4;stroke-dasharray:none;stroke-opacity:1"
     id="rect841-5"
     width="108"
     height="108"
     x="3.9584377e-16"
     y="-108"
     transform="rotate(90)" /></g>
<g
   inkscape:groupmode="layer"
   id="foreground"
   inkscape:label="Foreground"
   transform="translate(0,-132.10001)"><path
     id="Path-3"
     d="m 31.537025,186.11046 c 12.429292,-5.39786 20.703648,-8.9846 24.858583,-10.7247 11.825584,-4.93621 14.311443,-5.78851 15.909494,-5.82402 0.355123,0 1.136393,0.0711 1.669076,0.49718 0.426148,0.35512 0.532684,0.81678 0.603708,1.1719 0.07102,0.35512 0.142049,1.10089 0.07102,1.66908 -0.639221,6.74733 -3.409177,23.11848 -4.829668,30.64708 -0.603708,3.1961 -1.775612,4.26148 -2.912006,4.368 -2.485859,0.21308 -4.368008,-1.63355 -6.74733,-3.19609 -3.764299,-2.45035 -5.859523,-3.97738 -9.517286,-6.39221 -4.225958,-2.76995 -1.491515,-4.29698 0.923319,-6.78284 0.639221,-0.63922 11.541485,-10.58266 11.754559,-11.47046 0.03551,-0.10654 0.03551,-0.53269 -0.213074,-0.74576 -0.248585,-0.21308 -0.603708,-0.14205 -0.887806,-0.0711 -0.390636,0.0711 -6.356695,4.04841 -17.969205,11.89661 -1.704588,1.17191 -3.231615,1.7401 -4.616594,1.70459 -1.527027,-0.0355 -4.439032,-0.85229 -6.640793,-1.56254 -2.66342,-0.85229 -4.794155,-1.31395 -4.616594,-2.80547 0.106537,-0.78126 1.171905,-1.56254 3.160592,-2.37932 z"
     inkscape:connector-curvature="0"
     style="clip-rule:evenodd;fill:#ffffff;fill-rule:evenodd;stroke-width:0.35512263"
     inkscape:label="airplane" /></g></svg>
