<?xml version="1.0" encoding="UTF-8" standalone="no"?>
<svg
   xmlns:dc="http://purl.org/dc/elements/1.1/"
   xmlns:cc="http://creativecommons.org/ns#"
   xmlns:rdf="http://www.w3.org/1999/02/22-rdf-syntax-ns#"
   xmlns:svg="http://www.w3.org/2000/svg"
   xmlns="http://www.w3.org/2000/svg"
   xmlns:sodipodi="http://sodipodi.sourceforge.net/DTD/sodipodi-0.dtd"
   xmlns:inkscape="http://www.inkscape.org/namespaces/inkscape"
   width="512"
   height="512"
   viewBox="0 0 135.46667 135.46667"
   version="1.1"
   id="svg8"
   inkscape:version="1.0.2 (394de47547, 2021-03-26)"
   sodipodi:docname="org.kde.kdeconnect_tp.svg"
   inkscape:export-filename="/home/reese/Pictures/icons/png/kde_connect.png"
   inkscape:export-xdpi="28.659931"
   inkscape:export-ydpi="28.659931">
  <defs
     id="defs2" />
  <sodipodi:namedview
     id="base"
     pagecolor="#ffffff"
     bordercolor="#666666"
     borderopacity="1.0"
     inkscape:pageopacity="0.0"
     inkscape:pageshadow="2"
     inkscape:zoom="1.28"
     inkscape:cx="315.80336"
     inkscape:cy="241.43918"
     inkscape:document-units="mm"
     inkscape:current-layer="layer1"
     showgrid="false"
     fit-margin-top="0"
     fit-margin-left="0"
     fit-margin-right="0"
     fit-margin-bottom="0"
     inkscape:window-width="1892"
     inkscape:window-height="1000"
     inkscape:window-x="14"
     inkscape:window-y="66"
     inkscape:window-maximized="1"
     inkscape:snap-global="true"
     inkscape:snap-bbox="true"
     inkscape:bbox-paths="false"
     inkscape:bbox-nodes="true"
     inkscape:snap-bbox-edge-midpoints="true"
     inkscape:snap-bbox-midpoints="true"
     inkscape:snap-nodes="true"
     inkscape:snap-text-baseline="true"
     inkscape:snap-page="true"
     inkscape:snap-to-guides="true"
     inkscape:document-rotation="0"
     units="px" />
  <metadata
     id="metadata5">
    <rdf:RDF>
      <cc:Work
         rdf:about="">
        <dc:format>image/svg+xml</dc:format>
        <dc:type
           rdf:resource="http://purl.org/dc/dcmitype/StillImage" />
        <dc:title></dc:title>
      </cc:Work>
    </rdf:RDF>
  </metadata>
  <g
     inkscape:label="Layer 1"
     inkscape:groupmode="layer"
     id="layer1"
     transform="translate(449.41339,493.41072)">
    <rect
       style="fill:#2d2d2d;fill-opacity:1;stroke-width:1.626;stroke-linecap:round;stroke-linejoin:round"
       id="rect14685"
       width="135.43739"
       height="135.43739"
       x="-449.38412"
       y="-493.38144" />
    <path
       d="m -380.49612,-461.78189 -13.23943,1.26742 v 54.5161 l 13.09947,-1.9722 v -23.24313 l 17.60817,25.77971 13.80408,-4.3678 -18.03033,-24.79258 18.17156,-23.3841 -14.08536,-3.23844 -17.46787,23.38319 z m -30.01056,13.28466 c -0.14985,0.0167 -0.29383,0.0837 -0.40601,0.1942 l -5.19623,5.19531 c -0.21849,0.21933 -0.25951,0.55921 -0.0988,0.82458 l 6.08367,10.01976 c -1.07906,1.81405 -1.94382,3.76992 -2.56195,5.83312 l -11.16873,2.3232 c -0.31057,0.067 -0.53492,0.33987 -0.53492,0.65881 v 7.34749 c 0,0.31057 0.21263,0.58013 0.51232,0.65212 l 10.84049,2.64977 c 0.57846,2.38957 1.47384,4.65485 2.6578,6.73695 l -6.2747,9.5683 c -0.17496,0.26705 -0.13813,0.61948 0.0879,0.84491 l 5.19439,5.19531 c 0.21849,0.21766 0.5592,0.26035 0.82625,0.10049 l 9.83258,-5.97166 c 1.93142,1.11447 4.01428,1.99162 6.21568,2.5864 l 2.29415,11.03026 c 0.067,0.31309 0.34071,0.53493 0.65798,0.53493 h 7.34841 c 0.3089,0 0.57846,-0.21096 0.65212,-0.514 l 2.70216,-11.05312 c 2.2693,-0.61278 4.41553,-1.52525 6.39417,-2.69045 l 9.68959,6.3533 c 0.26621,0.17581 0.61864,0.14065 0.84492,-0.0854 l 5.19622,-5.19522 c 0.22017,-0.22017 0.25951,-0.55921 0.0979,-0.82457 l -3.53728,-5.82952 -1.14436,0.36164 c -0.16659,0.0502 -0.34908,-0.008 -0.44702,-0.15487 0,0 -2.25624,-3.30272 -5.17003,-7.56756 -3.48346,6.81732 -10.57026,11.48733 -18.75412,11.48733 -11.6273,0 -21.05379,-9.42683 -21.05379,-21.05463 0,-8.55379 5.10205,-15.91022 12.42617,-19.20558 v -5.43162 c -1.33304,0.46627 -2.62172,1.02858 -3.8456,1.69526 -9.3e-4,-7.7e-4 -0.002,-0.003 -0.005,-0.006 l -9.91754,-6.50466 c -0.13395,-0.087 -0.28797,-0.12222 -0.43782,-0.10715 z"
       fill="#31363b"
       id="path4337"
       style="fill:#f3f3f3;fill-opacity:1;stroke-width:2.2149" />
  </g>
</svg>
