<?xml version="1.0" encoding="UTF-8" standalone="no"?>
<svg
   xmlns:dc="http://purl.org/dc/elements/1.1/"
   xmlns:cc="http://creativecommons.org/ns#"
   xmlns:rdf="http://www.w3.org/1999/02/22-rdf-syntax-ns#"
   xmlns:svg="http://www.w3.org/2000/svg"
   xmlns="http://www.w3.org/2000/svg"
   xmlns:sodipodi="http://sodipodi.sourceforge.net/DTD/sodipodi-0.dtd"
   xmlns:inkscape="http://www.inkscape.org/namespaces/inkscape"
   width="907.52484mm"
   height="907.52484mm"
   viewBox="0 0 907.52483 907.52485"
   version="1.1"
   id="svg8"
   inkscape:version="1.0.1 (0767f8302a, 2020-10-17)"
   sodipodi:docname="org.fdroid.fdroid.svg"
   inkscape:export-filename="/home/reese/Pictures/icons/png/f-droid.png"
   inkscape:export-xdpi="28.659931"
   inkscape:export-ydpi="28.659931">
  <defs
     id="defs2">
    <filter
       style="color-interpolation-filters:sRGB"
       inkscape:label="Drop Shadow"
       id="filter4754">
      <feFlood
         flood-opacity="0.2"
         flood-color="rgb(0,0,0)"
         result="flood"
         id="feFlood4744" />
      <feComposite
         in="flood"
         in2="SourceGraphic"
         operator="in"
         result="composite1"
         id="feComposite4746" />
      <feGaussianBlur
         in="composite1"
         stdDeviation="20"
         result="blur"
         id="feGaussianBlur4748" />
      <feOffset
         dx="0"
         dy="10"
         result="offset"
         id="feOffset4750" />
      <feComposite
         in="SourceGraphic"
         in2="offset"
         operator="over"
         result="composite2"
         id="feComposite4752" />
    </filter>
    <filter
       style="color-interpolation-filters:sRGB;"
       inkscape:label="Drop Shadow"
       id="filter1405">
      <feFlood
         flood-opacity="0.0784314"
         flood-color="rgb(0,0,0)"
         result="flood"
         id="feFlood1395" />
      <feComposite
         in="flood"
         in2="SourceGraphic"
         operator="in"
         result="composite1"
         id="feComposite1397" />
      <feGaussianBlur
         in="composite1"
         stdDeviation="20"
         result="blur"
         id="feGaussianBlur1399" />
      <feOffset
         dx="0"
         dy="10"
         result="offset"
         id="feOffset1401" />
      <feComposite
         in="SourceGraphic"
         in2="offset"
         operator="over"
         result="composite2"
         id="feComposite1403" />
    </filter>
    <clipPath
       clipPathUnits="userSpaceOnUse"
       id="clipPath3581">
      <rect
         style="display:inline;fill:#4797e4;fill-opacity:0.960784;stroke:none;stroke-width:3.08692;stroke-linecap:round;stroke-linejoin:miter;stroke-miterlimit:3;stroke-dasharray:none;stroke-dashoffset:0;stroke-opacity:1"
         id="rect3583"
         width="39.101017"
         height="26.753328"
         x="66.800629"
         y="1025.3973"
         rx="3.0869224"
         ry="3.0869224" />
    </clipPath>
    <filter
       style="color-interpolation-filters:sRGB;"
       inkscape:label="Drop Shadow"
       id="filter4139">
      <feFlood
         flood-opacity="0.196078"
         flood-color="rgb(0,0,0)"
         result="flood"
         id="feFlood4129" />
      <feComposite
         in="flood"
         in2="SourceGraphic"
         operator="in"
         result="composite1"
         id="feComposite4131" />
      <feGaussianBlur
         in="composite1"
         stdDeviation="20"
         result="blur"
         id="feGaussianBlur4133" />
      <feOffset
         dx="0"
         dy="6"
         result="offset"
         id="feOffset4135" />
      <feComposite
         in="SourceGraphic"
         in2="offset"
         operator="over"
         result="composite2"
         id="feComposite4137" />
    </filter>
    <clipPath
       clipPathUnits="userSpaceOnUse"
       id="clipPath4143">
      <circle
         style="fill:#f2f2f2;fill-opacity:1;stroke:none;stroke-width:0.272521"
         id="circle4145"
         cx="4.3490291"
         cy="-39.6483"
         r="389.4794"
         clip-path="none"
         inkscape:label="plate" />
    </clipPath>
  </defs>
  <sodipodi:namedview
     id="base"
     pagecolor="#ffffff"
     bordercolor="#666666"
     borderopacity="1.0"
     inkscape:pageopacity="0.0"
     inkscape:pageshadow="2"
     inkscape:zoom="0.23748788"
     inkscape:cx="1480.7928"
     inkscape:cy="1708.8786"
     inkscape:document-units="mm"
     inkscape:current-layer="layer1"
     showgrid="false"
     fit-margin-top="0"
     fit-margin-left="0"
     fit-margin-right="0"
     fit-margin-bottom="0"
     inkscape:window-width="1892"
     inkscape:window-height="1022"
     inkscape:window-x="14"
     inkscape:window-y="44"
     inkscape:window-maximized="1"
     inkscape:snap-global="true"
     inkscape:snap-bbox="true"
     inkscape:bbox-paths="true"
     inkscape:bbox-nodes="true"
     inkscape:snap-bbox-edge-midpoints="true"
     inkscape:snap-bbox-midpoints="true"
     inkscape:snap-nodes="true"
     inkscape:snap-text-baseline="true"
     inkscape:snap-page="true"
     inkscape:snap-to-guides="true"
     inkscape:document-rotation="0" />
  <metadata
     id="metadata5">
    <rdf:RDF>
      <cc:Work
         rdf:about="">
        <dc:format>image/svg+xml</dc:format>
        <dc:type
           rdf:resource="http://purl.org/dc/dcmitype/StillImage" />
        <dc:title />
      </cc:Work>
    </rdf:RDF>
  </metadata>
  <g
     inkscape:label="Layer 1"
     inkscape:groupmode="layer"
     id="layer1"
     transform="translate(449.41339,493.41072)">
    <circle
       style="fill:#f2f2f2;fill-opacity:1;stroke:none;stroke-width:0.264583;filter:url(#filter4754)"
       id="path4586"
       cx="4.3490262"
       cy="-39.648304"
       r="378.13535"
       transform="matrix(1.03,0,0,1.03,-0.13047101,1.1894489)"
       clip-path="none"
       inkscape:label="plate" />
    <path
       id="rect4146"
       style="display:inline;opacity:0.722956;fill-opacity:1;stroke:none;stroke-width:33.844;stroke-linecap:round;stroke-linejoin:miter;stroke-miterlimit:4;stroke-dasharray:none;stroke-dashoffset:0;stroke-opacity:1;filter:url(#filter4139);fill:#f2f2f2"
       inkscape:label="shadow"
       d="m -237.21704,-279.86822 a 14.101725,14.101725 0 0 0 -8.60723,2.95331 14.101725,14.101725 0 0 0 -2.53421,19.78639 l 40.65282,52.61693 c -1.43263,3.75803 -2.29134,7.80158 -2.29134,12.07473 v 78.96934 c 0,18.749648 15.09428,33.844444 33.84392,33.844444 h 361.00433 c 18.74964,0 33.84393,-15.094796 33.84393,-33.844444 v -78.96934 c 0,-4.27315 -0.85873,-8.3167 -2.29134,-12.07473 l 40.6523,-52.61693 a 14.101725,14.101725 0 0 0 -2.5337,-19.78639 14.101725,14.101725 0 0 0 -8.90177,-2.93057 14.101725,14.101725 0 0 0 -10.88462,5.46426 l -38.73561,50.10496 c -3.5053,-1.2224 -7.2168,-2.00506 -11.14919,-2.00506 h -361.00433 c -3.93239,0 -7.64389,0.78266 -11.14918,2.00506 l -38.73562,-50.10496 a 14.101725,14.101725 0 0 0 -11.0169,-5.48648 14.101725,14.101725 0 0 0 -0.16226,-5.3e-4 z m 132.69887,89.6555 a 38.074658,38.074658 0 0 1 0.28371,0 38.074658,38.074658 0 0 1 38.07468,38.07468 38.074658,38.074658 0 0 1 -38.07468,38.07468 38.074658,38.074658 0 0 1 -38.07417,-38.07468 38.074658,38.074658 0 0 1 37.52328,-38.07468 38.074658,38.074658 0 0 1 0.26665,0 z m 219.98709,0 a 38.074658,38.074658 0 0 1 0.28369,0 38.074658,38.074658 0 0 1 38.07468,38.07468 38.074658,38.074658 0 0 1 -38.07468,38.07468 38.074658,38.074658 0 0 1 -38.074679,-38.07468 38.074658,38.074658 0 0 1 37.523819,-38.07468 38.074658,38.074658 0 0 1 0.26717,0 z m -291.622,121.871107 c -18.74964,0 -33.84392,15.094294 -33.84392,33.843938 V 191.12989 c 0,18.74967 15.09428,33.84444 33.84392,33.84444 h 361.00433 c 18.74964,0 33.84393,-15.09477 33.84393,-33.84444 V -34.497675 c 0,-18.749644 -15.09429,-33.843938 -33.84393,-33.843938 z"
       clip-path="url(#clipPath4143)"
       transform="translate(0,-12.541626)" />
    <g
       id="g3883"
       style="display:inline"
       inkscape:label="droid"
       transform="matrix(11.28138,0,0,11.28138,-266.40407,-11637.103)">
      <rect
         style="display:inline;fill:#4797e4;fill-opacity:1;stroke:none;stroke-width:3;stroke-linecap:round;stroke-linejoin:miter;stroke-miterlimit:3;stroke-dasharray:none;stroke-dashoffset:0;stroke-opacity:1"
         id="rect3873"
         width="38"
         height="26"
         x="5"
         y="1024.3622"
         rx="3"
         ry="3"
         inkscape:label="body" />
      <g
         id="g3879"
         transform="matrix(0.9718417,0,0,0.9718417,-59.919634,27.838314)"
         style="stroke:#2f557c;stroke-opacity:1"
         clip-path="url(#clipPath3581)"
         inkscape:label="copyleft">
        <circle
           style="fill:none;fill-opacity:0.960784;stroke:#2f557c;stroke-width:2.5;stroke-linejoin:round;stroke-miterlimit:4;stroke-dasharray:none;stroke-opacity:1;paint-order:normal"
           id="circle3875"
           cx="86.351135"
           cy="1038.8287"
           r="12.77885"
           inkscape:label="ring" />
        <path
           id="path3877"
           style="opacity:1;fill:none;fill-opacity:0.960784;stroke:#2f557c;stroke-width:3.961;stroke-linecap:round;stroke-linejoin:round;stroke-miterlimit:4;stroke-dasharray:none;stroke-opacity:1;paint-order:normal"
           d="m 81.511766,1034.6745 c 1.173762,-1.4071 2.940258,-2.3024 4.915869,-2.3024 3.533956,0 6.39879,2.8648 6.398778,6.3988 1.2e-5,3.534 -2.864822,6.3988 -6.398778,6.3988 -1.983537,0 -3.756278,-0.9025 -4.929968,-2.3193"
           sodipodi:nodetypes="cscsc"
           inkscape:label="c" />
      </g>
      <path
         id="path3881"
         style="color:#000000;font-style:normal;font-variant:normal;font-weight:normal;font-stretch:normal;font-size:medium;line-height:normal;font-family:sans-serif;font-variant-ligatures:normal;font-variant-position:normal;font-variant-caps:normal;font-variant-numeric:normal;font-variant-alternates:normal;font-variant-east-asian:normal;font-feature-settings:normal;font-variation-settings:normal;text-indent:0;text-align:start;text-decoration:none;text-decoration-line:none;text-decoration-style:solid;text-decoration-color:#000000;letter-spacing:normal;word-spacing:normal;text-transform:none;writing-mode:lr-tb;direction:ltr;text-orientation:mixed;dominant-baseline:auto;baseline-shift:baseline;text-anchor:start;white-space:normal;shape-padding:0;shape-margin:0;inline-size:0;clip-rule:nonzero;display:inline;overflow:visible;visibility:visible;isolation:auto;mix-blend-mode:normal;color-interpolation:sRGB;color-interpolation-filters:linearRGB;solid-color:#000000;solid-opacity:1;vector-effect:none;fill:#8fcc38;fill-opacity:1;fill-rule:evenodd;stroke:none;stroke-width:2.5;stroke-linecap:round;stroke-linejoin:miter;stroke-miterlimit:4;stroke-dasharray:none;stroke-dashoffset:0;stroke-opacity:1;color-rendering:auto;image-rendering:auto;shape-rendering:auto;text-rendering:auto;enable-background:accumulate;stop-color:#000000"
         d="M 2.6015625,1.25 A 1.25,1.25 0 0 0 1.8242188,1.5117188 1.25,1.25 0 0 0 1.5996094,3.265625 L 5.203125,7.9296875 C 5.0761346,8.2628053 5,8.6212212 5,9 v 7 c 0,1.662 1.338,3 3,3 h 32 c 1.662,0 3,-1.338 3,-3 V 9 C 43,8.6212212 42.923865,8.2628053 42.796875,7.9296875 L 46.400391,3.265625 A 1.25,1.25 0 0 0 46.175781,1.5117188 1.25,1.25 0 0 0 45.386719,1.2519531 1.25,1.25 0 0 0 44.421875,1.7363281 L 40.988281,6.1777344 C 40.677566,6.0693792 40.348573,6 40,6 H 8 C 7.6514266,6 7.3224338,6.0693792 7.0117188,6.1777344 L 3.578125,1.7363281 A 1.25,1.25 0 0 0 2.6015625,1.25 Z M 14.326172,9.1972656 a 3.375,3.375 0 0 1 0.04883,0 3.375,3.375 0 0 1 3.375,3.3750004 3.375,3.375 0 0 1 -3.375,3.375 3.375,3.375 0 0 1 -3.375,-3.375 3.375,3.375 0 0 1 3.326172,-3.3750004 z m 19.5,0 a 3.375,3.375 0 0 1 0.04883,0 3.375,3.375 0 0 1 3.375,3.3750004 3.375,3.375 0 0 1 -3.375,3.375 3.375,3.375 0 0 1 -3.375,-3.375 3.375,3.375 0 0 1 3.326172,-3.3750004 z"
         transform="translate(0,1004.3622)"
         inkscape:label="head" />
    </g>
  </g>
</svg>
