<?xml version="1.0" encoding="UTF-8" standalone="no"?>
<svg
   xmlns:dc="http://purl.org/dc/elements/1.1/"
   xmlns:cc="http://creativecommons.org/ns#"
   xmlns:rdf="http://www.w3.org/1999/02/22-rdf-syntax-ns#"
   xmlns:svg="http://www.w3.org/2000/svg"
   xmlns="http://www.w3.org/2000/svg"
   xmlns:sodipodi="http://sodipodi.sourceforge.net/DTD/sodipodi-0.dtd"
   xmlns:inkscape="http://www.inkscape.org/namespaces/inkscape"
   width="512"
   height="512"
   viewBox="0 0 135.46667 135.46667"
   version="1.1"
   id="svg8"
   inkscape:version="0.92.5 (2060ec1f9f, 2020-04-08)"
   sodipodi:docname="org.fdroid.fdroid.svg"
   inkscape:export-filename="/home/reese/Pictures/icons/png/org.fdroid.fdroid.png"
   inkscape:export-xdpi="28.659931"
   inkscape:export-ydpi="28.659931">
  <defs
     id="defs2" />
  <sodipodi:namedview
     id="base"
     pagecolor="#ffffff"
     bordercolor="#666666"
     borderopacity="1.0"
     inkscape:pageopacity="0.0"
     inkscape:pageshadow="2"
     inkscape:zoom="1.9811225"
     inkscape:cx="215.58737"
     inkscape:cy="279.97139"
     inkscape:document-units="mm"
     inkscape:current-layer="layer1"
     showgrid="false"
     fit-margin-top="0"
     fit-margin-left="0"
     fit-margin-right="0"
     fit-margin-bottom="0"
     inkscape:window-width="1892"
     inkscape:window-height="1000"
     inkscape:window-x="14"
     inkscape:window-y="66"
     inkscape:window-maximized="1"
     inkscape:snap-global="true"
     inkscape:snap-bbox="true"
     inkscape:bbox-paths="false"
     inkscape:bbox-nodes="true"
     inkscape:snap-bbox-edge-midpoints="false"
     inkscape:snap-bbox-midpoints="true"
     inkscape:snap-nodes="true"
     inkscape:snap-text-baseline="true"
     inkscape:snap-page="true"
     inkscape:snap-to-guides="true"
     inkscape:document-rotation="0"
     units="px" />
  <metadata
     id="metadata5">
    <rdf:RDF>
      <cc:Work
         rdf:about="">
        <dc:format>image/svg+xml</dc:format>
        <dc:type
           rdf:resource="http://purl.org/dc/dcmitype/StillImage" />
        <dc:title />
      </cc:Work>
    </rdf:RDF>
  </metadata>
  <g
     inkscape:groupmode="layer"
     id="layer13"
     inkscape:label="Background">
    <rect
       style="fill:#f2f2f2;fill-opacity:1;stroke:none;stroke-width:1.626;stroke-linecap:round;stroke-linejoin:round"
       id="rect21018"
       width="135.59238"
       height="135.44472"
       x="-0.12571004"
       y="0" />
  </g>
  <g
     inkscape:label="Foreground"
     inkscape:groupmode="layer"
     id="layer1"
     transform="translate(449.41339,493.41072)">
    <g
       id="g3883"
       style="display:inline"
       inkscape:label="droid"
       transform="matrix(1.0316609,0,0,1.0316609,-406.43992,-1484.2009)">
      <rect
         style="display:inline;fill:#4797e4;fill-opacity:1;stroke:none;stroke-width:3;stroke-linecap:round;stroke-linejoin:miter;stroke-miterlimit:3;stroke-dasharray:none;stroke-dashoffset:0;stroke-opacity:1"
         id="rect3873"
         width="38"
         height="26"
         x="5"
         y="1024.3622"
         rx="5.1764503"
         ry="5.1764503"
         inkscape:label="body" />
      <path
         id="path3881"
         style="color:#000000;font-style:normal;font-variant:normal;font-weight:normal;font-stretch:normal;font-size:medium;line-height:normal;font-family:sans-serif;font-variant-ligatures:normal;font-variant-position:normal;font-variant-caps:normal;font-variant-numeric:normal;font-variant-alternates:normal;font-feature-settings:normal;text-indent:0;text-align:start;text-decoration:none;text-decoration-line:none;text-decoration-style:solid;text-decoration-color:#000000;letter-spacing:normal;word-spacing:normal;text-transform:none;writing-mode:lr-tb;direction:ltr;text-orientation:mixed;dominant-baseline:auto;baseline-shift:baseline;text-anchor:start;white-space:normal;shape-padding:0;clip-rule:nonzero;display:inline;overflow:visible;visibility:visible;isolation:auto;mix-blend-mode:normal;color-interpolation:sRGB;color-interpolation-filters:linearRGB;solid-color:#000000;solid-opacity:1;vector-effect:none;fill:#8fcc38;fill-opacity:1;fill-rule:evenodd;stroke:none;stroke-width:2.5;stroke-linecap:round;stroke-linejoin:miter;stroke-miterlimit:4;stroke-dasharray:none;stroke-dashoffset:0;stroke-opacity:1;color-rendering:auto;image-rendering:auto;shape-rendering:auto;text-rendering:auto;enable-background:accumulate"
         d="M 2.6015625,1.25 A 1.25,1.25 0 0 0 1.8242188,1.5117188 1.25,1.25 0 0 0 1.5996094,3.265625 L 5.203125,7.9296875 C 5.0761346,8.2628053 5,8.6212212 5,9 v 7 c 0,1.662 1.338,3 3,3 h 32 c 1.662,0 3,-1.338 3,-3 V 9 C 43,8.6212212 42.923865,8.2628053 42.796875,7.9296875 L 46.400391,3.265625 A 1.25,1.25 0 0 0 46.175781,1.5117188 1.25,1.25 0 0 0 45.386719,1.2519531 1.25,1.25 0 0 0 44.421875,1.7363281 L 40.988281,6.1777344 C 40.677566,6.0693792 40.348573,6 40,6 H 8 C 7.6514266,6 7.3224338,6.0693792 7.0117188,6.1777344 L 3.578125,1.7363281 A 1.25,1.25 0 0 0 2.6015625,1.25 Z M 14.326172,9.1972656 a 3.375,3.375 0 0 1 0.04883,0 3.375,3.375 0 0 1 3.375,3.3750004 3.375,3.375 0 0 1 -3.375,3.375 3.375,3.375 0 0 1 -3.375,-3.375 3.375,3.375 0 0 1 3.326172,-3.3750004 z m 19.5,0 a 3.375,3.375 0 0 1 0.04883,0 3.375,3.375 0 0 1 3.375,3.3750004 3.375,3.375 0 0 1 -3.375,3.375 3.375,3.375 0 0 1 -3.375,-3.375 3.375,3.375 0 0 1 3.326172,-3.3750004 z"
         transform="translate(0,1004.3622)"
         inkscape:label="head"
         inkscape:connector-curvature="0" />
    </g>
  </g>
</svg>
