<?xml version="1.0" encoding="UTF-8" standalone="no"?>
<svg
   xmlns:dc="http://purl.org/dc/elements/1.1/"
   xmlns:cc="http://creativecommons.org/ns#"
   xmlns:rdf="http://www.w3.org/1999/02/22-rdf-syntax-ns#"
   xmlns:svg="http://www.w3.org/2000/svg"
   xmlns="http://www.w3.org/2000/svg"
   xmlns:sodipodi="http://sodipodi.sourceforge.net/DTD/sodipodi-0.dtd"
   xmlns:inkscape="http://www.inkscape.org/namespaces/inkscape"
   width="512"
   height="512"
   viewBox="0 0 135.46667 135.46667"
   version="1.1"
   id="svg8"
   inkscape:version="0.92.5 (2060ec1f9f, 2020-04-08)"
   sodipodi:docname="org.kde.kdeconnect_tp.svg"
   inkscape:export-filename="/home/reese/Pictures/icons/png/kde_connect.png"
   inkscape:export-xdpi="28.659931"
   inkscape:export-ydpi="28.659931">
  <defs
     id="defs2" />
  <sodipodi:namedview
     id="base"
     pagecolor="#ffffff"
     bordercolor="#666666"
     borderopacity="1.0"
     inkscape:pageopacity="0.0"
     inkscape:pageshadow="2"
     inkscape:zoom="2.022015"
     inkscape:cx="144.15853"
     inkscape:cy="241.14609"
     inkscape:document-units="mm"
     inkscape:current-layer="layer1"
     showgrid="false"
     fit-margin-top="0"
     fit-margin-left="0"
     fit-margin-right="0"
     fit-margin-bottom="0"
     inkscape:window-width="1892"
     inkscape:window-height="1000"
     inkscape:window-x="14"
     inkscape:window-y="66"
     inkscape:window-maximized="1"
     inkscape:snap-global="true"
     inkscape:snap-bbox="false"
     inkscape:bbox-paths="false"
     inkscape:bbox-nodes="true"
     inkscape:snap-bbox-edge-midpoints="true"
     inkscape:snap-bbox-midpoints="true"
     inkscape:snap-nodes="true"
     inkscape:snap-text-baseline="true"
     inkscape:snap-page="true"
     inkscape:snap-to-guides="true"
     inkscape:document-rotation="0"
     units="px" />
  <metadata
     id="metadata5">
    <rdf:RDF>
      <cc:Work
         rdf:about="">
        <dc:format>image/svg+xml</dc:format>
        <dc:type
           rdf:resource="http://purl.org/dc/dcmitype/StillImage" />
        <dc:title />
      </cc:Work>
    </rdf:RDF>
  </metadata>
  <g
     inkscape:groupmode="layer"
     id="layer10"
     inkscape:label="Background">
    <rect
       style="fill:#2d2d2d;fill-opacity:1;stroke-width:1.626;stroke-linecap:round;stroke-linejoin:round"
       id="rect14685"
       width="135.43739"
       height="135.43739"
       x="0"
       y="0.02925822" />
  </g>
  <g
     inkscape:label="Foreground"
     inkscape:groupmode="layer"
     id="layer1"
     transform="translate(449.41339,493.41072)">
    <path
       d="m -380.06003,-449.15164 -8.43453,0.80744 v 34.73093 l 8.34536,-1.25645 v -14.80764 l 11.21776,16.42364 8.79425,-2.78262 -11.4867,-15.79478 11.57667,-14.89745 -8.97345,-2.06314 -11.12836,14.89688 z m -19.11903,8.46334 c -0.0954,0.0107 -0.18719,0.0534 -0.25866,0.12372 l -3.3104,3.30981 c -0.13919,0.13973 -0.16532,0.35626 -0.0629,0.52532 l 3.87576,6.38335 c -0.68745,1.15569 -1.23837,2.40173 -1.63216,3.71615 l -7.11534,1.48006 c -0.19786,0.0427 -0.34078,0.21652 -0.34078,0.4197 v 4.68092 c 0,0.19785 0.13546,0.36959 0.32639,0.41545 l 6.90621,1.68811 c 0.36853,1.52234 0.93896,2.96549 1.69323,4.29195 l -3.99746,6.09574 c -0.11147,0.17013 -0.088,0.39466 0.056,0.53827 l 3.30923,3.30981 c 0.1392,0.13867 0.35625,0.16587 0.52638,0.0641 l 6.26411,-3.8044 c 1.23046,0.71 2.5574,1.26881 3.95986,1.64773 l 1.46155,7.02712 c 0.0427,0.19947 0.21706,0.34079 0.41919,0.34079 h 4.6815 c 0.19679,0 0.36852,-0.1344 0.41545,-0.32746 l 1.72148,-7.04168 c 1.44572,-0.39038 2.81303,-0.9717 4.07358,-1.71402 l 6.17301,4.04754 c 0.16959,0.112 0.39412,0.0896 0.53828,-0.0544 l 3.31038,-3.30976 c 0.14027,-0.14027 0.16533,-0.35626 0.0624,-0.52532 l -2.25351,-3.71385 -0.72905,0.2304 c -0.10613,0.032 -0.22239,-0.005 -0.28479,-0.0987 0,0 -1.4374,-2.10408 -3.2937,-4.82111 -2.21924,4.34315 -6.73407,7.31831 -11.94781,7.31831 -7.40749,0 -13.41288,-6.00561 -13.41288,-13.41341 0,-5.44942 3.2504,-10.13603 7.91642,-12.23543 v -3.46036 c -0.84925,0.29705 -1.67023,0.65529 -2.44994,1.08001 -5.9e-4,-4.9e-4 -9.6e-4,-0.002 -0.003,-0.004 l -6.31822,-4.14397 c -0.0853,-0.0554 -0.18347,-0.0778 -0.27893,-0.0683 z"
       id="path4337"
       style="fill:#f3f3f3;fill-opacity:1;stroke-width:1.41106081"
       inkscape:label="kde logo"
       inkscape:connector-curvature="0" />
  </g>
</svg>
