<?xml version="1.0" encoding="UTF-8"?>
<svg style="fill:none" version="1.1" viewBox="0 0 108 108" xmlns="http://www.w3.org/2000/svg">
	<g style="display:none">
		<g>
			<path d="m202.28 28.893h-25.151" style="display:inline;fill:none;stroke-width:11.1;stroke:#ff6966"/>
			<path d="m193.32 59.618v-21.768c0-4.9473 4.0106-8.9579 8.9579-8.9579h6.3122m-15.27 30.725c0 4.9473-4.0106 8.9579-8.9579 8.9579-4.9473 4e-6 -8.9579-4.0106-8.9579-8.9579s4.0106-8.9579 8.9579-8.9579c4.9473 2e-6 8.9579 4.0106 8.9579 8.9579z" style="fill:none;stroke-width:11.1;stroke:#ffffff"/>
			<circle cx="205.85" cy="41.311" r="2.746" style="fill:#ff6966"/>
		</g>
	</g>
	<g id="background">
		<path d="m0 0h108v108h-108z" style="fill:#1374e8;stroke-linecap:round;stroke-width:59.723"/>
	</g>
	<g id="foreground">
		<g transform="matrix(.92161 0 0 .92161 -120.39 10.539)" style="fill:none;stroke-width:1.0851">
			<path d="m179.13 23.343h27.463c1.108 0 2 0.892 2 2v7.1c0 1.108-0.892 2-2 2h-27.463c-1.108 0-2-0.892-2-2v-7.1c0-1.108 0.892-2 2-2z" style="fill:#ff6966;stroke-width:12.044"/>
			<path d="m202.28 23.342c-7.9467 0-14.508 6.5611-14.508 14.508v7.7168c-1.0995-0.27108-2.2292-0.45703-3.4062-0.45703-7.9467-6e-6 -14.51 6.5611-14.51 14.508 0 7.9467 6.563 14.508 14.51 14.508 7.9467-3e-6 14.508-6.5611 14.508-14.508v-21.768c0-1.9478 1.4584-3.4062 3.4062-3.4062h2.9336v-11.102zm-17.914 32.869c1.9478 1e-6 3.4062 1.4584 3.4062 3.4062 0 1.9478-1.4584 3.4082-3.4062 3.4082s-3.4082-1.4604-3.4082-3.4082c0-1.9478 1.4604-3.4063 3.4082-3.4062z" style="-inkscape-stroke:none;color:#000000;fill:#ffffff;stroke-width:1.0851"/>
			<path d="m208.59 41.311a2.746 2.746 0 0 1-2.746 2.746 2.746 2.746 0 0 1-2.746-2.746 2.746 2.746 0 0 1 2.746-2.746 2.746 2.746 0 0 1 2.746 2.746z" style="fill:#ff6966;stroke-width:12.044"/>
			<path d="m204.05 23.343h2.5407c1.108 0 2 0.892 2 2v7.1c0 1.108-0.892 2-2 2h-2.5407c-1.108 0-2-0.892-2-2v-7.1c0-1.108 0.892-2 2-2z" style="fill:#ffffff;stroke-width:12.044"/>
		</g>
	</g>
</svg>
