<?xml version="1.0" encoding="UTF-8" standalone="no"?>
<svg
   xmlns:dc="http://purl.org/dc/elements/1.1/"
   xmlns:cc="http://creativecommons.org/ns#"
   xmlns:rdf="http://www.w3.org/1999/02/22-rdf-syntax-ns#"
   xmlns:svg="http://www.w3.org/2000/svg"
   xmlns="http://www.w3.org/2000/svg"
   xmlns:sodipodi="http://sodipodi.sourceforge.net/DTD/sodipodi-0.dtd"
   xmlns:inkscape="http://www.inkscape.org/namespaces/inkscape"
   version="1.1"
   id="svg2"
   xml:space="preserve"
   width="108"
   height="108"
   viewBox="0 0 108 108"
   sodipodi:docname="com.emn8.mobilem8.nativeapp.popeyes.svg"
   inkscape:version="0.92.5 (2060ec1f9f, 2020-04-08)"><sodipodi:namedview
     pagecolor="#ffffff"
     bordercolor="#666666"
     borderopacity="1"
     objecttolerance="10"
     gridtolerance="10"
     guidetolerance="10"
     inkscape:pageopacity="0"
     inkscape:pageshadow="2"
     inkscape:window-width="640"
     inkscape:window-height="480"
     id="namedview9"
     showgrid="false"
     inkscape:zoom="10.24"
     inkscape:cx="52.822631"
     inkscape:cy="51.466227"
     inkscape:current-layer="svg2" /><metadata
     id="metadata8"><rdf:RDF><cc:Work
         rdf:about=""><dc:format>image/svg+xml</dc:format><dc:type
           rdf:resource="http://purl.org/dc/dcmitype/StillImage" /><dc:title /></cc:Work></rdf:RDF></metadata><defs
     id="defs6" /><g
     inkscape:groupmode="layer"
     id="background"
     inkscape:label="Background"><rect
       y="0"
       x="0"
       height="108"
       width="108"
       id="rect953"
       style="display:inline;opacity:1;fill:#ff7c00;fill-opacity:1;fill-rule:nonzero;stroke:none;stroke-width:1.38970232;stroke-linecap:round;stroke-linejoin:round;stroke-miterlimit:4;stroke-dasharray:none;stroke-opacity:1" /></g><g
     inkscape:groupmode="layer"
     id="foreground"
     inkscape:label="Foreground">
 <path
     inkscape:connector-curvature="0"
     id="path2274"
     d="m 52.573187,30.324679 c -1.12291,0 -2.472411,0.7766 -2.648978,2.54228 -0.26598,2.394213 1.649172,3.618293 2.28768,3.830759 0.413496,0.118307 0.92526,0.317934 1.671855,0.317934 0.597948,0 1.347213,-0.128027 2.317773,-0.530414 -0.05311,2.180947 -0.05315,7.235002 -0.05315,9.78856 0,3.351895 0.319525,8.671451 -1.117003,11.596813 -1.330219,2.660996 -2.797424,3.907107 -4.697503,3.907107 -0.15154,0 -0.305568,-0.0079 -0.462741,-0.02365 -2.393812,-0.318852 -3.244921,-2.553327 -2.393789,-6.702601 0.851133,-4.150236 1.542625,-8.298819 -1.968699,-11.384332 -1.341401,-1.176584 -3.107064,-1.952404 -5.188297,-1.952404 -3.284055,0 -7.35373,1.931473 -11.782421,7.271972 l 4.735019,5.745256 c 0,0 1.401399,-2.087551 3.423078,-2.087551 0.678589,0 1.427073,0.235775 2.216,0.864309 3.138872,2.500442 0.957632,7.607271 0.638296,10.53336 -0.372129,3.777064 0.585357,6.809545 2.075004,9.203353 1.915125,3.085517 6.383736,5.639127 11.171918,6.543533 0.372291,0.05328 0.744806,0.106184 1.06398,0.159462 l 0.531924,28.457235 3.617491,9.3e-4 0.478839,-28.351781 C 66.78833,79.416453 78.492221,71.277151 73.278872,57.658142 70.891906,51.397782 65.805681,42.068853 65.778322,42.018153 h 0.05236 c 2.021605,-0.532764 2.394185,-3.139475 0.05309,-4.522075 l 1.70293,-1.596693 -2.447338,-1.009973 0.904589,-3.35192 -5.267273,2.074733 c 0,0 -1.329536,-2.766013 -3.351135,-2.819933 -1.756026,0 -2.553514,1.224027 -2.553514,1.224027 0,0 -0.425755,-1.276334 -1.649583,-1.59584 -0.198856,-0.06357 -0.419261,-0.09579 -0.649265,-0.09579 z m 9.096783,5.259253 c 0.432971,0 0.840156,0.257547 1.075148,0.688106 0.3195,0.585067 0.160195,1.329454 -0.425684,1.595827 -0.140028,0.07003 -0.291317,0.103813 -0.443422,0.103813 -0.42412,0 -0.849895,-0.25832 -1.045451,-0.68888 -0.319501,-0.638186 -0.160151,-1.330266 0.371807,-1.595839 0.154516,-0.07001 0.313082,-0.103027 0.467602,-0.103027 z"
     style="fill:#ffffff;fill-opacity:1;fill-rule:nonzero;stroke:none;stroke-width:0.00804777" />
 </g></svg>
