<?xml version="1.0" encoding="UTF-8" standalone="no"?>
<svg
   style="fill:none"
   version="1.1"
   viewBox="0 0 108 108"
   id="svg1484"
   sodipodi:docname="private_internet_access.svg"
   inkscape:version="1.1.2 (1:1.1+202202050950+0a00cf5339)"
   xmlns:inkscape="http://www.inkscape.org/namespaces/inkscape"
   xmlns:sodipodi="http://sodipodi.sourceforge.net/DTD/sodipodi-0.dtd"
   xmlns="http://www.w3.org/2000/svg"
   xmlns:svg="http://www.w3.org/2000/svg">
  <defs
     id="defs1488" />
  <sodipodi:namedview
     id="namedview1486"
     pagecolor="#505050"
     bordercolor="#ffffff"
     borderopacity="1"
     inkscape:pageshadow="0"
     inkscape:pageopacity="0"
     inkscape:pagecheckerboard="1"
     showgrid="false"
     inkscape:zoom="16.166667"
     inkscape:cx="57.587629"
     inkscape:cy="52.824743"
     inkscape:current-layer="foreground" />
  <g
     id="background"
     inkscape:groupmode="layer">
    <rect
       width="108"
       height="108"
       style="fill:#ffffff;stroke-width:10.429;stroke-linecap:square"
       id="rect1476"
       x="0"
       y="0" />
  </g>
  <g
     id="foreground"
     inkscape:groupmode="layer">
    <path
       style="fill:#56b14e;stroke-width:1.0509"
       d="m 53.90477,30.5998 a 13.749,13.749 0 0 0 -13.75,13.75 v 2.7504 a 3.2483,3.2483 0 0 0 -2.6662,3.1322 4.6145,4.6145 0 0 0 -0.63833,2.3399 v 17.627 a 4.6407,4.6407 0 0 0 3.4298,4.4786 3.3933,3.3933 0 0 0 3.1034,2.0197 h 3.8567 a 3.3933,3.3933 0 0 0 3.0234,-1.8534 h 7.075 a 3.3912,3.3912 0 0 0 3.0213,1.8534 h 3.8588 a 3.3933,3.3933 0 0 0 3.0562,-1.9232 4.6407,4.6407 0 0 0 3.8752,-4.5751 v -17.627 a 4.6124,4.6124 0 0 0 -0.6096,-2.2927 v -0.02259 a 3.2494,3.2494 0 0 0 -2.3624,-3.1075 v -2.7997 a 13.749,13.749 0 0 0 -13.748,-13.75 z"
       id="path1876" />
    <path
       style="fill:#ffffff;stroke-width:1.0509;fill-opacity:1"
       d="m 53.45118,53.7855 a 3.7927,3.7927 0 0 1 4.3411,3.7541 l 0.0042,-0.0021 a 3.7832,3.7832 0 0 1 -1.6625,3.1383 0.5885,0.5885 0 0 0 -0.25247,0.57265 l 0.93391,6.3341 a 0.59375,0.59375 0 0 1 -0.58703,0.67938 h -4.454 a 0.5927,0.5927 0 0 1 -0.58497,-0.67939 l 0.9339,-6.3341 a 0.58114,0.58114 0 0 0 -0.24836,-0.56854 3.7927,3.7927 0 0 1 1.5763,-6.8944 z"
       id="path1880" />
    <path
       style="fill:#ffffff;stroke-width:1.0509;fill-opacity:1"
       d="m 53.96225,35.5135 h 0.42077 a 8.6089,8.6089 0 0 1 8.6103,8.6083 v 2.8858 h -1.9458 a 3.2367,3.2367 0 0 0 -2.266,0.92158 h -9.5381 a 3.2336,3.2336 0 0 0 -2.2639,-0.92158 h -1.6256 v -2.8858 a 8.6089,8.6089 0 0 1 8.6083,-8.6083 z"
       id="path1878" />
    <path
       style="fill:#56b14e;stroke-width:1.0509"
       d="m 56.1689,44.2478 a 3.2378,3.2378 0 0 1 -4.336,0 0.40459,0.40459 0 0 0 -0.54856,0.59375 3.965,3.965 0 0 0 5.4352,0 0.40490015,0.40490015 0 1 0 -0.55067,-0.59375"
       id="path1874" />
    <path
       style="fill:#56b14e;stroke-width:1.0509"
       d="M 57.8503,40.1115 A 1.5595,1.5595 0 1 0 59.4088,41.67 1.5595,1.5595 0 0 0 57.8503,40.1115"
       id="path1872" />
    <path
       style="fill:#56b14e;stroke-width:1.0509"
       d="M 51.712,41.67 A 1.5595,1.5595 0 1 0 50.1525,43.2295 1.5585,1.5585 0 0 0 51.712,41.67"
       id="path1480" />
  </g>
</svg>
