<?xml version="1.0" encoding="UTF-8"?>
<svg width="108" height="108" version="1.1" viewBox="0 0 28.575 28.575" xmlns="http://www.w3.org/2000/svg">
	<defs>
		<linearGradient id="linearGradient1584" x1="67.719" x2="67.719" y1="219.83" y2="-84.39" gradientTransform="scale(.21098)" gradientUnits="userSpaceOnUse">
			<stop style="stop-color:#ff9e2e" offset="0"/>
			<stop style="stop-color:#fdd864" offset="1"/>
		</linearGradient>
	</defs>
	<g id="background">
		<path d="m0 0h28.575v28.575h-28.575z" style="fill:url(#linearGradient1584);stroke-width:0"/>
	</g>
	<g id="foreground">
		<path d="m12.106 9.9006c-0.4949 4e-3 -0.9952 0.17695-1.3523 0.52595-0.6721 0.657-0.4731 1.5992-0.4731 1.5992s-0.82559-0.3514-1.416 0.0937c-0.59035 0.4451-0.47588 1.2178-0.47588 1.2178s-0.43894-0.304-0.6529 0.0874c-0.21397 0.3914 0.35129 0.5172 0.35129 0.5172h1.9717c0.0328-0.0841 0.0713-0.1661 0.1158-0.2449 0.2877-0.5459 0.844-0.9339 1.4519-1.0306 0.5759-0.1086 1.1675 0.0861 1.646 0.4036 0.0463 0.0541 0.058 0.0167 0.0737-0.0308 0.1972-0.43 0.4361-0.8549 0.7591-1.203v-0.1064s-0.1089-0.9047-0.8043-1.4492c-0.3259-0.2552-0.7583-0.3834-1.195-0.37996zm2.9628 1.9094c-1.1052 0.3978-1.6191 2.0696-1.6191 2.0696s-0.7368-0.6908-1.5523-0.6451c-0.8616 0.0482-1.4009 0.5817-1.6195 1.2563-0.2059 0.6355 0.1369 1.3393 0.1369 1.3393s-0.90922 0.1512-1.0707 1.0152c-0.1363 0.7496 0.37386 1.4168 1.1501 1.4168 0.9036 0 1.1514-0.307 1.1514-0.307l2.8811-2.8761s0.5961-0.653 1.6624-0.3612c1.0663 0.2919 1.5091 1.1984 1.3804 1.8504-0.1288 0.652-0.8842 0.9613-1.3332 0.4687-0.449-0.4927-0.0747-1.2261 0.3815-1.2988-0.5616-0.2325-1.4956 0.3171-1.5004 1.2082-5e-3 0.8911 0.6038 1.3159 1.189 1.3159h2.8605s1.4445-0.0549 1.4445-1.6292-1.5535-1.6091-1.5535-1.6091l-0.609 0.613s0.7034-1.9802-0.3114-3.1237c-0.9066-0.9276-1.986-1.0867-3.0685-0.7032z" style="fill:#ffffff"/>
	</g>
</svg>
