<?xml version="1.0" encoding="UTF-8"?>
<svg width="108" height="108" version="1.1" viewBox="0 0 28.575 28.575" xmlns="http://www.w3.org/2000/svg" xmlns:xlink="http://www.w3.org/1999/xlink">
	<defs>
		<linearGradient id="linearGradient1584" x1="67.719" x2="67.719" y1="219.83" y2="-84.39" gradientTransform="scale(.21098)" gradientUnits="userSpaceOnUse">
			<stop style="stop-color:#ff9e2e" offset="0"/>
			<stop style="stop-color:#fdd864" offset="1"/>
		</linearGradient>
	</defs>
	<g id="background">
		<path d="m0 0h28.575v28.575h-28.575z" style="fill:url(#linearGradient1584);stroke-width:0"/>
	</g>
	<g id="foreground" transform="translate(449.41 493.41)">
		<path d="m-437.5-483.3c-0.4949 4e-3 -0.99526 0.17697-1.3523 0.52597-0.67213 0.65693-0.47312 1.5992-0.47312 1.5992s-0.8256-0.3514-1.416 0.0937c-0.59035 0.44508-0.47588 1.2178-0.47588 1.2178s-0.43894-0.30405-0.6529 0.0874c-0.21397 0.39142 0.35129 0.51713 0.35129 0.51713h1.9717c0.0328-0.0841 0.0713-0.16603 0.11576-0.24483 0.28772-0.54593 0.844-0.93397 1.4519-1.0306 0.57589-0.10865 1.1675 0.0861 1.646 0.40361 0.0463 0.0541 0.058 0.0167 0.0737-0.0308 0.19726-0.43001 0.43607-0.85492 0.75909-1.203v-0.10641s-0.10887-0.90473-0.80423-1.4492c-0.32595-0.2552-0.75836-0.38342-1.195-0.37998zm2.9628 1.9094c-1.1052 0.39781-1.6191 2.0696-1.6191 2.0696s-0.73686-0.6908-1.5523-0.6451c-0.86162 0.0483-1.4009 0.58174-1.6195 1.2564-0.20591 0.6354 0.13686 1.3393 0.13686 1.3393s-0.90921 0.15111-1.0707 1.0152c-0.1363 0.7496 0.37386 1.4168 1.1501 1.4168 0.9036 0 1.1514-0.30701 1.1514-0.30701l2.8811-2.8761s0.59609-0.65307 1.6624-0.36122c1.0663 0.29186 1.5091 1.1984 1.3804 1.8504-0.12875 0.65201-0.88419 0.96133-1.3332 0.46866-0.44904-0.49268-0.0747-1.2261 0.38146-1.2988-0.56154-0.23252-1.4956 0.31712-1.5004 1.2082-5e-3 0.89112 0.6038 1.3159 1.189 1.3159h2.8605s1.4445-0.0549 1.4445-1.6292c0-1.5743-1.5535-1.6091-1.5535-1.6091l-0.60893 0.61303s0.70342-1.9802-0.31143-3.1237c-0.90659-0.92761-1.986-1.0867-3.0685-0.70321z" style="fill:#ffffff"/>
	</g>
</svg>
