<?xml version="1.0" encoding="UTF-8" standalone="no"?>
<svg
   width="28.575mm"
   height="28.575mm"
   version="1.1"
   viewBox="0 0 28.575 28.575"
   id="svg1571"
   sodipodi:docname="simply_plural.svg"
   inkscape:version="1.1.2 (1:1.1+202202050950+0a00cf5339)"
   xmlns:inkscape="http://www.inkscape.org/namespaces/inkscape"
   xmlns:sodipodi="http://sodipodi.sourceforge.net/DTD/sodipodi-0.dtd"
   xmlns="http://www.w3.org/2000/svg"
   xmlns:svg="http://www.w3.org/2000/svg">
  <sodipodi:namedview
     id="namedview1573"
     pagecolor="#505050"
     bordercolor="#ffffff"
     borderopacity="1"
     inkscape:pageshadow="0"
     inkscape:pageopacity="0"
     inkscape:pagecheckerboard="1"
     inkscape:document-units="mm"
     showgrid="false"
     inkscape:zoom="11.431559"
     inkscape:cx="55.4605"
     inkscape:cy="59.396971"
     inkscape:current-layer="foreground" />
  <defs
     id="defs1561">
    <linearGradient
       id="linearGradient22201"
       x1="11.943"
       x2="16.436"
       y1="5.9356"
       y2="22.704"
       gradientUnits="userSpaceOnUse">
      <stop
         style="stop-color:#fdbf48"
         offset="0"
         id="stop1554" />
      <stop
         style="stop-color:#f65963"
         offset=".51532"
         id="stop1556" />
      <stop
         style="stop-color:#90117d"
         offset="1"
         id="stop1558" />
    </linearGradient>
  </defs>
  <g
     id="background"
     inkscape:groupmode="layer">
    <rect
       y="-3.5526999e-15"
       width="28.575001"
       height="28.575001"
       style="mix-blend-mode:normal;fill:url(#linearGradient22201)"
       id="rect1563"
       x="0" />
  </g>
  <g
     id="foreground"
     inkscape:groupmode="layer">
    <path
       d="M 0,0 V 28.575 H 28.575 V 0 Z m 13.568,7.3814 c 0.1503,-0.0052 0.3013,-4.5e-4 0.4517,0.01499 0.6016,0.06175 1.192,0.29544 1.6702,0.76946 0.8894,0.88171 1.0036,2.0705 0.7033,2.9652 -0.3216,0.9579 -1.2375,1.7362 -2.42,2.5115 l 3.0096,3.1326 c 0.5363,-1.2049 0.7535,-2.4899 0.8144,-3.1657 0.034,-0.3759 0.3662,-0.653 0.7421,-0.6191 0.3759,0.034 0.653,0.3662 0.6191,0.7421 -0.0715,0.7928 -0.3013,2.5217 -1.156,4.1057 l 1.9161,1.9936 c 0.2605,0.2721 0.2517,0.7036 -0.0196,0.9648 -0.1307,0.1258 -0.306,0.1945 -0.4874,0.1909 -0.1814,-0.0036 -0.3538,-0.0791 -0.4795,-0.21 l -1.744,-1.8164 c -0.2967,0.343 -0.559,0.7061 -0.9592,0.9844 -1.2473,0.8678 -2.6729,1.1166 -3.9082,0.9411 -1.2354,-0.1755 -2.3252,-0.7547 -2.867,-1.7204 -0.46357,-0.826 -0.69595,-1.8892 -0.28732,-2.9651 0.36983,-0.9739 1.2863,-1.8925 2.711,-2.7694 l -0.1406,-0.1467 -0.002,-0.0016 c 0,0 -1.1872,-1.1351 -1.2852,-2.6567 -0.0914,-1.4179 0.7684,-2.5142 1.8324,-2.9605 0.393,-0.16486 0.8355,-0.26914 1.2862,-0.28474 z M 13.7107,8.756 C 13.406,8.74845 13.0904,8.80829 12.811,8.9255 c -0.6226,0.26117 -1.0537,0.7474 -0.9979,1.6134 0.0491,0.7623 0.9157,1.8066 0.9157,1.8066 l 0.2811,0.293 c 1.1512,-0.7502 1.9205,-1.4435 2.0883,-1.943 C 15.2634,10.2033 15.2434,9.6471 14.7287,9.1369 14.5048,8.91495 14.184,8.79468 13.8404,8.7638 13.7974,8.75993 13.7542,8.75712 13.7107,8.75604 Z m -0.8842,5.6638 c -1.4473,0.8348 -2.1405,1.6279 -2.3828,2.266 -0.25,0.6582 -0.1275,1.2268 0.201,1.8123 0.2502,0.4459 0.9567,0.9054 1.8691,1.0351 0.9125,0.1296 1.987,-0.0505 2.9337,-0.709 0.3253,-0.2263 0.555,-0.5422 0.7968,-0.8455 z"
       style="mix-blend-mode:normal;fill:#ffffff"
       id="path1567" />
  </g>
</svg>
