<?xml version="1.0" encoding="UTF-8" standalone="no"?>
<svg
   width="28.575mm"
   height="28.575mm"
   version="1.1"
   viewBox="0 0 28.575 28.575"
   id="svg1571"
   sodipodi:docname="simply_plural.svg"
   inkscape:version="1.1.2 (1:1.1+202202050950+0a00cf5339)"
   xmlns:inkscape="http://www.inkscape.org/namespaces/inkscape"
   xmlns:sodipodi="http://sodipodi.sourceforge.net/DTD/sodipodi-0.dtd"
   xmlns="http://www.w3.org/2000/svg"
   xmlns:svg="http://www.w3.org/2000/svg">
  <sodipodi:namedview
     id="namedview1573"
     pagecolor="#505050"
     bordercolor="#ffffff"
     borderopacity="1"
     inkscape:pageshadow="0"
     inkscape:pageopacity="0"
     inkscape:pagecheckerboard="1"
     inkscape:document-units="mm"
     showgrid="false"
     inkscape:zoom="11.431559"
     inkscape:cx="42.776318"
     inkscape:cy="54.848162"
     inkscape:current-layer="foreground" />
  <defs
     id="defs1561">
    <linearGradient
       id="linearGradient22201"
       x1="11.943"
       x2="16.436"
       y1="5.9356"
       y2="22.704"
       gradientUnits="userSpaceOnUse">
      <stop
         style="stop-color:#fdbf48"
         offset="0"
         id="stop1554" />
      <stop
         style="stop-color:#f65963"
         offset=".51532"
         id="stop1556" />
      <stop
         style="stop-color:#90117d"
         offset="1"
         id="stop1558" />
    </linearGradient>
  </defs>
  <g
     inkscape:groupmode="layer"
     id="layer1"
     inkscape:label="extras"
     style="display:none">
    <path
       style="opacity:1;fill:none;stroke:#000000;stroke-width:1.3499;stroke-linecap:round;stroke-linejoin:miter;stroke-miterlimit:4;stroke-dasharray:none;stroke-opacity:1"
       d="m 18.477247,13.66584 c -0.194207,2.282301 -1.144841,5.377006 -3.993583,6.408379 -1.907568,0.690626 -4.397358,-0.104918 -4.7943428,-2.115503 -0.3143068,-1.59185 0.3979858,-2.683613 3.2553538,-4.43263 1.834504,-1.122914 2.788746,-1.905295 2.894701,-3.154735 0.105954,-1.2494391 -0.789478,-2.2507553 -2.092121,-2.2966659 -1.302643,-0.045911 -2.281858,0.7644873 -2.546204,1.6838705 -0.286003,0.9947054 0.192044,2.2114694 1.176489,3.2070904 0.984444,0.995621 6.805147,7.048433 6.805147,7.048433"
       id="path11720-7"
       sodipodi:nodetypes="cssszzszc" />
  </g>
  <g
     id="background"
     inkscape:groupmode="layer">
    <rect
       y="-3.5526999e-15"
       width="28.575001"
       height="28.575001"
       style="mix-blend-mode:normal;fill:url(#linearGradient22201)"
       id="rect1563"
       x="0" />
  </g>
  <g
     id="foreground"
     inkscape:groupmode="layer">
    <path
       id="rect12394"
       style="fill:#ffffff;fill-opacity:1;stroke:none;stroke-width:6.94964;stroke-linecap:round;stroke-miterlimit:4;stroke-dasharray:none"
       d="M 0,0 V 108 H 108 V 0 Z m 51.691406,28.013672 c 0.18201,-9.45e-4 0.366335,0.0013 0.550782,0.0078 6.061689,0.21364 10.652413,5.292941 10.15039,11.212891 -0.245839,2.898992 -1.600377,5.449629 -3.662109,7.558594 -1.457605,1.490997 -3.68007,2.865332 -5.824219,4.27539 3.719524,3.834913 6.332224,6.53814 11.138672,11.529297 1.738329,-3.752753 2.8271,-7.943453 3.136719,-11.582031 a 2.4992883,2.4992883 0 0 1 2.703125,-2.28125 2.4992883,2.4992883 0 0 1 2.28125,2.703125 c -0.380686,4.473781 -1.487312,9.737761 -3.986328,14.541016 -0.09551,0.183594 -0.277023,0.327554 -0.376954,0.509765 C 69.862838,68.629111 74.083984,73 74.083984,73 a 2.4992883,2.4992883 0 0 1 -0.06641,3.535156 2.4992883,2.4992883 0 0 1 -3.535156,-0.06641 c 0,0 -3.94271,-4.079114 -5.699219,-5.904297 -2.35203,2.815166 -5.15371,5.327365 -9.050781,6.738281 -4.147892,1.501728 -8.771156,1.397927 -12.748047,-0.191406 -3.976894,-1.589337 -7.389477,-4.872604 -8.304687,-9.507812 -0.672463,-3.405778 -0.146602,-6.878301 2.044921,-9.929688 1.71698,-2.390657 5.113253,-4.691302 8.740235,-7.123047 -0.02336,-0.02366 -0.132376,-0.13981 -0.154297,-0.162109 -4.076719,-4.123004 -6.395417,-9.405977 -4.982422,-14.320313 1.282638,-4.460954 5.720978,-8.0254 11.363281,-8.054687 z m 0.0332,5 c -3.555447,0.02035 -5.977901,2.30045 -6.591797,4.435547 -0.705101,2.452312 0.514572,6.17535 3.728516,9.425781 0.08341,0.08436 0.459974,0.481673 0.560547,0.583984 2.328593,-1.50235 4.553378,-2.954012 5.736328,-4.164062 1.501357,-1.535751 2.111318,-2.75287 2.257813,-4.480469 0.282663,-3.333224 -1.758249,-5.668553 -5.34375,-5.794922 -0.117028,-0.0041 -0.232965,-0.0065 -0.347657,-0.0059 z m -2.820312,21.095703 c -3.757882,2.475878 -6.880079,4.755247 -8.119141,6.480469 -1.481461,2.062722 -1.694516,3.558143 -1.203125,6.046875 0.554797,2.809852 2.489593,4.726515 5.25586,5.832031 2.76627,1.105523 6.281564,1.19429 9.197265,0.138672 3.179362,-1.15107 5.410152,-3.235621 7.292969,-5.625 -5.172299,-5.371389 -8.524569,-8.855296 -12.423828,-12.873047 z"
       transform="scale(0.26458333)" />
  </g>
</svg>
