<?xml version="1.0" encoding="UTF-8" standalone="no"?>
<svg
   xmlns:dc="http://purl.org/dc/elements/1.1/"
   xmlns:cc="http://creativecommons.org/ns#"
   xmlns:rdf="http://www.w3.org/1999/02/22-rdf-syntax-ns#"
   xmlns:svg="http://www.w3.org/2000/svg"
   xmlns="http://www.w3.org/2000/svg"
   xmlns:sodipodi="http://sodipodi.sourceforge.net/DTD/sodipodi-0.dtd"
   xmlns:inkscape="http://www.inkscape.org/namespaces/inkscape"
   width="907.52484mm"
   height="907.52484mm"
   viewBox="0 0 907.52483 907.52485"
   version="1.1"
   id="svg8"
   inkscape:version="1.0.1 (0767f8302a, 2020-10-17)"
   sodipodi:docname="taco_bell.svg"
   inkscape:export-filename="/home/reese/Pictures/icons/png/taco_bell.png"
   inkscape:export-xdpi="28.659931"
   inkscape:export-ydpi="28.659931">
  <defs
     id="defs2">
    <filter
       style="color-interpolation-filters:sRGB"
       inkscape:label="Drop Shadow"
       id="filter4754">
      <feFlood
         flood-opacity="0.2"
         flood-color="rgb(0,0,0)"
         result="flood"
         id="feFlood4744" />
      <feComposite
         in="flood"
         in2="SourceGraphic"
         operator="in"
         result="composite1"
         id="feComposite4746" />
      <feGaussianBlur
         in="composite1"
         stdDeviation="20"
         result="blur"
         id="feGaussianBlur4748" />
      <feOffset
         dx="0"
         dy="10"
         result="offset"
         id="feOffset4750" />
      <feComposite
         in="SourceGraphic"
         in2="offset"
         operator="over"
         result="composite2"
         id="feComposite4752" />
    </filter>
  </defs>
  <sodipodi:namedview
     id="base"
     pagecolor="#ffffff"
     bordercolor="#666666"
     borderopacity="1.0"
     inkscape:pageopacity="0.0"
     inkscape:pageshadow="2"
     inkscape:zoom="0.1959275"
     inkscape:cx="1390.5552"
     inkscape:cy="1743.079"
     inkscape:document-units="mm"
     inkscape:current-layer="layer1"
     showgrid="false"
     fit-margin-top="0"
     fit-margin-left="0"
     fit-margin-right="0"
     fit-margin-bottom="0"
     inkscape:window-width="1892"
     inkscape:window-height="1022"
     inkscape:window-x="14"
     inkscape:window-y="44"
     inkscape:window-maximized="1"
     inkscape:snap-global="true"
     inkscape:snap-bbox="true"
     inkscape:bbox-paths="true"
     inkscape:bbox-nodes="true"
     inkscape:snap-bbox-edge-midpoints="true"
     inkscape:snap-bbox-midpoints="true"
     inkscape:snap-nodes="true"
     inkscape:snap-text-baseline="true"
     inkscape:snap-page="true"
     inkscape:snap-to-guides="true"
     inkscape:document-rotation="0" />
  <metadata
     id="metadata5">
    <rdf:RDF>
      <cc:Work
         rdf:about="">
        <dc:format>image/svg+xml</dc:format>
        <dc:type
           rdf:resource="http://purl.org/dc/dcmitype/StillImage" />
        <dc:title />
      </cc:Work>
    </rdf:RDF>
  </metadata>
  <g
     inkscape:label="Layer 1"
     inkscape:groupmode="layer"
     id="layer1"
     transform="translate(449.41339,493.41072)">
    <circle
       style="fill:#68298c;fill-opacity:1;stroke:none;stroke-width:0.264583;filter:url(#filter4754)"
       id="path4586"
       cx="4.3490262"
       cy="-39.648304"
       r="378.13535"
       transform="matrix(1.03,0,0,1.03,-0.13047101,1.1894489)" />
    <g
       id="g3735"
       style="fill:#ffffff;fill-opacity:1;stroke:none"
       transform="matrix(0.96670325,0,0,0.96670325,2.9251064,-1.3806014)">
      <path
         id="path3724"
         transform="scale(0.26458333)"
         d="m -335.70898,-1071.0664 c -76.37492,-0.2019 -207.02454,77.7572 -237.22266,158.09765 -9.02256,30.67669 19.84932,68.57092 17.14258,94.73633 -2.70675,26.1654 -103.75928,116.39062 -158.79688,236.39062 -55.03759,120 -44.21021,285.11375 -36.99218,369.92578 7.21802,84.81203 83.9082,401.50391 83.9082,401.50391 0,0 245.4147,-194.8872047 351.88086,-259.849609 106.46616,-64.962411 290.526798,-147.971141 304.962888,-152.482421 14.4360905,-4.51128 21.652608,-10.82555 24.359375,-4.50977 2.706767,6.31579 -6.3158487,18.04518 -40.601562,40.60157 -34.285713,22.55638 -80.300961,43.30658 -202.105471,122.705074 C -350.97834,15.451231 -526.015,148.98596 -639.69922,285.22656 -753.3834,421.46718 -842.70667,618.15812 -699.24805,717.40625 -555.78939,816.65434 -233.68328,735.45156 -50.525391,679.51172 132.6325,623.57188 409.62427,489.13546 581.95508,376.35352 754.28589,263.57157 961.80368,79.512175 1051.127,-55.826172 c 89.3233,-135.338348 86.6171,-202.105468 86.6171,-202.105468 0,0 5.4139,-76.69084 -16.2402,-110.97656 -21.6542,-34.28571 -87.5188,-55.94067 -139.8496,-68.57227 -52.33081,-12.63156 -214.73613,-41.50309 -272.48047,-73.08203 -57.74438,-31.57897 -131.72932,-120.0012 -159.69922,-152.48242 -27.96994,-32.48119 -144.36133,-147.06641 -144.36133,-147.06641 0,0 -170.52758,-152.48161 -332.933592,-184.06055 -162.406012,-31.57892 -217.443358,-4.51171 -217.443358,-4.51171 0,0 -44.20957,12.63169 -90.22461,0.90234 -46.01504,-11.72935 -45.11333,-63.15715 -85.71484,-72.17965 -4.56337,-0.7307 -9.4142,-1.092 -14.50586,-1.1055 z M 817.4707,-198.11523 c 36.86705,-0.23259 64.76592,6.60532 80.27344,22.28906 79.3985,80.300748 -142.36342,360.49886 -508.57031,573.58789 C 22.966956,610.85073 -440.2129,701.44573 -482.32031,599.36719 -524.42769,497.28861 -197.42697,231.06455 144.36133,40.714844 361.44545,-76.176599 665.57848,-197.157 817.4707,-198.11523 Z"
         style="fill:#ffffff;fill-opacity:1;stroke:none;stroke-width:1px;stroke-linecap:butt;stroke-linejoin:miter;stroke-opacity:1"
         inkscape:connector-curvature="0" />
      <path
         inkscape:connector-curvature="0"
         id="path3730"
         d="m -74.441597,106.59156 c 0,0 39.162019,41.86285 88.78975,8.44009 49.627731,-33.422755 21.775433,-86.257721 21.775433,-86.257721 0,0 -29.3715139,13.504143 -55.704595,31.565937 -26.333081,18.061794 -54.860588,46.251694 -54.860588,46.251694 z"
         style="fill:#ffffff;fill-opacity:1;stroke:none;stroke-width:0.264583px;stroke-linecap:butt;stroke-linejoin:miter;stroke-opacity:1" />
    </g>
  </g>
</svg>
