<?xml version="1.0" encoding="UTF-8" standalone="no"?>
<svg
   width="108"
   height="108"
   viewBox="0 0 28.575001 28.575001"
   version="1.1"
   id="svg8"
   inkscape:version="1.1.2 (1:1.1+202202050950+0a00cf5339)"
   sodipodi:docname="taco_bell.svg"
   inkscape:export-filename="/home/reese/Pictures/icons/png/taco_bell.png"
   inkscape:export-xdpi="28.659931"
   inkscape:export-ydpi="28.659931"
   xmlns:inkscape="http://www.inkscape.org/namespaces/inkscape"
   xmlns:sodipodi="http://sodipodi.sourceforge.net/DTD/sodipodi-0.dtd"
   xmlns="http://www.w3.org/2000/svg"
   xmlns:svg="http://www.w3.org/2000/svg"
   xmlns:rdf="http://www.w3.org/1999/02/22-rdf-syntax-ns#"
   xmlns:cc="http://creativecommons.org/ns#"
   xmlns:dc="http://purl.org/dc/elements/1.1/">
  <defs
     id="defs2">
    <clipPath
       clipPathUnits="userSpaceOnUse"
       id="clipPath937">
      <path
         d="M 0,807 H 712 V 0 H 0 Z"
         id="path935" />
    </clipPath>
    <mask
       maskUnits="userSpaceOnUse"
       x="0"
       y="0"
       width="1"
       height="1"
       id="mask951">
      <g
         id="g967">
        <g
           clip-path="url(#clipPath945)"
           id="g965">
          <path
             d="m 163.75,548.25 h 384.5 v -384.5 h -384.5 z"
             style="fill:#000000;fill-opacity:1;fill-rule:nonzero;stroke:none"
             id="path953" />
          <g
             id="g963">
            <g
               id="g955" />
            <g
               id="g961">
              <g
                 clip-path="url(#clipPath949)"
                 id="g959">
                <path
                   d="M 99.917,612.083 H 612.586 V 99.414 H 99.917 Z"
                   style="fill:#ffffff;fill-opacity:1;fill-rule:nonzero;stroke:none"
                   id="path957" />
              </g>
            </g>
          </g>
        </g>
      </g>
    </mask>
    <clipPath
       clipPathUnits="userSpaceOnUse"
       id="clipPath945">
      <path
         d="m 163.75,548.25 h 384.5 v -384.5 h -384.5 z"
         id="path943" />
    </clipPath>
    <clipPath
       clipPathUnits="userSpaceOnUse"
       id="clipPath949">
      <path
         d="m 163.75,548.25 h 384.5 v -384.5 h -384.5 z"
         id="path947" />
    </clipPath>
    <clipPath
       clipPathUnits="userSpaceOnUse"
       id="clipPath975">
      <path
         d="m 163.75,548.25 h 384.5 v -384.5 h -384.5 z"
         id="path973" />
    </clipPath>
    <clipPath
       clipPathUnits="userSpaceOnUse"
       id="clipPath979">
      <path
         d="M 164,548 H 548 V 164 H 164 Z"
         id="path977" />
    </clipPath>
    <clipPath
       clipPathUnits="userSpaceOnUse"
       id="clipPath983">
      <path
         d="M 164.066,547.968 H 547.999 V 163.956 H 164.066 Z"
         id="path981" />
    </clipPath>
    <clipPath
       clipPathUnits="userSpaceOnUse"
       id="clipPath987">
      <path
         d="M 164.02,547.93 H 547.835 V 164.176 H 164.02 Z"
         id="path985" />
    </clipPath>
    <clipPath
       clipPathUnits="userSpaceOnUse"
       id="clipPath991">
      <path
         d="m 299.75,548.25 h 0.5 v -384.5 h -0.5 z"
         id="path989" />
    </clipPath>
    <clipPath
       clipPathUnits="userSpaceOnUse"
       id="clipPath995">
      <path
         d="m 355.75,548.25 h 0.5 v -384.5 h -0.5 z"
         id="path993" />
    </clipPath>
    <clipPath
       clipPathUnits="userSpaceOnUse"
       id="clipPath999">
      <path
         d="m 411.83,548.25 h 0.5 v -384.5 h -0.5 z"
         id="path997" />
    </clipPath>
    <clipPath
       clipPathUnits="userSpaceOnUse"
       id="clipPath1003">
      <path
         d="m 163.9,412.1 h 383.933 v -0.2 H 163.9 Z"
         id="path1001" />
    </clipPath>
    <clipPath
       clipPathUnits="userSpaceOnUse"
       id="clipPath1007">
      <path
         d="m 163.9,356.1 h 383.933 v -0.2 H 163.9 Z"
         id="path1005" />
    </clipPath>
    <clipPath
       clipPathUnits="userSpaceOnUse"
       id="clipPath1011">
      <path
         d="m 163.75,300.25 h 384.233 v -0.5 H 163.75 Z"
         id="path1009" />
    </clipPath>
  </defs>
  <sodipodi:namedview
     id="base"
     pagecolor="#ffffff"
     bordercolor="#666666"
     borderopacity="1.0"
     inkscape:pageopacity="0.0"
     inkscape:pageshadow="2"
     inkscape:zoom="2.6069658"
     inkscape:cx="171.84729"
     inkscape:cy="280.01902"
     inkscape:document-units="mm"
     inkscape:current-layer="foreground"
     showgrid="false"
     fit-margin-top="0"
     fit-margin-left="0"
     fit-margin-right="0"
     fit-margin-bottom="0"
     inkscape:window-width="1892"
     inkscape:window-height="1000"
     inkscape:window-x="14"
     inkscape:window-y="66"
     inkscape:window-maximized="1"
     inkscape:snap-global="true"
     inkscape:snap-bbox="false"
     inkscape:bbox-paths="true"
     inkscape:bbox-nodes="true"
     inkscape:snap-bbox-edge-midpoints="true"
     inkscape:snap-bbox-midpoints="true"
     inkscape:snap-nodes="true"
     inkscape:snap-text-baseline="true"
     inkscape:snap-page="true"
     inkscape:snap-to-guides="true"
     inkscape:document-rotation="0"
     units="px"
     inkscape:pagecheckerboard="1" />
  <metadata
     id="metadata5">
    <rdf:RDF>
      <cc:Work
         rdf:about="">
        <dc:format>image/svg+xml</dc:format>
        <dc:type
           rdf:resource="http://purl.org/dc/dcmitype/StillImage" />
        <dc:title />
      </cc:Work>
    </rdf:RDF>
  </metadata>
  <g
     inkscape:groupmode="layer"
     id="background"
     inkscape:label="Background">
    <rect
       style="fill:#68298c;fill-opacity:1;stroke-width:0.00558107;stroke-linecap:round;stroke-linejoin:round"
       id="rect11696"
       width="28.575001"
       height="28.575001"
       x="0"
       y="5.6843419e-14"
       ry="0" />
  </g>
  <g
     inkscape:label="Foreground"
     inkscape:groupmode="layer"
     id="foreground"
     transform="translate(449.41339,493.41072)">
    <path
       id="path3730"
       style="fill:#ffffff;fill-opacity:1;stroke:none;stroke-width:0.00556206px;stroke-linecap:butt;stroke-linejoin:miter;stroke-opacity:1"
       d="m -436.72986,-476.14091 c 0,0 0.82326,0.88004 1.86653,0.17743 1.04327,-0.70261 0.45776,-1.8133 0.45776,-1.8133 0,0 -0.61745,0.28388 -1.17102,0.66357 -0.55357,0.3797 -1.15327,0.9723 -1.15327,0.9723 z m -0.30233,-8.19808 c -0.4248,-10e-4 -1.17263,0.39112 -1.3406,0.83798 -0.0502,0.17062 0.127,0.3654 0.11651,0.56829 -0.0131,0.25253 -0.57712,0.64737 -0.88324,1.31482 -0.30612,0.66745 -0.2459,1.58582 -0.20575,2.05755 0.0401,0.47172 0.4667,2.23318 0.4667,2.23318 0,0 1.36501,-1.08397 1.95718,-1.4453 0.59217,-0.36132 1.61592,-0.82302 1.69622,-0.84811 0.0803,-0.0251 0.12043,-0.0602 0.13549,-0.0251 0.0151,0.0351 -0.0351,0.10036 -0.22583,0.22582 -0.1907,0.12546 -0.44664,0.24088 -1.12412,0.68249 -0.67749,0.44162 -1.65105,1.18435 -2.28337,1.94213 -0.63231,0.75778 -1.12913,1.85178 -0.33121,2.4038 0.79792,0.55202 2.58949,0.10037 3.60823,-0.21077 1.01873,-0.31114 2.55937,-1.05888 3.51789,-1.68618 0.95851,-0.6273 2.11273,-1.65105 2.60955,-2.40381 0.49682,-0.75275 0.48177,-1.12412 0.48177,-1.12412 0,0 0.0301,-0.42655 -0.0903,-0.61725 -0.12044,-0.1907 -0.48678,-0.31115 -0.77785,-0.38141 -0.29106,-0.0702 -1.19437,-0.23084 -1.51555,-0.40648 -0.32117,-0.17565 -0.73268,-0.66745 -0.88825,-0.84812 -0.15557,-0.18066 -0.80295,-0.81799 -0.80295,-0.81799 0,0 -0.95357,-0.82368 -1.85179,-1.02375 -0.72973,-0.16255 -1.20943,-0.0251 -1.20943,-0.0251 0,0 -0.31362,0.0811 -0.50184,0.005 -0.24486,-0.099 -0.25092,-0.35128 -0.47675,-0.40146 -0.0254,-0.004 -0.0524,-0.006 -0.0807,-0.006 z m 6.41405,4.8554 c 0.20505,-0.001 0.36023,0.0367 0.44648,0.12397 0.44162,0.44664 -0.79183,2.00511 -2.82869,3.19032 -2.03686,1.18522 -4.61309,1.68911 -4.8473,1.12134 -0.2342,-0.56776 1.58459,-2.04852 3.48564,-3.10725 1.20743,-0.65015 2.89903,-1.32305 3.74387,-1.32838 z" />
  </g>
</svg>
