<?xml version="1.0" encoding="UTF-8"?>
<svg enable-background="new 0 0 240.1 240.1" version="1.1" viewBox="0 0 108 108" xml:space="preserve" xmlns="http://www.w3.org/2000/svg" xmlns:xlink="http://www.w3.org/1999/xlink"><defs><linearGradient id="linearGradient849-7" x2="108" y1="186.1" y2="186.1" gradientTransform="rotate(90 120.05 120.05)" gradientUnits="userSpaceOnUse"><stop style="stop-color:#2AABEE" offset="0"/><stop style="stop-color:#229ED9" offset="1"/></linearGradient></defs>
<g id="background"><path d="m108 0v108h-108v-108z" style="fill:url(#linearGradient849-7);stroke-linecap:round;stroke-linejoin:round;stroke-width:.39831"/></g>
<g id="foreground" transform="translate(0 -132.1)"><path d="m31.537 186.11c12.429-5.3979 20.704-8.9846 24.859-10.725 11.826-4.9362 14.311-5.7885 15.909-5.824 0.35512 0 1.1364 0.0711 1.6691 0.49718 0.42615 0.35512 0.53268 0.81678 0.60371 1.1719 0.07102 0.35512 0.14205 1.1009 0.07102 1.6691-0.63922 6.7473-3.4092 23.118-4.8297 30.647-0.60371 3.1961-1.7756 4.2615-2.912 4.368-2.4859 0.21308-4.368-1.6336-6.7473-3.1961-3.7643-2.4504-5.8595-3.9774-9.5173-6.3922-4.226-2.77-1.4915-4.297 0.92332-6.7828 0.63922-0.63922 11.541-10.583 11.755-11.47 0.03551-0.10654 0.03551-0.53269-0.21307-0.74576-0.24858-0.21308-0.60371-0.14205-0.88781-0.0711-0.39064 0.0711-6.3567 4.0484-17.969 11.897-1.7046 1.1719-3.2316 1.7401-4.6166 1.7046-1.527-0.0355-4.439-0.85229-6.6408-1.5625-2.6634-0.85229-4.7942-1.314-4.6166-2.8055 0.10654-0.78126 1.1719-1.5625 3.1606-2.3793z" style="clip-rule:evenodd;fill-rule:evenodd;fill:#ffffff;stroke-width:.35512"/></g></svg>
