<?xml version="1.0" encoding="UTF-8"?>
<svg fill="none" version="1.1" viewBox="0 0 108 108" xmlns="http://www.w3.org/2000/svg">
	<g id="background">
		<path d="m0 0h108v108h-108z" fill="#7e16b1" stroke-linecap="round" stroke-width="59.723"/>
	</g>
	<g id="foreground">
		<path d="m54 28c-1.114 0-2.2095 0.07811-3.2871 0.21484a26 26 0 0 0-0.20117 0.02734c-1.0951 0.14768-2.1689 0.36045-3.2168 0.64062a26 26 0 0 0-0.06055 0.01563c-1.06 0.28617-2.0935 0.63817-3.0957 1.0508a26 26 0 0 0-0.13867 0.054687c-0.96539 0.40396-1.8982 0.86781-2.8008 1.3809a26 26 0 0 0-0.375 0.21484c-0.8493 0.5016-1.6691 1.0488-2.4531 1.6406a26 26 0 0 0-0.45117 0.35352c-0.71536 0.56497-1.4008 1.1652-2.0527 1.8008a26 26 0 0 0-0.47266 0.47266c-0.63555 0.65194-1.2358 1.3374-1.8008 2.0527a26 26 0 0 0-0.35352 0.45117c-0.59181 0.78406-1.139 1.6038-1.6406 2.4531a26 26 0 0 0-0.21484 0.375c-0.51305 0.90255-0.9769 1.8354-1.3809 2.8008a26 26 0 0 0-0.05469 0.13867c-0.41261 1.0022-0.76461 2.0357-1.0508 3.0957a26 26 0 0 0-0.01563 0.06055c-0.28017 1.0479-0.49294 2.1217-0.64062 3.2168a26 26 0 0 0-0.02734 0.20117c-0.13673 1.0776-0.21484 2.1731-0.21484 3.2871 0 1.114 0.07811 2.2095 0.21484 3.2871a26 26 0 0 0 0.02734 0.20117c0.14768 1.0951 0.36045 2.1689 0.64062 3.2168a26 26 0 0 0 0.01563 0.06055c0.28617 1.06 0.63817 2.0935 1.0508 3.0957a26 26 0 0 0 0.054687 0.13867c0.40396 0.96539 0.86781 1.8982 1.3809 2.8008a26 26 0 0 0 0.21484 0.375c0.5016 0.8493 1.0488 1.6691 1.6406 2.4531a26 26 0 0 0 0.35352 0.45117c0.56497 0.71536 1.1652 1.4008 1.8008 2.0527a26 26 0 0 0 0.47266 0.47266c0.65194 0.63555 1.3374 1.2358 2.0527 1.8008a26 26 0 0 0 0.45117 0.35352c0.78406 0.59181 1.6038 1.139 2.4531 1.6406a26 26 0 0 0 0.375 0.21484c0.90255 0.51305 1.8354 0.9769 2.8008 1.3809a26 26 0 0 0 0.13867 0.05469c1.0022 0.41261 2.0357 0.76461 3.0957 1.0508a26 26 0 0 0 0.06055 0.01563c1.0479 0.28017 2.1217 0.49294 3.2168 0.64062a26 26 0 0 0 0.20117 0.02734c1.0776 0.13673 2.1731 0.21484 3.2871 0.21484 14.333 0 26-11.667 26-26 0-14.333-11.667-26-26-26zm0 4.4258c11.941 0 21.574 9.6328 21.574 21.574s-9.6328 21.574-21.574 21.574v-3.3184c10.056 0 18.256-8.1999 18.256-18.256s-8.1999-18.256-18.256-18.256zm0 7.7441c7.6642 0 13.83 6.1659 13.83 13.83 0 7.6642-6.1659 13.83-13.83 13.83v-3.3203c5.7786 0 10.51-4.7311 10.51-10.51 0-5.7786-4.7311-10.51-10.51-10.51zm0 7.7441c3.3869 0 6.0859 2.699 6.0859 6.0859 0 3.3869-2.699 6.0859-6.0859 6.0859z" color="#000000" fill="#f0e1ff" stroke-linecap="round" style="-inkscape-stroke:none"/>
	</g>
</svg>
