<?xml version="1.0" encoding="UTF-8" standalone="no"?>
<svg
   height="108"
   viewBox="0 0 28.575115 28.575875"
   width="108"
   version="1.1"
   id="svg14"
   sodipodi:docname="wire__guard.svg"
   inkscape:version="1.1.2 (1:1.1+202202050950+0a00cf5339)"
   xmlns:inkscape="http://www.inkscape.org/namespaces/inkscape"
   xmlns:sodipodi="http://sodipodi.sourceforge.net/DTD/sodipodi-0.dtd"
   xmlns="http://www.w3.org/2000/svg"
   xmlns:svg="http://www.w3.org/2000/svg">
  <defs
     id="defs18" />
  <sodipodi:namedview
     id="namedview16"
     pagecolor="#505050"
     bordercolor="#ffffff"
     borderopacity="1"
     inkscape:pageshadow="0"
     inkscape:pageopacity="0"
     inkscape:pagecheckerboard="1"
     inkscape:document-units="mm"
     showgrid="false"
     units="px"
     inkscape:zoom="7.5867557"
     inkscape:cx="59.247986"
     inkscape:cy="51.800798"
     inkscape:current-layer="background" />
  <metadata
     id="metadata2" />
  <g
     id="background"
     inkscape:label="background"
     inkscape:groupmode="layer">
    <rect
       style="opacity:1;fill:#88171a;fill-opacity:1;fill-rule:nonzero;stroke:none;stroke-width:0.0736105;stroke-linecap:round;stroke-linejoin:round;stroke-miterlimit:4;stroke-dasharray:none;stroke-opacity:0.501961"
       id="rect1808"
       width="28.575874"
       height="28.575874"
       x="-0.00038000001"
       y="-2.220446e-16"
       clip-path="none" />
  </g>
  <g
     id="foreground"
     inkscape:label="foreground"
     inkscape:groupmode="layer">
    <g
       id="g1423"
       transform="matrix(0.18487825,0,0,0.18487825,7.0365977,6.977822)">
      <path
         id="path925"
         style="fill:#ffffff;fill-opacity:1;stroke-width:0.265"
         d="m 26.9745,25.0585 c 7.942,-4.85881 18.0885,-1.88916 21.8903,5.4176 0.72054,1.38478 0.81211,3.51658 0.35578,4.96941 -1.57548,5.01544 -5.29537,7.82823 -10.4013,9.02308 1.50527,-1.2887 2.70352,-2.75007 3.08478,-4.76911 a 6.98553,6.98553 0 0 0 -1.20187,-5.54461 7.08025,7.08025 0 0 0 -8.15208,-2.48422 c -3.14351,1.19356 -4.86542,4.06241 -4.55506,7.58904 0.28834,3.27581 2.77389,5.39882 7.42447,6.20527 -0.69506,0.36788 -1.23039,0.63881 -1.75416,0.93059 a 16.9116,16.9116 0 0 0 -5.4356,4.72758 c -0.47199,0.63722 -0.7965,0.68855 -1.51527,0.24901 -9.34984,-5.71764 -9.95071,-20.067 0.25989,-26.3136 z m -6.99797,35.3298 c -1.50201,0.38126 -2.95751,0.94567 -4.49289,1.44925 0.75102,-5.06703 6.6847,-9.73349 11.7025,-9.20115 a 12.9331,12.9331 0 0 0 -2.44528,6.85086 c -1.6674,0.30708 -3.23876,0.51366 -4.76435,0.90091 z m 31.959,-49.4718 c 1.48429,0.05454 2.97127,0.03199 4.45665,0.06715 a 7.68668,7.68668 0 0 1 1.10262,0.15364 10.7439,10.7439 0 0 1 -1.1207,1.43753 c -0.53101,0.4948 -1.13096,0.97859 -1.89603,0.22648 -0.18401,-0.1809 -0.61875,-0.13938 -0.93892,-0.1436 -1.47699,-0.01941 -2.95593,-0.06661 -4.43072,-0.01093 a 27.5272,27.5272 0 0 0 -3.81661,0.38973 c -0.23645,0.04246 -0.58999,0.82854 -0.4813,1.11839 0.25646,0.68403 0.63058,1.43835 1.18477,1.87584 2.04796,1.6166 4.22593,3.06811 6.28333,4.6736 1.99919,1.56014 3.86,3.26972 4.99401,5.62319 1.47751,3.06652 1.52056,6.282 0.88339,9.51177 -1.0637,5.39168 -3.79227,9.85864 -8.21055,13.1032 -1.78033,1.30731 -3.98463,2.04923 -6.02377,2.98847 -1.79334,0.82616 -3.63934,1.53763 -5.43692,2.35501 -3.24088,1.47359 -5.06227,4.99136 -4.52649,8.6487 0.49172,3.35624 3.43614,6.15711 6.80905,6.73523 4.04601,0.69363 8.22087,-1.93577 9.21067,-6.04838 1.11303,-4.62438 -1.39959,-8.75321 -6.10261,-10.0047 -0.20709,-0.0551 -0.41497,-0.10729 -0.84699,-0.21878 1.25807,-0.56211 2.34458,-0.96258 3.34778,-1.51458 q 2.62501,-1.44447 5.15435,-3.05911 c 0.49588,-0.31724 0.76379,-0.3174 1.1867,0.0482 3.23454,2.79664 5.16414,6.27539 5.70522,10.5407 0.89548,7.06014 -2.44663,13.5461 -8.7503,16.8704 -9.75255,5.14323 -21.6866,-0.71078 -23.8406,-11.5231 -1.84515,-9.26121 4.69106,-17.662 12.5576,-19.2839 3.38323,-0.69755 6.477,-2.10598 8.88207,-4.71143 1.55183,-1.68119 2.30409,-3.12368 2.56042,-3.77455 a 10.4682,10.4682 0 0 0 0.71996,-3.82826 8.96064,8.96064 0 0 0 -0.7846,-3.2803 c -0.82126,-1.87193 -3.96742,-4.84982 -4.74636,-5.47794 l -7.40833,-5.79993 c -0.2613,-0.21499 -0.55547,-0.19941 -1.19271,-0.15622 -0.757,0.05131 -2.69214,0.15845 -3.52717,-0.06036 0.67549,-0.5112 2.51704,-1.25548 3.30783,-1.85394 -2.40067,-1.62182 -5.14086,-1.03606 -7.65731,-1.52032 0.58187,-1.08371 3.46101,-2.74902 5.09852,-2.93449 A 24.2181,24.2181 0 0 0 33.19497,9.35873 C 33.09497,8.99051 32.68401,8.63356 32.32544,8.42329 31.45602,7.91352 30.53437,7.49283 29.53435,6.98589 a 5.8039,5.8039 0 0 1 2.99826,-0.9275 11.1961,11.1961 0 0 1 3.00249,0.29252 C 37.31898,6.7585 38.74291,6.49244 40.16214,5.27988 39.04507,4.83003 37.92813,4.41906 36.84479,3.93296 A 32.5543,32.5543 0 0 1 33.72826,2.30358 c 2.81041,0.39039 5.52874,1.44423 8.40238,1.05923 q 0.0367,-0.19592 0.0734,-0.39182 C 40.05578,2.47095 37.90747,1.97092 35.52887,1.41725 39.5082,1.05294 43.2129,0.99286 46.72097,2.70156 c 0.98716,0.48083 2.02004,0.87881 2.96624,1.42801 0.46151,0.26786 0.77221,0.79581 1.15083,1.20634 0.30073,0.3261 0.54227,0.76298 0.91176,0.95949 1.40229,0.7457 2.94587,0.77499 4.51855,0.73763 0.0117,-0.17911 0.0228,-0.34697 0.0346,-0.52739 1.58276,0.49459 3.36418,2.31984 3.36127,3.65284 -2.56411,0 -5.12604,-0.0098 -7.68774,0.01426 -0.27379,0.0026 -0.54573,0.20257 -0.81851,0.31099 0.25925,0.15099 0.51403,0.42317 0.77848,0.43291 z"
         inkscape:label="dragon" />
      <path
         d="m 48.628,7.1225 a 0.39174,0.39174 0 0 0 -0.0501,0.62669 0.59071,0.59071 0 0 0 0.8129,0.21746 C 49.63761,7.84216 49.8797,7.70964 50.17794,7.55218 49.93773,7.34713 49.74503,7.17785 49.54672,7.01444 49.198,6.7271 48.90881,6.90758 48.62799,7.12248 Z"
         id="path10"
         style="stroke-width:0.265"
         inkscape:label="eye" />
    </g>
  </g>
</svg>
