<?xml version="1.0" encoding="UTF-8"?>
<svg version="1.1" viewBox="0 0 108 108" xml:space="preserve" xmlns="http://www.w3.org/2000/svg" xmlns:xlink="http://www.w3.org/1999/xlink">
<defs>
	<linearGradient id="linearGradient1359" x1="46.679" x2="67.892" y1="66.948" y2="54.701" gradientUnits="userSpaceOnUse">
		<stop stop-color="#2E73FF" offset=".095901"/>
		<stop stop-color="#FF0032" offset="1"/>
	</linearGradient>
</defs>

<g id="background">
	<rect width="108" height="108" fill="url(#linearGradient1359)"/>
</g>
<g id="foreground">
	<path d="m0 0v108h108v-108zm49.574 44.607c0.38938-0.0073 0.79052 0.08741 1.168 0.30469l12.346 7.127c1.5099 0.87468 1.5115 3.0528-0.0039 3.9219l-12.342 7.125c-1.5098 0.86911-3.3984-0.21158-3.3984-1.9609v-14.252c0-1.3037 1.0623-2.2437 2.2305-2.2656z" fill="#000"/>
	<path d="m54.006 35.959s-0.75354 8.59e-4 -1.9629 0.01172c-4.2798 0.04345-14.302 0.21991-17.297 1.0273-2.1182 0.57571-3.7906 2.2524-4.3555 4.3887-1.0319 3.867-1.0312 12.582-1.0312 12.582s-6.76e-4 8.7814 1.0312 12.648c0.56484 2.1363 2.2373 3.8202 4.3555 4.3887 3.4361 0.92692 16.141 1.0243 18.773 1.0352h0.48242s4.4562-0.0011 9.1777-0.16406c4.0553-0.14121 8.3039-0.39344 10.078-0.875 2.1182-0.57571 3.7906-2.2524 4.3555-4.3887 0.30053-1.1297 0.51394-2.6831 0.66602-4.3125 0.15932-1.7416 0.25009-3.5733 0.30078-5.0723 0.06155-1.8937 0.06055-3.2637 0.06055-3.2637s-4.1e-5 -0.65138-0.02539-1.6797c-0.02173-1.2818-0.08645-3.1387-0.2168-5.0469-0.14845-2.1544-0.3944-4.3637-0.78906-5.8555-0.56484-2.1363-2.2373-3.8202-4.3555-4.3887-0.20276-0.05431-0.43462-0.10723-0.69531-0.1543-0.22087-0.03983-0.46-0.07736-0.7207-0.11719-0.06155-0.01087-0.12009-0.01819-0.18164-0.02539-0.02173-0.0037-0.05082-0.0062-0.07617-0.0098-1.3904-0.18828-3.2334-0.32664-5.2031-0.43164-0.76037-0.03983-1.5483-0.07288-2.334-0.10547-0.37294-0.01448-0.7501-0.0282-1.123-0.03906-0.05431 0-0.11199-0.0039-0.16992-0.0039-0.56122-0.01448-1.119-0.0324-1.6621-0.04687-3.8634-0.10138-7.082-0.10156-7.082-0.10156zm-3.8203 9.5742c0.35102-0.0066 0.71442 0.07952 1.0547 0.27539l11.129 6.4219c1.3611 0.78853 1.3603 2.7536-0.0059 3.5371l-11.123 6.4238c-1.3611 0.78351-3.0645-0.19052-3.0645-1.7676v-12.848c0-1.1753 0.95669-2.0232 2.0098-2.043z" fill="#fff"/>
</g>
</svg>
