<?xml version="1.0" encoding="UTF-8" standalone="no"?>
<svg
   width="108"
   height="108"
   viewBox="0 0 108 108"
   version="1.1"
   id="svg92"
   sodipodi:docname="adaptive_template.svg"
   inkscape:version="1.1.2 (1:1.1+202202050950+0a00cf5339)"
   style="fill:none"
   xmlns:inkscape="http://www.inkscape.org/namespaces/inkscape"
   xmlns:sodipodi="http://sodipodi.sourceforge.net/DTD/sodipodi-0.dtd"
   xmlns="http://www.w3.org/2000/svg"
   xmlns:svg="http://www.w3.org/2000/svg"
   xmlns:rdf="http://www.w3.org/1999/02/22-rdf-syntax-ns#"
   xmlns:cc="http://creativecommons.org/ns#"
   xmlns:dc="http://purl.org/dc/elements/1.1/">
  <metadata
     id="metadata96">
    <rdf:RDF>
      <cc:Work
         rdf:about="">
        <dc:format>image/svg+xml</dc:format>
        <dc:type
           rdf:resource="http://purl.org/dc/dcmitype/StillImage" />
      </cc:Work>
    </rdf:RDF>
  </metadata>
  <sodipodi:namedview
     pagecolor="#595959"
     bordercolor="#666666"
     borderopacity="1"
     objecttolerance="10"
     gridtolerance="10"
     guidetolerance="10"
     inkscape:pageopacity="0"
     inkscape:pageshadow="2"
     inkscape:window-width="640"
     inkscape:window-height="480"
     id="namedview94"
     showgrid="false"
     inkscape:zoom="8"
     inkscape:cx="54"
     inkscape:cy="56.625"
     inkscape:current-layer="svg92"
     fit-margin-top="0"
     fit-margin-left="0"
     fit-margin-right="0"
     fit-margin-bottom="0"
     inkscape:pagecheckerboard="1"
     inkscape:lockguides="true"
     inkscape:snap-center="true" />
  <defs
     id="defs90" />
  <g
     id="background"
     inkscape:label="background"
     inkscape:groupmode="layer">
    <path
       id="rect7029"
       style="fill:#ffffff;stroke-width:59.7226;stroke-linecap:round"
       d="M 0,0 H 108 V 108 H 0 Z" />
  </g>
  <g
     id="foreground"
     inkscape:label="foreground"
     inkscape:groupmode="layer" />
  <g
     id="g2362"
     inkscape:label="template (delete before submitting)">
    <path
       style="display:inline;fill:none;stroke:#ff9800;stroke-width:0.998161;stroke-linecap:square;stroke-miterlimit:4;stroke-dasharray:none;stroke-opacity:0.5"
       id="path6"
       d="m 79.3283,23.3222 c -6.689,-4.2928 -16.5528,-4.956 -25.3282,-4.956 -8.7754,0 -18.6392,0.6632 -25.3282,4.956 -2.1518,1.3809 -3.8593,3.0948 -5.235,5.2547 -4.2767,6.7141 -4.9375,16.6149 -4.9375,25.4232 0,8.8082 0.6608,18.7091 4.9375,25.4231 1.3757,2.1599 3.0832,3.8737 5.235,5.2548 6.689,4.2927 16.5528,4.9559 25.3282,4.9559 8.7754,0 18.6392,-0.6632 25.3282,-4.9559 2.1518,-1.3811 3.8592,-3.0949 5.2351,-5.2548 4.2766,-6.714 4.9374,-16.6149 4.9374,-25.4231 0,-8.8083 -0.6608,-18.7091 -4.9374,-25.4232 -1.3759,-2.1599 -3.0833,-3.8738 -5.2351,-5.2547 z" />
    <path
       style="display:inline;fill:none;stroke:#ff9800;stroke-width:0.500002;stroke-linecap:square;stroke-miterlimit:4;stroke-dasharray:none;stroke-opacity:0.5"
       d="m 86.6333,54.0001 c 0,18.023 -14.6104,32.6335 -32.6332,32.6335 -8.6549,0 -16.9552,-3.4381 -23.0751,-9.5581 -6.1199,-6.12 -9.5581,-14.4205 -9.5581,-23.0754 0,-18.0231 14.6104,-32.6336 32.6332,-32.6336 18.0228,0 32.6332,14.6105 32.6332,32.6336 z"
       id="circle10" />
    <path
       style="display:inline;fill:none;stroke:#ff9800;stroke-width:0.25;stroke-linecap:square;stroke-miterlimit:4;stroke-dasharray:none;stroke-opacity:0.5"
       d="m 71.8125,54.0001 c 0,4.7242 -1.8766,9.2549 -5.2171,12.5954 -3.3405,3.3405 -7.8712,5.2172 -12.5953,5.2172 -9.8375,0 -17.8124,-7.975 -17.8124,-17.8126 0,-9.8377 7.9749,-17.8127 17.8124,-17.8127 4.7241,0 9.2548,1.8767 12.5953,5.2172 3.3405,3.3405 5.2171,7.8713 5.2171,12.5955 z"
       id="circle12" />
    <path
       style="display:inline;fill:none;stroke:#ff9800;stroke-width:0.25;stroke-linecap:square;stroke-miterlimit:4;stroke-dasharray:none;stroke-opacity:0.5"
       d="m 79.8125,54.0001 c 0,14.2559 -11.5566,25.8126 -25.8124,25.8126 -14.2558,0 -25.8124,-11.5567 -25.8124,-25.8126 0,-6.846 2.7195,-13.4115 7.5603,-18.2523 4.8407,-4.8408 11.4062,-7.5604 18.2521,-7.5604 6.8459,0 13.4114,2.7196 18.2521,7.5604 4.8408,4.8408 7.5603,11.4063 7.5603,18.2523 z"
       id="circle20" />
    <path
       id="rect862"
       style="opacity:1;stroke:#ff9700;stroke-linecap:round;stroke-linejoin:round;stroke-opacity:0.501961;stroke-width:0.24999958637144318"
       d="M 36.0207 32 L 71.9795 32 C 74.2069 32 76.0001 33.791 76.0001 36.0157 L 76.0001 71.9844 C 76.0001 74.2091 74.2069 76.0001 71.9795 76.0001 L 36.0207 76.0001 C 33.7933 76.0001 32.0001 74.2091 32.0001 71.9844 L 32.0001 36.0157 C 32.0001 33.791 33.7933 32 36.0207 32 Z" />
    <path
       id="rect868"
       style="opacity:1;stroke:#ff9700;stroke-linecap:round;stroke-linejoin:round;stroke-opacity:0.501961;stroke-width:0.24999958637144318"
       d="M 40.0207 28 L 67.9795 28 C 70.2069 28 72.0001 29.791 72.0001 32.0157 L 72.0001 75.9844 C 72.0001 78.2091 70.2069 80.0001 67.9795 80.0001 L 40.0207 80.0001 C 37.7933 80.0001 36.0001 78.2091 36.0001 75.9844 L 36.0001 32.0157 C 36.0001 29.791 37.7933 28 40.0207 28 Z" />
    <path
       id="rect870"
       style="opacity:1;stroke:#ff9700;stroke-linecap:round;stroke-linejoin:round;stroke-opacity:0.501961;stroke-width:0.24999958637144318"
       d="M 80.0001 40.0258 L 80.0001 67.9743 C 80.0001 70.2046 78.2114 72.0001 75.9896 72.0001 L 32.0106 72.0001 C 29.7888 72.0001 28 70.2046 28 67.9743 L 28 40.0258 C 28 37.7955 29.7888 36 32.0106 36 L 75.9896 36 C 78.2114 36 80.0001 37.7955 80.0001 40.0258 Z" />
  </g>
</svg>
